<svg id="Lag_2" data-name="Lag 2" xmlns="http://www.w3.org/2000/svg" viewBox="0 0 741.93913 992.7617"><defs><style>.cls-1{fill:#3c3c3c;stroke:#3c3c3c;stroke-miterlimit:10;stroke-width:1.5px;}</style></defs><title>aarhus</title><path class="cls-1" d="M787.9303,178.5c-3.86438-10.0159-55.12244,16.50066-93-4-20.45007-11.06825-17.70911-25.40074-33-28-32.48291-5.52168-61.01221,56.41071-83,48-7.11243-2.72064-11.53505-11.25462-11-15,4-28,40.54114-65.65093,30-87-1.99451-4.03947-3.69082-14.10032-18-11-60,13-59.10132-38.212-78-37-24.68884,1.58327-42.27466,23.02074-48,30-22.6283,27.58437-21.85132,61.15273-31,61-5.28833-.08827-5.06348-11.29631-16-20-11.36951-9.04827-30.43829-11.9175-43-5-20.65247,11.37294-23.12024,48.87126-16,74,7.01062,24.74175,23.79852,39.19418,17,51-3.52258,6.117-9.13623,4.15892-15,9-23.55505,19.44693,22.51709,87.79572-2,117-11.56409,13.7749-34.04639,13.13992-39,13-5.1355-.14505-29.09912-1.50626-41-18-5.11871-7.09415-6.82227-15.34732-10-15-3.38495.37-13.02905,12.79745-19,18-9.24237,8.053-17.879-3.2562-22-5-21.24939-8.99167-29.28992-24.51209-34-22-5.207,2.77716,13.11828,36.25807-1,33-13-3-49.72223,7.42245-54,21-1.7713,5.62216,4.41638,8.91214,2,16-3.15454,9.25314-15.021,7.52-19,17-3.38629,8.068,3.3739,13.69394-1,21-3.66113,6.11548-10.09857,5.015-11,9-1.918,8.47925,25.77972,19.86224,24,25-1.33209,3.84561-17.80768.23373-19,4-1.30017,4.10706,17.25549,11.676,16,16-.82581,2.84418-9.43671,1.57678-21,3-10.48437,1.29044-28.39441,3.49484-33,12-8.27313,15.278,30.96771,42.42328,23,59-5.23065,10.88226-24.1991,3.46313-35,17-14.12146,17.69849-1.99872,55.82422,12,59,6.04492,1.37134,10.83685-4.138,16-1,4.12177,2.50507,4.87677,8.33112,6,18,1.57806,13.584-.67078,15.2168,1,22,2.448,9.93866,11.09448,21.93732,20,22,11.70447.0824,16.61792-20.504,26-19,1.12213.17987,3.55884.87628,13,17,9.50549,16.23364,9.09344,19.04248,13,21,10.19934,5.11078,18.85913-11.10352,34-9,15.5188,2.15607,31.2171,22.63477,33,41,.72211,7.43835-1.02881,12.5694,3,17,6.10248,6.71106,16.54114,2.00079,22,9,3.88672,4.98346-.36157,8.70929,3,15,5.55334,10.39233,20.19971,5.93524,26,16,3.60468,6.25488,2.06445,15.11914-2,20-3.692,4.43359-13,.63073-13,6,0,12-24,32-29,50-3.89445,14.02-25.01965-.18378-29,7-4.31842,7.79388,11.58679,15.55347,12,34,.34784,15.52783-10.7301,18.61-12,41-.51038,8.99872,1.0575,12.40735-2,16-7.34283,8.62805-24.12451-1.938-32,6-6.64221,6.69495-4.00934,23.589,5,33,7.01044,7.323,16.32007,8.48376,21,9,16.01636,1.767,19.74707-6.60327,44-12,19.50348-4.33991,25.83606-.87293,33-8,8.00763-7.96643,5.53137-17.70575,12-20,6.28839-2.23035,12.01251,5.77356,25,14,7.80463,4.94354,29.31873,18.5708,43,13,14.61353-5.95038,2.205-34.05524,23-45,19-10,62-3,75-3,8.83977,0-8.93738,17.05353-4,29,2.34009,5.66223,8.30371,11.43488,14,11,8.903-.67969,9.29712-15.92334,20-19,9.46875-2.72186,13.52856,7.95306,24,7,14.67273-1.33539,14.95117-23.04511,36-35,15.25012-8.6615,22.50049-1.46661,32-9,17.51941-13.89337,9.53516-51.58868,5-73-12.1554-57.38831-34.54956-62.17511-31-98,1.2959-13.07977,5.81372-27.90991-3-40-6.7384-9.24335-15.8009-9.38367-20-20-3.67737-9.29724,1.33936-14.07819,0-26-.91992-8.18842-4.11169-13.27728-16-30-22.78589-32.0517-33.86584-45.43579-30-51,1.12878-1.62463,2.283-.78534,13-6,2.03625-.99078,5.44141-2.6557,9.14551-4.854,1.27039-.75391,14.82935-8.80072,13.85449-11.146-1.09167-2.62628-18.927,5.46124-22,1-4.259-6.183,23.19263-31.59985,21-34-1.77222-1.93994-19.51965,14.8681-25,11-4.25793-3.00531.70178-17.21283,5-28,19.57581-49.12927,31.40214-73.43668,57-90,17-11,28-23,50-25,7.52368-.684-1.64038-16.92508,4-21,3.93018-2.83942,8.19739-.02432,12-3,4.675-3.65833,2.57361-11.31573,3-18,1.35706-21.27762,28.7406-39.17444,45-46,12.19226-5.11823,17.46692-3.733,26-11,3.08215-2.62482,14.87769-13.437,13-25-1.12744-6.94254-6.44385-9.59866-5-13,2.42017-5.70129,18.18127-.179,22-6,4.87292-7.42776-17.68921-21.14639-16-40,1.47253-16.43622,20.95422-32.06592,34-30,5.02319.79547,5.41162,3.63162,11,4,10.07239.664,20.58447-7.77347,25-17,1.733-3.62129.745-3.64084,4-14C786.93714,180.74782,788.60242,180.24219,787.9303,178.5Z" transform="translate(-46.88611 -43.7288)"/></svg>