<svg id="Layer_2" data-name="Layer 2" xmlns="http://www.w3.org/2000/svg" viewBox="0 0 910.63173 214.69707"><defs><style>.cls-1{fill:#ff4a4d;stroke:#ff4a4d;stroke-miterlimit:10;}</style></defs><title>aarhus-skyline</title><path class="cls-1" d="M1224.51394,217.47H318.6695V187.049h6.462V166.0201l-5.80484-5.14769L355.251,135.24347V124.07188h9.09061v2.19051h40.30534v-7.3382h5.03817v7.3382h24.31463l2.40956-46.32923,2.73813,46.21971h24.42416v-7.11915h5.91437v7.44773h39.75771v-2.84766h9.52871v10.95254l35.04812,25.40989-4.81912,6.13342v19.82409h5.58579v8.10488h2.84766V189.349h1.09525V174.01545l4.92864-2.73813V150.68655l5.36674-22.34318,4.60007,3.06671v3.28576h15.005v-2.84766h4.162v-6.13342h4.81912v-6.57152h5.47627v-6.9001h4.70959V108.1907h2.51908l7.66678-45.56256V58.55738H616.5388v-2.1277h1.60581V53.98081h.92334v2.489h1.16422v2.00727h-1.24451v4.135l7.89415,45.019h2.47661v4.40287h3.94424v6.696H638.898v6.2374h4.678v7.42984h4.49459v2.93525h15.13486v-4.036l4.12769-3.66906,5.77876,23.39024v20.27154l5.22841,3.4856v12.65825h3.4856V100.56814l-3.00888-6.4399s6.16,3.31573,18.652-53.61935c.24023-5.52535.29179-6.86586.29179-6.86586V27.75024h-1.77685V25.41892h1.88726v-2.2203h2.33132v1.99827h2.10929v2.66436h-2.10929V40.62153s9.38272,54.46749,16.53394,51.66918c2.79831,1.08823,5.28569,4.97476,2.95377,12.74784-2.48738,2.64284-3.26469,3.57561-3.26469,3.57561v23.48909l18.15462-8.48668.27961-4.19416h4.89319v3.77475l16.91646,9.367v-24.466s-8.94755-7.13008,2.93591-17.47568C761.1433,89.36423,773.879,39.34977,773.879,39.34977V27.65546h-2.28728v-2.5223h2.13442v-2.293h2.7516V25.286h2.0637v2.67517h-2.21657V39.19691s9.4878,54.72127,18.56627,54.87514c.30774,1.6926-3.07745,7.38587-3.07745,7.38587v85.39916h2.61583V169.31563H832.436v-72.32s8.37713,5.51139,16.36089-81.54961a8.54255,8.54255,0,0,0,0-4.797H847.734V8.14859h1.2502V3.77289h2.08367v4.532H852.266v2.813h-1.30229s-.15627,4.68825.93765,4.74034c0,1.19811,4.56918,81.26549,14.92682,81.26549-.2762,2.48583,0,71.60887,0,71.60887h13.36747v5.49568h4.27442l4.478,10.17719V134.13007l4.07088-3.46024h28.089V52.59643h23.85412V155.60772s11.05271-1.32633,22.54754,13.70536c.44211-5.3053,2.65265-14.58958-3.53687-21.66332,7.51585-1.76843,60.56887-8.13344,60.56887-8.13344l-4.42108-9.10879,70.73736-29.62127s-.54743-7.39025,5.748-6.706c2.32656.68428,7.664,3.28456,5.06369,8.07453,2.73713.958,69.6385,28.28653,69.6385,28.28653l-2.20948,6.62843,59.02455,10.10046-3.15639,8.52226Z" transform="translate(-318.1695 -3.27289)"/></svg>