<?xml version="1.0" encoding="utf-8"?>
<!-- Generator: Adobe Illustrator 21.0.2, SVG Export Plug-In . SVG Version: 6.00 Build 0)  -->
<svg version="1.1" id="Lag_1" xmlns="http://www.w3.org/2000/svg" xmlns:xlink="http://www.w3.org/1999/xlink" x="0px" y="0px"
	 viewBox="0 0 1920 1080" style="enable-background:new 0 0 1920 1080;" xml:space="preserve">
<style type="text/css">
	.st0{fill:#FFFFFF;}
	.st1{fill:none;stroke:#FFFFFF;stroke-width:3;stroke-miterlimit:10;}
	.st2{fill:none;stroke:#FFFFFF;stroke-width:5;stroke-miterlimit:10;}
</style>
<g>
	<rect width="1920" height="1080"/>
</g>
<g>
	<g>
		<g>
			<path class="st0" d="M71.8,751.1l102.7,40.4c-1,3-2.1,6-3.3,9c-9.7,24.8-23.7,47.1-39.2,62.9c-14.8,15.1-30.2,23.4-43.3,23.4
				c-3.6,0-7-0.6-10.2-1.9c-13.2-5.2-21.7-20.6-24-43.5c-2.4-24.1,2.4-53,13.6-81.5C69.3,756.9,70.5,754,71.8,751.1 M69.3,744.7
				c-2,4.3-3.9,8.8-5.7,13.4c-23.7,60.4-17.8,119.3,13.2,131.5c3.8,1.5,7.9,2.2,12,2.2c29.7,0,66.3-36.6,87.2-89.5
				c1.8-4.6,3.4-9.2,4.9-13.7L69.3,744.7L69.3,744.7z"/>
		</g>
		<g>
			<path class="st0" d="M220.2,527.5c4.5,0,8.6,0.7,12.3,2.2c10.9,4.3,20.4,17.3,25.9,35.5c5,16.6,6.3,36.3,3.6,55.4
				c-3,21.5-10.7,41.6-22.5,58.4c-11.2,16-23.8,36.8-34.9,55.2c-6.8,11.2-13.2,21.9-18.4,29.9L82,723.2
				c4.4-23.9,15.4-58.6,24.5-81.9c17-43.1,39.5-69.8,55.4-84.6C181.8,538.2,203,527.5,220.2,527.5 M220.2,522.5
				c-36.2,0-89.1,42.3-118.4,116.9c-10.4,26.3-21.7,63.3-25.5,86.9l111.8,43.9c13.3-19.8,36.4-61.2,55.5-88.4
				c41.4-58.9,25.7-143.1-9.3-156.9C230,523.4,225.3,522.5,220.2,522.5L220.2,522.5z"/>
		</g>
	</g>
	<g>
		<g>
			<path class="st0" d="M260.3,924.9L369,944.4c-0.4,3.2-0.9,6.3-1.5,9.4c-5.1,28.3-15.3,54.4-28.8,73.3
				c-12.9,18.1-27.4,28.1-40.9,28.1c-1.6,0-3.2-0.1-4.7-0.4c-13.9-2.5-25.3-16-32.1-38c-7.1-23.1-8-52.4-2.6-82.6
				C259,931.2,259.6,928.1,260.3,924.9 M256.5,919.2c-1.1,4.6-2.1,9.4-3,14.2c-11.4,63.9,5.9,120.4,38.7,126.3
				c1.9,0.3,3.7,0.5,5.6,0.5c31.2,0,63.8-45.3,74.6-105.5c0.9-4.8,1.6-9.6,2.1-14.4L256.5,919.2L256.5,919.2z"/>
		</g>
		<g>
			<path class="st0" d="M341.9,666.1v5c2.1,0,4.2,0.2,6.4,0.6c16.7,3,32.7,21.3,42.5,49c11.3,31.7,13.6,71.5,6.3,112.1
				c-4.4,24.6-13.2,59.9-22.1,82.6L266.7,896c4.4-14.5,1.9-33-0.7-52.5c-2.2-16.4-4.4-33.4-2.2-47.1c6.5-39.6,17.8-72.2,32.9-94.5
				c13.5-20,29.1-30.6,45.1-30.6L341.9,666.1 M341.9,666.1c-34.7,0-69,44.4-82.9,129.3c-5.4,32.8,13,79.5,0.9,104.3L378.1,921
				c9.2-22,18.9-59.5,23.9-87.3c16.1-90-15.8-160.2-52.9-166.9C346.7,666.3,344.3,666.1,341.9,666.1L341.9,666.1z"/>
		</g>
	</g>
</g>
<g>
	<g>
		<g>
			<path class="st0" d="M1674.1,180l43.5,42.7c-0.8,0.9-1.6,1.7-2.5,2.6c-17.2,17.6-38.3,28.9-53.7,28.9c-5.6,0-10-1.5-13.1-4.5
				c-5.3-5.2-6.2-15-2.5-27c4.1-13.3,13.2-27.6,25.6-40.2C1672.4,181.7,1673.2,180.8,1674.1,180 M1674.2,173.1
				c-2.1,1.9-4.2,3.8-6.2,5.9c-26.7,27.3-37.1,60.5-23,74.3c4.1,4,9.8,5.9,16.6,5.9c16.3,0,38.3-11.1,57.2-30.4c2-2.1,4-4.2,5.8-6.3
				L1674.2,173.1L1674.2,173.1z"/>
		</g>
		<g>
			<path class="st0" d="M1792.1,89.8c8.2,0,14.5,2,18.4,5.9c4,3.9,6.1,9.3,6.1,16c0,17.3-13.5,40.7-37.1,64
				c-10.4,10.3-27.5,20.8-40,28.5c-2.3,1.4-4.3,2.7-6.2,3.9l-44.7-43.8c7.9-11.7,21.1-27,30.9-37
				C1746.6,99.6,1774.8,89.8,1792.1,89.8 M1792.1,84.8c-20.9,0-50.2,12.3-76.1,38.8c-11.7,11.9-26.3,29.3-33.8,41.2l50.5,49.5
				c11.8-7.7,36.5-21.4,50.4-35.1c38.5-38.1,46.8-71.6,31-87.1C1809.2,87.2,1801.5,84.8,1792.1,84.8L1792.1,84.8z"/>
		</g>
	</g>
	<g>
		<g>
			<path class="st0" d="M1736.8,317.5l51.1,33.4c-0.6,1-1.3,2-1.9,3c-15.1,23.2-36.5,39.4-52,39.4c-3.4,0-6.3-0.8-8.7-2.4
				c-6.2-4.1-9-13.5-7.7-26c1.4-13.8,7.6-29.6,17.2-44.4C1735.5,319.4,1736.1,318.4,1736.8,317.5 M1735.5,310.7
				c-1.7,2.3-3.3,4.6-4.9,7c-20.9,32-24.5,66.6-8,77.3c3.3,2.2,7.2,3.2,11.4,3.2c16.8,0,39.5-16.1,56.1-41.7
				c1.6-2.4,3.1-4.9,4.5-7.3L1735.5,310.7L1735.5,310.7z"/>
		</g>
		<g>
			<path class="st0" d="M1830,196.2L1830,196.2c4.1,0,7.8,1.1,11,3.2c7.8,5.1,11.8,17.9,10.9,34.5c-1.1,19.4-8.9,41.1-22,61.2
				c-7.7,11.8-19.8,27.9-29.5,38.1l-52.4-34.2c0.7-2.1,1.5-4.4,2.4-6.9c4.8-13.8,11.4-32.8,19.2-45.2
				C1789.6,215.2,1812.1,196.2,1830,196.2 M1830,191.2c-18.2,0-42.1,17.2-64.7,53c-10.4,16.5-18.5,43.6-23.5,56.7l59.2,38.6
				c10-9.8,23.9-27.9,33-41.8c29.4-45,28.2-90.5,9.7-102.6C1839.7,192.6,1835,191.2,1830,191.2L1830,191.2z"/>
		</g>
	</g>
</g>
<g>
	<g>
		<g>
			<path class="st0" d="M1579.8,870.9c1,3,2,6.1,2.9,9.1c8.6,29.4,10.8,58.6,6.3,82.4c-4.3,22.6-14.2,37.2-27.8,41.2
				c-2.5,0.7-5,1.1-7.7,1.1c-13.3,0-28.3-9.1-42.3-25.6c-14.7-17.3-27.1-41.4-34.8-67.9c-0.9-3-1.7-6.1-2.5-9.2L1579.8,870.9
				 M1582.9,864.8l-115.1,33.7c1,4.7,2.3,9.4,3.6,14.1c16.6,56.5,51.6,97.1,81.9,97.1c3.1,0,6.1-0.4,9.1-1.3
				c32-9.4,43.2-67.5,24.9-129.7C1586,873.9,1584.5,869.3,1582.9,864.8L1582.9,864.8z"/>
		</g>
		<g>
			<path class="st0" d="M1476,627.1c16.6,0,34.7,10.2,49.6,27.9c17.8,21.1,30.5,51.5,36.7,88c5.5,31.9,8.3,74.1,9.9,99.3l0,0
				l-107.5,31.5c-11.2-21.6-23.8-55.8-30.8-79.7c-11.6-39.6-13.7-79.4-5.8-112.1c6.9-28.6,20.7-48.5,37-53.2
				C1468.6,627.6,1472.2,627.1,1476,627.1 M1476,622.1c-4.2,0-8.3,0.6-12.2,1.7c-36.1,10.6-60.3,83.9-34.6,171.6
				c8,27.2,21.6,63.4,33.1,84.3l115.2-33.7c-1.6-23.8-4.5-69.9-10.3-103.8C1553.4,661.2,1510.6,622.1,1476,622.1L1476,622.1z"/>
		</g>
	</g>
	<g>
		<g>
			<path class="st0" d="M1827.1,872.7c1.6,2.8,3.1,5.6,4.6,8.4c14.2,27.1,22.1,55.4,22.3,79.5c0.2,23-6.7,39.3-19.2,45.8
				c-4,2.1-8.5,3.2-13.5,3.2c-13,0-28.7-7.3-44.3-20.7c-16.5-14.1-31.5-33.7-43.5-56.5c-1.5-2.8-2.9-5.7-4.2-8.5L1827.1,872.7
				 M1829,866.1l-106.2,55.6c1.9,4.4,4,8.7,6.3,13.1c25.2,48.1,63.2,79.8,92.2,79.8c5.7,0,11-1.2,15.8-3.7
				c29.6-15.5,29.1-74.6-1-132.1C1833.9,874.4,1831.5,870.2,1829,866.1L1829,866.1z"/>
		</g>
		<g>
			<path class="st0" d="M1660.4,666.1c17.3,0,39,9.3,59.6,25.5c23.6,18.5,44.6,44.7,60.8,75.6c11.6,22.1,26.3,55.5,33.2,78.8
				l-99.2,51.9c-14.5-17.4-42.9-52.2-61.9-78.5c-15.3-21.2-25.8-42.7-31.2-63.9c-4.7-18.5-5.3-36.2-1.7-51.3
				c3.8-16.2,12.2-28.4,23.6-34.4C1648.4,667.4,1654,666.1,1660.4,666.1L1660.4,666.1L1660.4,666.1 M1660.4,661.1
				c-7.2,0-13.6,1.4-19.1,4.3c-33.3,17.4-45.3,83.5,7.6,156.9c19.4,26.9,49.3,63.6,64.7,81.9l106.4-55.7
				c-6.2-23-21.5-58.6-34.6-83.7C1750,697.4,1696.5,661.1,1660.4,661.1L1660.4,661.1z"/>
		</g>
	</g>
</g>
<g>
	<g>
		<g>
			<path class="st0" d="M597.1,518l43.5,42.7c-0.8,0.9-1.6,1.7-2.5,2.6c-17.2,17.6-38.3,28.9-53.7,28.9c-5.6,0-10-1.5-13.1-4.5
				c-5.3-5.2-6.2-15-2.5-27c4.1-13.3,13.2-27.6,25.6-40.2C595.4,519.7,596.2,518.8,597.1,518 M597.2,511.1c-2.1,1.9-4.2,3.8-6.2,5.9
				c-26.7,27.3-37.1,60.5-23,74.3c4.1,4,9.8,5.9,16.6,5.9c16.3,0,38.3-11.1,57.2-30.4c2-2.1,4-4.2,5.8-6.3L597.2,511.1L597.2,511.1z
				"/>
		</g>
		<g>
			<path class="st0" d="M714.7,428.3c8.2,0,14.8,1.9,19.1,5.6c2.3,1.9,3.8,6.1,4,11.5c0.4,8.5-2.3,19.1-7.4,29.9
				c-6.1,13-15.8,26.2-27.9,38.2c-10.4,10.3-27.5,20.8-40,28.5c-2.3,1.4-4.3,2.7-6.2,3.9l-44.7-43.8c7.9-11.7,21.1-27,30.9-37
				c11.7-12,25-21.7,38.4-28.1C692.8,431.3,704.5,428.3,714.7,428.3 M714.7,423.3c-20.9,0-49.7,11.7-75.7,38.2
				c-11.7,11.9-26.3,29.3-33.8,41.2l50.5,49.5c11.8-7.7,36.5-21.4,50.4-35.1c38.5-38.1,42.9-77.2,31-87.1
				C731.8,425.7,724.1,423.3,714.7,423.3L714.7,423.3z"/>
		</g>
	</g>
	<g>
		<g>
			<path class="st0" d="M659.8,655.5l51.1,33.3c-0.6,1-1.3,2-1.9,3c-15.1,23.2-36.5,39.4-52,39.4c-3.4,0-6.3-0.8-8.7-2.4
				c-6.2-4.1-9-13.5-7.7-26c1.4-13.8,7.6-29.6,17.2-44.4C658.5,657.4,659.1,656.4,659.8,655.5 M658.5,648.7c-1.7,2.3-3.3,4.6-4.9,7
				c-20.9,32-24.5,66.6-8,77.3c3.3,2.2,7.2,3.2,11.4,3.2c16.8,0,39.5-16.1,56.1-41.7c1.6-2.4,3.1-4.9,4.5-7.3L658.5,648.7
				L658.5,648.7z"/>
		</g>
		<g>
			<path class="st0" d="M755.2,534.7L755.2,534.7c4.8,0,7.2,1.2,7.9,1.9c7.1,7.5,11.1,21.3,10.5,36.8c-0.5,13.4-4.5,34.6-20.8,59.6
				c-7.7,11.8-19.8,27.9-29.5,38.1L670.9,637c4-10.4,14.7-38,21.9-52.5c8.2-16.7,19.5-30.2,32.6-39
				C739.6,535.8,751,534.7,755.2,534.7 M755.2,529.7c-17.2,0-47.6,13.3-66.9,52.5c-7.3,14.8-18.5,43.6-23.5,56.7l59.2,38.6
				c10-9.8,23.9-27.9,33-41.8c29.4-45,24.9-86.5,9.7-102.6C764.6,531,760.6,529.7,755.2,529.7L755.2,529.7z"/>
		</g>
	</g>
</g>
<g>
	<g>
		<g>
			<path class="st0" d="M214.2,225.6c0.4,1.1,0.8,2.2,1.1,3.4c5.5,16.8,7.2,33.7,5,47.4c-2,12.4-7.2,20.8-14.3,23.1
				c-1.4,0.4-2.8,0.7-4.4,0.7c-3.5,0-7.2-1.2-11.2-3.4c-4.2-2.4-8.3-5.9-12.4-10.5c-8.6-9.7-16.1-23.3-20.9-38.3
				c-0.4-1.1-0.7-2.3-1.1-3.4L214.2,225.6 M217.2,219.3l-67.1,21.8c0.7,2.7,1.5,5.5,2.4,8.2c10.6,32.6,31.6,55.7,49.3,55.7
				c2,0,4-0.3,5.9-0.9c18.7-6.1,24.3-40.4,12.5-76.7C219.2,224.6,218.3,221.9,217.2,219.3L217.2,219.3z"/>
		</g>
		<g>
			<path class="st0" d="M146.8,84.2c15,0,47.3,19.3,54.2,64c2.8,18.2,5.9,42.5,7.4,56.6l-59.5,19.3c-6.7-12.4-14.2-31.2-18.5-44.5
				c-11.1-34.1-5.8-67.3,4.2-85.1c3.8-6.7,7.4-9.6,9.6-10C144.9,84.3,145.8,84.2,146.8,84.2 M146.8,79.2c-1.4,0-2.6,0.1-3.7,0.4
				C128,83,109,129.9,125.6,181.1c5.1,15.8,13.8,36.9,20.9,49l67.2-21.8c-1.3-14-4.8-41.6-7.8-60.9
				C198.6,99.8,163.9,79.2,146.8,79.2L146.8,79.2z"/>
		</g>
	</g>
	<g>
		<g>
			<path class="st0" d="M360.3,222.6c0.6,1,1.2,2,1.8,3.1c8.6,15.4,13.7,31.6,14.2,45.5c0.5,12.5-3,21.8-9.5,25.4
				c-2.2,1.2-4.7,1.8-7.5,1.8c-7.2,0-16-4-24.9-11.3c-9.6-7.9-18.5-18.8-25.7-31.6c-0.6-1-1.1-2.1-1.7-3.1L360.3,222.6 M362,215.9
				l-61.5,34.5c1.2,2.5,2.5,5.1,3.9,7.6c15.4,27.5,37.9,45.4,54.9,45.4c3.6,0,6.9-0.8,9.9-2.5c17.1-9.6,15.9-44.4-2.8-77.7
				C365,220.7,363.5,218.3,362,215.9L362,215.9z"/>
		</g>
		<g>
			<path class="st0" d="M260.3,103.2c9.7,0,22.1,5.1,34,14c13.7,10.3,26.2,25,35.9,42.4c6.9,12.2,15.6,30.5,20.1,43.8L295.8,234
				c-0.1-0.1-0.2-0.2-0.3-0.3c-9.8-10.9-26.1-29.1-36.1-43.3c-14-19.9-21.5-51.2-16.9-71.3c1.1-4.7,3.4-11,8.2-13.7
				C253.3,104,256.6,103.2,260.3,103.2L260.3,103.2 M260.3,98.2c-4.6,0-8.7,1-12.1,2.9c-19.3,10.8-14.2,61.9,7.1,92.2
				c11.3,16,30.1,36.6,39.4,47.1l61.6-34.5c-4.1-13.4-13.7-34.1-21.8-48.6C313,118.6,281.6,98.2,260.3,98.2L260.3,98.2z"/>
		</g>
	</g>
</g>
<g>
	<g>
		<g>
			<path class="st0" d="M1002,959.4c0.3,1.1,0.6,2.3,0.9,3.4c4.3,17.2,4.8,34.1,1.6,47.6c-2.9,12.2-8.7,20.2-15.9,22
				c-1.1,0.3-2.2,0.4-3.3,0.4c-13.8,0-33.2-20.7-41.7-55.3c-0.3-1.1-0.6-2.3-0.8-3.5L1002,959.4 M1005.5,953.4l-68.5,17
				c0.5,2.8,1.1,5.6,1.8,8.4c8.5,34.2,28.6,59.1,46.6,59.1c1.5,0,3-0.2,4.5-0.5c19.1-4.7,27.1-38.6,17.9-75.7
				C1007.1,958.8,1006.3,956,1005.5,953.4L1005.5,953.4z"/>
		</g>
		<g>
			<path class="st0" d="M942.6,813.7c23.9,0,41.3,23,51.8,68.2c3.3,14.2,3.3,34.3,3.3,49c0,2.7,0,5.1,0,7.3l-60.8,15.1
				c-5.8-12.9-11.9-32.1-15.3-45.7c-4.3-17.5-5.6-35.4-3.7-51.7c1.7-14.6,5.8-26.9,11.7-34.6c2.6-3.4,6.7-7.4,12-7.6
				C941.9,813.7,942.2,813.7,942.6,813.7 M942.6,808.7c-0.4,0-0.8,0-1.2,0c-22.1,0.6-37.5,47.8-24.6,100c4,16.2,11.1,37.8,17.4,50.4
				l68.6-17c-0.4-14,0.9-42.3-3.5-61.3C987.2,828.9,966.7,808.7,942.6,808.7L942.6,808.7z"/>
		</g>
	</g>
	<g>
		<g>
			<path class="st0" d="M1147.9,966.7c0.5,1.1,1.1,2.1,1.6,3.2c7.5,16,11.4,32.5,10.9,46.4c-0.4,12.5-4.5,21.5-11.2,24.7
				c-1.9,0.9-4,1.3-6.3,1.3c-7.2,0-15.9-4.4-24.5-12.3c-9.2-8.5-17.8-20.6-24.2-34.1c-0.5-1.1-1-2.1-1.5-3.2L1147.9,966.7
				 M1150.1,960.2l-63.8,30.1c1,2.6,2.2,5.2,3.4,7.9c13.9,29.5,36,49.2,53.2,49.2c3,0,5.8-0.6,8.4-1.8c17.8-8.4,19-43.2,2.7-77.7
				C1152.8,965.2,1151.5,962.6,1150.1,960.2L1150.1,960.2z"/>
		</g>
		<g>
			<path class="st0" d="M1050,846.5c11.3,0,24.9,4.8,37.2,13.2c10.3,7,24.8,20.1,35.2,42.1c6,12.7,13.4,31.5,17,45.1l-56.5,26.6
				c-2.6-3.7-5.7-8.2-8.9-13c-7.8-11.6-16.6-24.7-24.9-33.8c-18.3-20.1-26.8-41.7-23.3-59.1c1.8-8.9,6.7-15.8,13.4-19
				C1042,847.2,1045.8,846.5,1050,846.5L1050,846.5 M1050,841.5c-5,0-9.4,0.9-13,2.5c-20,9.4-28.1,46,8.3,86
				c12.7,14,27.4,38.6,36,49.8l63.9-30.1c-3.1-13.7-11.2-35-18.3-50C1108.1,859.7,1073,841.5,1050,841.5L1050,841.5z"/>
		</g>
	</g>
</g>
<g>
	<g>
		<g>
			<path class="st0" d="M901.9,287.7l109.2,16.5c-0.3,3.2-0.8,6.3-1.2,9.5c-4.3,28.7-14,55.2-27.1,74.6
				c-12.5,18.5-26.9,28.6-40.5,28.6c-1.3,0-2.7-0.1-4-0.3c-14-2.1-25.8-15.3-33.1-37.1c-7.7-22.9-9.4-52.2-4.8-82.5
				C900.8,293.9,901.3,290.8,901.9,287.7 M898,282c-1,4.7-1.9,9.4-2.6,14.3c-9.7,64.2,9.1,120.2,42.1,125.2c1.6,0.2,3.2,0.4,4.8,0.4
				c31.5,0,63.3-46.4,72.6-107.5c0.7-4.9,1.3-9.7,1.7-14.4L898,282L898,282z"/>
		</g>
		<g>
			<path class="st0" d="M998.1,35.7c1.4,0,2.8,0.1,4.2,0.3c13.1,1.9,26.9,17,36.2,39.5c8.2,19.9,16.7,54.4,10.6,106
				c-2.9,24.3-16.3,55.3-26,77.9c-2.5,5.8-4.8,11.1-6.6,15.7l-110.8-16.8c-1.1-24.3,1.9-60.6,5.7-85.3c6-39.6,18.9-75.5,36.4-101.1
				C963.3,48.8,981.7,35.7,998.1,35.7 M998.1,30.7c-36.3,0-78.6,55.1-91.7,141.5c-4.2,28-7.1,66.6-5.5,90.4l118.7,18
				c8.6-22.3,30.5-65.5,34.5-98.5c11-92-23-147-51-151C1001.4,30.8,999.7,30.7,998.1,30.7L998.1,30.7z"/>
		</g>
	</g>
	<g>
		<g>
			<path class="st0" d="M1234.6,410.1c0.3,3.2,0.5,6.4,0.6,9.5c1.4,30.6-3.3,59.5-13.3,81.5c-9.5,20.9-22.6,32.8-36.7,33.5
				c-0.4,0-0.8,0-1.3,0c-14,0-27.8-10.9-39-30.8c-11.7-20.9-19-48.9-20.4-79c-0.1-3.2-0.2-6.4-0.2-9.5L1234.6,410.1 M1239.1,404.9
				l-119.8,5.6c-0.1,4.8,0,9.6,0.2,14.5c3,63.9,31.7,114.6,64.4,114.6c0.5,0,1,0,1.5,0c33.3-1.6,57.9-55.4,54.8-120.2
				C1240,414.4,1239.7,409.6,1239.1,404.9L1239.1,404.9z"/>
		</g>
		<g>
			<path class="st0" d="M1153.6,148.8c5.5,0,13.3,3.6,21.5,9.7c9.3,7.1,18.7,17.3,27.1,29.4c20.7,29.9,33.1,67.9,35,107
				c1.2,25,0.4,61.4-3.1,85.4l-111.9,5.3c-0.6-2.3-1.3-4.8-2-7.4c-6.8-24.6-17.1-61.8-20.9-89.6c-3.7-27.1-2.5-52.4,3.6-75.4
				c6.4-24.3,16.5-39.5,23.8-47.9C1135.5,155,1145.6,148.9,1153.6,148.8L1153.6,148.8L1153.6,148.8 M1153.6,143.8c0,0-0.1,0-0.1,0
				c-27.5,0.2-71.5,55.2-59.3,145.5c4.5,32.9,17.9,78.5,24.1,101.5l120-5.6c4.1-23.5,5.2-62.2,3.8-90.5
				C1237.9,203.6,1180.3,143.8,1153.6,143.8L1153.6,143.8z"/>
		</g>
	</g>
</g>
<polygon class="st1" points="419.2,488 344.2,444.7 344.2,531.3 "/>
<polygon class="st1" points="1446,216 1407.9,281.9 1484,281.9 "/>
<polygon class="st1" points="1295.5,722.5 1302.3,663.1 1247.4,686.9 "/>
<polygon class="st1" points="827.5,127.5 834.3,68.1 779.4,91.9 "/>
<polygon class="st1" points="661.5,984.5 668.3,925.1 613.4,948.9 "/>
<polygon class="st1" points="1847.5,591.5 1854.3,532.1 1799.4,555.9 "/>
<polygon class="st1" points="982.9,638.3 992.3,556.1 916.4,589.1 "/>
<polygon class="st1" points="515.7,152.8 469.9,114.4 459.5,173.3 "/>
<polygon class="st2" points="1178.1,66.6 1222,128.6 1253.8,59.5 "/>
<polygon class="st1" points="652.3,309 585.8,259.7 576.4,341.9 "/>
<polygon class="st1" points="1488.5,481.5 1495.3,422.1 1440.4,445.9 "/>
<polygon class="st1" points="525.5,825.5 532.3,766.1 477.4,789.9 "/>
<polygon class="st1" points="1321.6,954.1 1291.7,902.3 1261.8,954.1 "/>
<g>
	<g>
		<g>
			<path class="st0" d="M1468.9,122.5c0.1,0.7,0.3,1.5,0.4,2.2c1.8,10.9,1.2,21.5-1.4,29.7c-2.4,7.4-6.4,12.1-11,12.9
				c-0.4,0.1-0.9,0.1-1.4,0.1c-9.9,0-20.6-16.4-23.9-36.6c-0.1-0.7-0.2-1.5-0.3-2.2L1468.9,122.5 M1471.4,119l-43.5,7
				c0.2,1.7,0.4,3.5,0.7,5.3c3.6,22.3,15.4,39.2,26.9,39.2c0.6,0,1.2,0,1.9-0.1c12.1-2,18.8-22.6,15-46.2
				C1472.1,122.4,1471.8,120.7,1471.4,119L1471.4,119z"/>
		</g>
		<g>
			<path class="st0" d="M1441.4,28.6c5.5,0,10.8,3.7,15.4,10.8c5.3,8.1,9.3,20.1,11.4,34.6c1.3,9,0.3,21.5-0.5,30.6
				c-0.1,1.7-0.3,3.2-0.4,4.6l-38.6,6.2c-2.9-8.3-5.8-20.6-7.2-29.3c-2.4-14.8-1.3-29.1,3-40.5c3.6-9.7,9.2-16,14.9-16.9
				C1440.1,28.6,1440.7,28.6,1441.4,28.6 M1441.4,25.4c-0.8,0-1.6,0.1-2.4,0.2c-13.7,2.2-25.8,27.8-20.5,61
				c1.7,10.3,5,24.1,8.2,32.3l43.6-7c0.5-8.8,2.8-26.3,1-38.3C1466.7,42,1454.2,25.4,1441.4,25.4L1441.4,25.4z"/>
		</g>
	</g>
	<g>
		<g>
			<path class="st0" d="M1559.4,134.7c0.3,0.7,0.5,1.4,0.8,2.1c3.9,10.4,5.4,20.8,4.4,29.4c-0.9,7.8-3.9,13.2-8.3,14.8
				c-1,0.4-2,0.5-3.1,0.5c-9.7,0-22.1-13.5-28.8-31.4c-0.3-0.7-0.5-1.4-0.7-2.1L1559.4,134.7 M1561.1,130.7l-41.3,15.4
				c0.5,1.7,1.1,3.4,1.7,5.1c7.4,19.7,20.7,33.4,31.7,33.4c1.5,0,2.9-0.2,4.2-0.7c11.5-4.3,14-25.9,5.7-48.2
				C1562.5,134,1561.8,132.3,1561.1,130.7L1561.1,130.7z"/>
		</g>
		<g>
			<path class="st0" d="M1506.7,48.1v3.1c6,0,13.4,3.9,20.5,10.6c5.7,5.4,13.7,15.3,19.7,31.1c3.1,8.2,6.7,20.3,8.2,29l-36.6,13.7
				c-0.8-1.2-1.6-2.4-2.6-3.8c-5.2-7.5-12.3-17.9-15.6-26.4c-7.5-19.3-9.3-36.1-4.9-45.9c1.7-3.8,4.2-6.3,7.5-7.6
				c1.1-0.4,2.4-0.6,3.8-0.6L1506.7,48.1l0,3.1L1506.7,48.1 M1506.7,48.1c-1.8,0-3.4,0.3-4.9,0.8c-13,4.8-16.7,26.1-4.4,57.6
				c4.4,11.4,15.1,25.5,19.8,32.8l41.3-15.4c-1.2-8.7-5.2-22.3-8.8-32.1C1539.4,64,1520,48.1,1506.7,48.1L1506.7,48.1z"/>
		</g>
	</g>
</g>
<polygon class="st1" points="135.5,443.5 142.3,384.1 87.4,407.9 "/>
<g>
	<g>
		<g>
			<path class="st0" d="M1107.3,716.6c0.1,0.4,0.2,0.7,0.2,1.1c2.1,10.8-0.6,20.8-5.7,21.7c-0.3,0.1-0.5,0.1-0.8,0.1
				c-5,0-10.6-8.2-12.5-18.2c-0.1-0.4-0.1-0.7-0.2-1.1L1107.3,716.6 M1108.5,714.7l-21.9,4.2c0.1,0.9,0.2,1.8,0.4,2.7
				c2.1,11.2,8.2,19.5,14,19.5c0.4,0,0.7,0,1.1-0.1c6.1-1.2,9.2-11.7,7-23.6C1108.9,716.5,1108.7,715.6,1108.5,714.7L1108.5,714.7z"
				/>
		</g>
		<g>
			<path class="st0" d="M1091.8,669.3c3.5,0,11.7,6.8,14.4,22.6c0.8,4.6,0.4,10.9,0.2,15.5c0,0.8-0.1,1.6-0.1,2.3l-19.5,3.7
				c-1.6-4.2-3.2-10.4-4-14.7c-3.1-16.6,3-27.9,8.4-29.4C1091.4,669.4,1091.6,669.3,1091.8,669.3 M1091.8,667.8c-0.4,0-0.7,0-1,0.1
				c-6.8,1.9-12.7,14.5-9.5,31.2c1,5.2,2.9,12.1,4.6,16.2l22-4.2c0.1-4.4,1-13.3,0-19.4C1105,676,1096.7,667.8,1091.8,667.8
				L1091.8,667.8z"/>
		</g>
	</g>
	<g>
		<g>
			<path class="st0" d="M1153.2,721.4c0.2,0.3,0.3,0.7,0.4,1c2.1,5.2,3,10.5,2.6,14.8c-0.4,3.9-1.8,6.7-4,7.6
				c-0.5,0.2-1.1,0.3-1.7,0.3c-4.9,0-11.3-6.7-14.9-15.5c-0.1-0.3-0.3-0.7-0.4-1L1153.2,721.4 M1154.1,719.4l-20.7,8.4
				c0.3,0.8,0.6,1.7,0.9,2.5c4,9.8,10.8,16.5,16.3,16.5c0.8,0,1.6-0.1,2.3-0.4c5.8-2.3,6.7-13.3,2.2-24.5
				C1154.8,721,1154.4,720.2,1154.1,719.4L1154.1,719.4z"/>
		</g>
		<g>
			<path class="st0" d="M1124.4,680.3L1124.4,680.3c6.6,0,16.3,6.3,21.9,20.2c1.7,4.1,3.7,10.2,4.6,14.6l-18.3,7.4
				c-2-2.9-7.2-10.7-9.7-15.2c-5.5-10-4.9-18.8-2.5-23.8c1.1-2.1,2.2-3,2.7-3.1C1123.5,680.3,1124,680.3,1124.4,680.3 M1124.4,678.7
				c-0.5,0-1,0-1.5,0.1c-4,0.6-10.2,13.3-1.4,29.2c2.5,4.6,8,12.7,10.5,16.3l20.7-8.4c-0.7-4.4-2.9-11.2-4.9-16.1
				C1141.9,685.2,1131.4,678.7,1124.4,678.7L1124.4,678.7z"/>
		</g>
	</g>
</g>
<g>
	<g>
		<g>
			<path class="st0" d="M777.8,759.7l19.1,13c-0.2,0.4-0.5,0.8-0.7,1.1c-5.8,8.5-13.9,14.5-19.8,14.5c-1.3,0-2.5-0.3-3.4-1
				c-2.3-1.6-3.3-5.2-2.7-9.9c0.6-5.2,3.1-11.1,6.8-16.7C777.3,760.4,777.6,760,777.8,759.7 M777.4,757.1c-0.7,0.8-1.3,1.7-1.9,2.6
				c-8.1,11.9-9.7,25-3.6,29.2c1.3,0.9,2.8,1.3,4.5,1.3c6.3,0,14.9-5.9,21.3-15.3c0.6-0.9,1.2-1.8,1.7-2.7L777.4,757.1L777.4,757.1z
				"/>
		</g>
		<g>
			<path class="st0" d="M818.5,718.1c1.8,0,3.4,0.4,4.6,1.1c1,0.6,1.8,2,2.3,4c1.3,5.7-0.3,16-8.6,27.7c-3.2,4.5-8.8,9.6-13,13.3
				c-0.7,0.7-1.4,1.3-2.1,1.8l-19.6-13.3c2.2-4.9,6-11.5,9-15.8C800.1,723.9,811.3,718.1,818.5,718.1 M818.5,716.2
				c-8.1,0-19.8,6.3-28.8,19.6c-3.5,5.2-7.8,12.7-9.8,17.6l22.1,15c3.9-3.6,12.1-10.4,16.4-16.4c11.8-16.7,10.8-31.6,5.7-34.5
				C822.5,716.7,820.6,716.2,818.5,716.2L818.5,716.2z"/>
		</g>
	</g>
	<g>
		<g>
			<path class="st0" d="M810.4,806.6l21.2,9c-0.2,0.4-0.3,0.8-0.5,1.2c-4.4,10.4-12.1,18.3-18,18.3c-0.8,0-1.5-0.1-2.1-0.4
				c-5.8-2.4-6.3-14.7-1.2-26.8C810,807.4,810.2,807,810.4,806.6 M809.5,804.2c-0.5,0.9-0.9,1.9-1.4,2.9
				c-5.6,13.3-4.7,26.4,2.2,29.3c0.9,0.4,1.9,0.6,2.9,0.6c6.6,0,14.8-7.9,19.7-19.4c0.4-1,0.8-2,1.2-3L809.5,804.2L809.5,804.2z"/>
		</g>
		<g>
			<path class="st0" d="M839.3,753.3v1.9c0.8,0,1.4,0.2,1.6,0.3c3.2,2.3,5.5,7.2,6.4,13c0.7,5,0.6,13.2-3.7,23.6
				c-2.1,4.9-5.5,11.7-8.4,16.2l-21.8-9.2c0.8-4.1,2.9-15.1,4.6-21c5-17.2,16.6-22.8,21.4-22.8V753.3 M839.3,753.3
				c-6,0-18.2,6.7-23.2,24.2c-1.7,6-4,17.5-4.9,22.7l24.6,10.4c3.1-4.3,7-12,9.5-17.8c7.9-18.7,3.5-33.9-3.3-38.8
				C841.4,753.5,840.4,753.3,839.3,753.3L839.3,753.3z"/>
		</g>
	</g>
</g>
<g>
	<g>
		<g>
			<path class="st0" d="M1601.3,519.6c0.1,0.4,0.2,0.7,0.2,1.1c2.1,10.8-0.6,20.8-5.7,21.7c-0.3,0.1-0.5,0.1-0.8,0.1
				c-5,0-10.6-8.2-12.5-18.2c-0.1-0.4-0.1-0.7-0.2-1.1L1601.3,519.6 M1602.5,517.7l-21.9,4.2c0.1,0.9,0.2,1.8,0.4,2.7
				c2.1,11.2,8.2,19.5,14,19.5c0.4,0,0.7,0,1.1-0.1c6.1-1.2,9.2-11.7,7-23.6C1602.9,519.5,1602.7,518.6,1602.5,517.7L1602.5,517.7z"
				/>
		</g>
		<g>
			<path class="st0" d="M1585.8,472.3c3.5,0,11.7,6.8,14.4,22.6c0.8,4.6,0.4,10.9,0.2,15.5c0,0.8-0.1,1.6-0.1,2.3l-19.5,3.7
				c-1.6-4.2-3.2-10.4-4-14.7c-3.1-16.6,3-27.9,8.4-29.4C1585.4,472.4,1585.6,472.3,1585.8,472.3 M1585.8,470.8c-0.4,0-0.7,0-1,0.1
				c-6.8,1.9-12.7,14.5-9.5,31.2c1,5.2,2.9,12.1,4.6,16.2l22-4.2c0.1-4.4,1-13.3,0-19.4C1599,479,1590.7,470.8,1585.8,470.8
				L1585.8,470.8z"/>
		</g>
	</g>
	<g>
		<g>
			<path class="st0" d="M1647.2,524.4c0.2,0.3,0.3,0.7,0.4,1c2.1,5.2,3,10.5,2.6,14.8c-0.4,3.9-1.8,6.7-4,7.6
				c-0.5,0.2-1.1,0.3-1.7,0.3c-4.9,0-11.3-6.7-14.9-15.5c-0.1-0.3-0.3-0.7-0.4-1L1647.2,524.4 M1648.1,522.4l-20.7,8.4
				c0.3,0.8,0.6,1.7,0.9,2.5c4,9.8,10.8,16.5,16.3,16.5c0.8,0,1.6-0.1,2.3-0.4c5.8-2.3,6.7-13.3,2.2-24.5
				C1648.8,524,1648.4,523.2,1648.1,522.4L1648.1,522.4z"/>
		</g>
		<g>
			<path class="st0" d="M1618.4,483.3L1618.4,483.3c6.6,0,16.3,6.3,21.9,20.2c1.7,4.1,3.7,10.2,4.6,14.6l-18.3,7.4
				c-2-2.9-7.2-10.7-9.7-15.2c-5.5-10-4.9-18.8-2.5-23.8c1.1-2.1,2.2-3,2.7-3.1C1617.5,483.3,1618,483.3,1618.4,483.3 M1618.4,481.7
				c-0.5,0-1,0-1.5,0.1c-4,0.6-10.2,13.3-1.4,29.2c2.5,4.6,8,12.7,10.5,16.3l20.7-8.4c-0.7-4.4-2.9-11.2-4.9-16.1
				C1635.9,488.2,1625.4,481.7,1618.4,481.7L1618.4,481.7z"/>
		</g>
	</g>
</g>
<g>
	<g>
		<g>
			<path class="st0" d="M623.3,139.6c0.1,0.4,0.2,0.7,0.2,1.1c2.1,10.8-0.6,20.8-5.7,21.7c-0.3,0.1-0.5,0.1-0.8,0.1
				c-5,0-10.6-8.2-12.5-18.2c-0.1-0.4-0.1-0.7-0.2-1.1L623.3,139.6 M624.5,137.7l-21.9,4.2c0.1,0.9,0.2,1.8,0.4,2.7
				c2.1,11.2,8.2,19.5,14,19.5c0.4,0,0.7,0,1.1-0.1c6.1-1.2,9.2-11.7,7-23.6C624.9,139.5,624.7,138.6,624.5,137.7L624.5,137.7z"/>
		</g>
		<g>
			<path class="st0" d="M607.8,92.3c3.5,0,11.7,6.8,14.4,22.6c0.8,4.6,0.4,10.9,0.2,15.5c0,0.8-0.1,1.6-0.1,2.3l-19.5,3.7
				c-1.6-4.2-3.2-10.4-4-14.7c-3.1-16.6,3-27.9,8.4-29.4C607.4,92.4,607.6,92.3,607.8,92.3 M607.8,90.8c-0.4,0-0.7,0-1,0.1
				c-6.8,1.9-12.7,14.5-9.5,31.2c1,5.2,2.9,12.1,4.6,16.2l22-4.2c0.1-4.4,1-13.3,0-19.4C621,99,612.7,90.8,607.8,90.8L607.8,90.8z"
				/>
		</g>
	</g>
	<g>
		<g>
			<path class="st0" d="M669.2,144.4c0.2,0.3,0.3,0.7,0.4,1c2.1,5.2,3,10.5,2.6,14.8c-0.4,3.9-1.8,6.7-4,7.6
				c-0.5,0.2-1.1,0.3-1.7,0.3c-4.9,0-11.3-6.7-14.9-15.5c-0.1-0.3-0.3-0.7-0.4-1L669.2,144.4 M670.1,142.4l-20.7,8.4
				c0.3,0.8,0.6,1.7,0.9,2.5c4,9.8,10.8,16.5,16.3,16.5c0.8,0,1.6-0.1,2.3-0.4c5.8-2.3,6.7-13.3,2.2-24.5
				C670.8,144,670.4,143.2,670.1,142.4L670.1,142.4z"/>
		</g>
		<g>
			<path class="st0" d="M640.4,103.3L640.4,103.3c6.6,0,16.3,6.3,21.9,20.2c1.7,4.1,3.7,10.2,4.6,14.6l-18.3,7.4
				c-2-2.9-7.2-10.7-9.7-15.2c-5.5-10-4.9-18.8-2.5-23.8c1.1-2.1,2.2-3,2.7-3.1C639.5,103.3,640,103.3,640.4,103.3 M640.4,101.7
				c-0.5,0-1,0-1.5,0.1c-4,0.6-10.2,13.3-1.4,29.2c2.5,4.6,8,12.7,10.5,16.3l20.7-8.4c-0.7-4.4-2.9-11.2-4.9-16.1
				C657.9,108.2,647.4,101.7,640.4,101.7L640.4,101.7z"/>
		</g>
	</g>
</g>
</svg>
