<svg id="Layer_2" data-name="Layer 2" xmlns="http://www.w3.org/2000/svg" viewBox="0 0 638.45623 124.74023"><defs><style>.cls-1{fill:#ff4a4d;stroke:#ff4a4d;stroke-miterlimit:10;}</style></defs><title>copenhagen-skyline2</title><path class="cls-1" d="M256.63545,130.94377H843.31282v-12.659s5.00686-4.60762,0-9.70541c-1.67369-.88231-2.654-2.941-8.83021-.68624a12.656,12.656,0,0,1-2.05872-3.82334l2.64693-1.07838s.39214-2.05872-.78428-2.45086a20.68047,20.68047,0,0,1-6.47027.68624c.19607,1.56855,2.941,1.96069,2.941,1.96069l-9.50934.2941.098-2.5489,2.745-1.07838s-.098-2.54889-4.01941-.78428a24.27168,24.27168,0,0,0-.39214,4.90172l-1.17641,2.745s-15.97961-3.03907-9.01917,12.45037a46.88766,46.88766,0,0,1-4.90172-.098l-.098-25.09681h-2.25479V89.85478l-8.529-8.529-8.8231,8.8231v4.01941h-2.64693V89.0705l-2.745-5.784H763.7998l-3.03907,5.88207v30.29264h-3.62727V92.89384l-2.15676-7.94079V77.69851h-3.23514v4.60762H745.5654s-3.03907-5.09779-5.29386-5.09779l-.098-2.35283v-.78428H738.605l-1.07838-7.45062-1.27445,7.74472h-1.96069v2.843s-5.19582,2.45086-4.99976,5.39189h-9.70541V70.73807h-2.54889V62.111s-1.17641-1.66659-1.17641-8.03882c-1.27445-1.27445-1.27445-2.64693-1.27445-7.35258-.98034-.2941-1.86265-.19607-1.86265-2.05872a27.70988,27.70988,0,0,0-1.27445-5.784L710.175,44.75894a2.052,2.052,0,0,1-1.56855,1.96069c-.098,1.17641,0,5.48993-1.96069,7.15651-.19607,2.15676.19607,5.48993-1.27445,8.72506.098,1.27445,0,8.03882,0,8.03882h-2.25479v11.9602h-7.84275s-2.05872-4.01941-4.41155-3.92138a32.547,32.547,0,0,1,0-4.50958h-2.15676s-.19607-8.13686-.98034-8.33293c-.78428.39214-1.96069,8.13686-1.86265,8.72506h-1.47052v3.52924s-3.82334,1.66659-4.70565,4.50958h-8.92113V77.69851H667.53v5.9801l-4.41155,10.09755v25.39091H659.001V74.2673s2.892-2.40184.39214-4.90172A13.04012,13.04012,0,0,0,649.2956,64.856c-2.35283.098-5.39189-.19607-9.70541,4.01941-.49017,2.54889-2.25479,1.86265.49017,5.9801v44.50763h-6.56831l.098-7.74472,2.843,2.15676,1.27445-.88231-3.72531-4.70565s3.1371-.98034,1.66659-4.70565l-2.05872-.2941s1.47052-2.25479-.68624-5.48993c.78428-2.45086,3.4312-4.70565-1.27445-7.94079a4.07914,4.07914,0,0,0-2.35283,1.96069l-1.56855-.88231v6.2742s2.05872.39214-.098,3.62727a4.41517,4.41517,0,0,0,.98034,4.11745s-.68624,12.05823-4.90172,11.47a2.31863,2.31863,0,0,0-.49017,1.76462l2.843.49017,4.31351-5.48993s2.05872,4.60762-1.66659,6.2742c-4.11745.098-8.431,0-8.431,0V83.0904h2.35283V80.05134h-2.05872v-3.1371h-2.15676V73.483h-3.4312s3.72531,3.82334,1.86265,3.82334h-7.25455l-.098-4.90172H607.827v4.50958h-3.72531L593.71008,70.8361v-5.784h-3.72531V70.542H580.3774V65.34617h-3.4312V70.8361h-8.627V68.58131l-5.48993-3.4312.098-17.156s-2.941,5.29386-7.64668,6.2742c-.098.98034,2.54889,2.941,6.47027-.78428,0,3.1371-.19607,11.6661-.19607,11.6661l-2.05872,1.96069-1.17641,3.4312h-8.72506V64.856h-3.23514v5.588H536.654V64.954h-3.92138v5.39189L519.20392,77.1103h-1.27445l-.098-4.99976-3.03907-.098.68624,4.70565h-5.686V74.07124h-3.03907v2.745l-1.17641.58821V79.6592h-1.47052v2.64693h2.45086v36.86094h-2.15676v-4.21548h-6.37224v-4.31351H496.754v-1.96069h-1.47052V92.79581h2.64693V90.443h-2.25479v-.88231h-1.47052V87.698h-7.61975s-.7577-3.81509.35359-5.78511c.85873-.20205,3.58646-.42038.95976,2.99742.20205,1.1952.70719,1.04366.70719,1.04366s4.19262-3.58646.60616-6.46573c0-1.16181-.70719-4.4957.25257-7.02138,1.31335-.20205,1.91951.20205,2.12157,1.97.7577-.90924,1.01027-.30308.70719-6.26368-1.46489-.15154-4.24313-1.768-5.96059,1.61643-.40411-2.07105-.85873-2.92978-3.28338-2.87927,0-1.56592.15154-3.33389-1.61643-3.08132-1.06078,1.16181-1.1113.05051-1.46489,3.88954-.85873,1.16181-1.16181,3.53595-1.16181,5.30392-1.51541.15154-6.92035.60616-7.98113,2.12157-1.06078,1.41438-.50514,5.85957-1.31335,7.22343-.70719,1.21232-1.61643,3.08132-.70719,4.04108a8.50239,8.50239,0,0,0,3.13184,1.56592H469.4108V90.0961l-4.04108.90924v1.21232h2.27311v15.76021h-2.27311V110.352h-1.16181v4.19262h-5.96059v4.39468h-4.04108V18.54191s3.59237-2.67478.58682-5.68033c-2.753-2.753-4.20457-4.49634-4.3056-6.11277.0884.97239-2.305,4.30391-4.03425,5.83224a3.3878,3.3878,0,0,0-1.08921,1.6555c-.31761,1.21932-.358,2.94084,2.07343,4.63551-.15154,1.46489,0,100.44248,0,100.44248h-5.00724V78.68369h-1.29673V89.24277h-9.13885L422.85576,87.946l.06175-9.01535-1.35848-1.976v9.69459l-7.47163-.988V74.423l-1.17323-2.03772V83.56186h-5.06342V78.00446s3.82844-5.00167-2.717-7.28638c-.37049-.988-1.482-3.08745-1.482-8.76836-.247,2.40821-.61749,8.15087-2.16121,9.01535-1.17323.494-4.75467,2.7787-2.09947,7.22463a38.74,38.74,0,0,1,0,5.43391h-3.95193V72.20005l-1.35848,2.59346V86.21707l-7.28638.80274V76.52248l-1.29673,2.84045V87.3903l-7.28638,2.40821H366.60244V78.0662l-2.03772,2.47v38.46962h-5.61916v-2.59346l2.09947-.86449v-9.57109h-9.3241v-3.64319h8.89185l2.03772-1.91422-32.974-1.976V90.52865H307.971l-8.03464,1.1992v7.07528l-37.89473-1.1992-12.35176,3.11792,22.18521,2.51832v1.154h-2.41082l1.8633,15.21228H257.70724S260.449,127.13124,256.63545,130.94377Z" transform="translate(-207.58187 -6.70354)"/><path class="cls-1" d="M237.43687,130.898s-5.02076-1.49921-13.86094,0c-2.58485.20679-13.02763-.35613-14.88872-.33316-.517-.64908-3.82557-5.4052,12.92424-12.953-1.08564-.20679-2.53315.98224-4.29085.77545-.46527-.72376-2.94673-3.20521.10339-6.46212,0-.82715-1.6543-4.601,8.4266-10.85636-.31018-.72376-1.03394-2.94673.0517-9.15036.56867-.62036,2.58485-.62036,2.37806-4.65273.46527-.517,2.32636-1.55091,3.05012-.31018.20679.77545.0517,2.53315.67206,3.10182-.87885.77545-.98224.82715-1.7577.98224v.62036s1.91279-.82715,1.60261,3.25691c.41358,1.189,1.189,3.05012,1.49921,4.29085.46527.46527,1.189.41358,1.13733,1.7577.56867.36188,1.39582.15509,1.39582,1.24073.87885.31018,3.25691.0517,4.34254,1.55091a3.1116,3.1116,0,0,1-.31018,2.895c.10339.93054,1.24073,2.58485-3.87727,7.03078.36188.77545,4.45938,5.58327,4.401,11.01145C240.274,125.625,238.89937,131.20451,237.43687,130.898Z" transform="translate(-207.58187 -6.70354)"/></svg>