<svg id="Layer_2" data-name="Layer 2" xmlns="http://www.w3.org/2000/svg" viewBox="0 0 665.2191 133.47635"><defs><style>.cls-1{fill:#ff4a4d;stroke:#ff4a4d;stroke-miterlimit:10;}</style></defs><title>copenhagen-skyline</title><path class="cls-1" d="M79.38275,130.94377H666.06013v-12.659s5.00686-4.60762,0-9.70541c-1.67369-.88231-2.654-2.941-8.8302-.68624a12.656,12.656,0,0,1-2.05872-3.82334l2.64693-1.07838s.39214-2.05872-.78428-2.45086a20.68047,20.68047,0,0,1-6.47027.68624c.19607,1.56855,2.941,1.96069,2.941,1.96069l-9.50934.2941.098-2.5489,2.745-1.07838s-.098-2.54889-4.01941-.78428a24.27168,24.27168,0,0,0-.39214,4.90172l-1.17641,2.745s-15.97961-3.03907-9.01917,12.45037a46.88766,46.88766,0,0,1-4.90172-.098l-.098-25.09681H624.9766V89.85478l-8.529-8.529-8.8231,8.8231v4.01941h-2.64693V89.0705l-2.745-5.784H586.5471L583.508,89.16854v30.29264h-3.62727V92.89384L577.724,84.95306V77.69851h-3.23514v4.60762H568.3127s-3.03907-5.09779-5.29386-5.09779l-.098-2.35283v-.78428h-1.56855l-1.07838-7.45062-1.27445,7.74472h-1.96069v2.843s-5.19582,2.45086-4.99976,5.39189h-9.70541V70.73807h-2.5489V62.111s-1.17641-1.66659-1.17641-8.03882c-1.27445-1.27445-1.27445-2.64693-1.27445-7.35258-.98034-.2941-1.86265-.19607-1.86265-2.05872a27.70988,27.70988,0,0,0-1.27445-5.784l-1.27445,5.88207a2.052,2.052,0,0,1-1.56855,1.96069c-.098,1.17641,0,5.48993-1.96069,7.15651-.19607,2.15676.19607,5.48993-1.27445,8.72506.098,1.27445,0,8.03882,0,8.03882H525.8638v11.9602H518.021s-2.05872-4.01941-4.41155-3.92138a32.547,32.547,0,0,1,0-4.50958h-2.15676s-.19607-8.13686-.98034-8.33293c-.78428.39214-1.96069,8.13686-1.86265,8.72506h-1.47052v3.52924s-3.82334,1.66659-4.70565,4.50958h-8.92113V77.69851H490.2773v5.9801l-4.41155,10.09755v25.39091h-4.11745V74.2673s2.892-2.40184.39214-4.90172A13.04012,13.04012,0,0,0,472.0429,64.856c-2.35283.098-5.39189-.19607-9.70541,4.01941-.49017,2.54889-2.25479,1.86265.49017,5.9801v44.50763h-6.56831l.098-7.74472,2.843,2.15676,1.27445-.88231-3.72531-4.70565s3.1371-.98034,1.66659-4.70565l-2.05872-.2941s1.47052-2.25479-.68624-5.48993c.78428-2.45086,3.4312-4.70565-1.27445-7.94079a4.07914,4.07914,0,0,0-2.35283,1.96069l-1.56855-.88231v6.2742s2.05872.39214-.098,3.62727a4.41517,4.41517,0,0,0,.98034,4.11745s-.68624,12.05823-4.90172,11.47a2.31863,2.31863,0,0,0-.49017,1.76462l2.843.49017,4.31351-5.48993s2.05872,4.60762-1.66659,6.2742c-4.11745.098-8.431,0-8.431,0V83.0904h2.35283V80.05134h-2.05872v-3.1371h-2.15676V73.483h-3.4312s3.72531,3.82334,1.86265,3.82334H432.339l-.098-4.90172h-1.66659v4.50958H426.849L416.45738,70.8361v-5.784h-3.72531V70.542H403.1247V65.34617h-3.4312V70.8361h-8.627V68.58131l-5.48993-3.4312.098-17.156s-2.941,5.29386-7.64668,6.2742c-.098.98034,2.54889,2.941,6.47027-.78428,0,3.1371-.19607,11.6661-.19607,11.6661l-2.05872,1.96069L381.067,70.542H372.3419V64.856h-3.23514v5.588h-9.70541V64.954H355.48v5.39189L341.95123,77.1103h-1.27445l-.098-4.99976-3.03907-.098.68624,4.70565h-5.686V74.07124h-3.03907v2.745l-1.17641.58821V79.6592h-1.47052v2.64693h2.45086v36.86094H327.148v-4.21548h-6.37224v-4.31351h-1.27445v-1.96069h-1.47052V92.79581h2.64693V90.443H318.423v-.88231h-1.47052V87.698H309.3327s-.7577-3.81509.35359-5.78511c.85873-.20205,3.58646-.42038.95976,2.99742.20205,1.1952.70719,1.04366.70719,1.04366s4.19262-3.58646.60616-6.46573c0-1.16181-.70719-4.4957.25257-7.02138,1.31335-.20205,1.91951.20205,2.12157,1.97.7577-.90924,1.01027-.30308.70719-6.26368-1.46489-.15154-4.24313-1.768-5.96059,1.61643-.40411-2.07105-.85873-2.92978-3.28338-2.87927,0-1.56592.15154-3.33389-1.61643-3.08132-1.06078,1.16181-1.1113.05051-1.46489,3.88954-.85873,1.16181-1.16181,3.53595-1.16181,5.30392-1.51541.15154-6.92035.60616-7.98113,2.12157-1.06078,1.41438-.50514,5.85957-1.31335,7.22343-.70719,1.21232-1.61643,3.08132-.70719,4.04108a8.50239,8.50239,0,0,0,3.13184,1.56592H292.1581V90.0961l-4.04108.90924v1.21232h2.27311v15.76021H288.117V110.352h-1.16181v4.19262h-5.96059v4.39468h-4.04108V18.16486a3.4879,3.4879,0,0,0,0-5.45546c-2.753-2.753-4.24313-4.34416-4.34416-5.96059.101,1.1113-2.22259,5.30392-4.14211,6.3647-.30308,1.06078-1.61643,3.43492,1.71746,5.75854-.15154,1.46489,0,100.44248,0,100.44248h-5.00724V78.68369h-1.29673V89.24277h-9.13885L245.60306,87.946l.06175-9.01535-1.35848-1.976v9.69459l-7.47163-.988V74.423l-1.17323-2.03772V83.56186h-5.06342V78.00446s3.82844-5.00167-2.717-7.28638c-.37049-.988-1.482-3.08745-1.482-8.76836-.247,2.40821-.61749,8.15087-2.16121,9.01535-1.17323.494-4.75467,2.7787-2.09947,7.22463a38.74,38.74,0,0,1,0,5.43391h-3.95193V72.20005L216.828,74.79351V86.21707l-7.28638.80274V76.52248l-1.29673,2.84045V87.3903l-7.28638,2.40821H189.34974V78.0662l-2.03772,2.47v38.46962h-5.61916v-2.59346l2.09947-.86449v-9.57109h-9.3241v-3.64319h8.89185l2.03772-1.91422-32.974-1.976V90.52865H130.71832l-8.03464,1.1992v7.07528L84.789,97.60393l-12.35176,3.11792,22.18521,2.51832v1.154H92.21157l1.8633,15.21228H80.45454S83.19633,127.13124,79.38275,130.94377Z" transform="translate(-3.56629 -6.70354)"/><path class="cls-1" d="M72.43719,139.57339s-11.69387-3.49182-32.28358,0c-6.02038.48163-30.34272-.82947-34.67739-.776-1.20408-1.51178-8.91016-12.58929,30.1019-30.1688-2.52856-.48163-5.9,2.28774-9.99383,1.80611-1.08367-1.68571-6.86323-7.46527.24082-15.051,0-1.92652-3.853-10.71628,19.62644-25.2856C44.7291,68.41249,43.04339,63.235,45.572,48.786c1.32448-1.44489,6.02038-1.44489,5.53875-10.83669,1.08367-1.20408,5.41834-3.61223,7.104-.72245.48163,1.80611.12041,5.9,1.5653,7.22446-2.04693,1.80611-2.28774,1.92652-4.09386,2.28774V48.184s4.45508-1.92652,3.73264,7.58568c.96326,2.76938,2.76938,7.104,3.49182,9.99383,1.08367,1.08367,2.76938.96326,2.649,4.09386,1.32448.84285,3.251.36122,3.251,2.88978,2.04693.72245,7.58568.12041,10.11424,3.61223.48163,2.16734,1.08367,4.21427-.72245,6.74283.24082,2.16734,2.88978,6.02038-9.03057,16.37544.84285,1.80611,10.38636,13.004,10.2503,25.64682C79.04527,127.29181,75.84351,140.28718,72.43719,139.57339Z" transform="translate(-3.56629 -6.70354)"/></svg>