<svg id="Lag_4" data-name="Lag 4" xmlns="http://www.w3.org/2000/svg" viewBox="0 0 742.63806 667.98382"><defs><style>.cls-1{fill:#fff;stroke:red;stroke-miterlimit:10;stroke-width:1.5px;}</style></defs><title>danmark-kort</title><g id="Lag_2" data-name="Lag 2"><path class="cls-1" d="M328.95229,625.5c3.25085,3.62146,3.465,5.98157,7,8,1.95447,1.116,2.12006.52649,5,2,4.34869,2.225,4.82312,4.00513,7,4,2.89874-.00684,3.52881-3.16675,6-3,3.27686.22113,6.34625,6.05927,5,8-.15765.22729-.44318.49811-3,1-4.29651.84332-4.7569.32721-6,1-2.67926,1.45013-2.40479,4.85712-4,5-1.18085.10577-2.16217-1.68671-3-3-2.33636-3.66235-2.87439-2.52844-9-9a99.9629,99.9629,0,0,1-9-11c-2.3623-3.35333-5.8053-8.24066-5-9C320.71456,618.78119,325.453,621.60175,328.95229,625.5Zm60-10c-4.2171,3.23224-11.567,7.20294-11,12,.39093,3.30713,4.24927,4.509,4,8-.24438,3.42285-4.21216,5.88886-6,7-4.886,3.03674-8.5332,2.241-9,4-.51739,1.94958,3.75049,3.72784,8,8,7.25433,7.293,6.584,13.94031,9,14,4.7146.11646,5.62817-25.238,16-53a123.6701,123.6701,0,0,0,5-17c2.28094-10.3988,3.16528-20.74109,2-21C405.13918,577.09717,405.62648,602.71979,388.95229,615.5Zm-23-106c-3.74316,8.70422-16.82379,13.11316-20,10-1.7392-1.70468-1.166-6.30893,1-8,1.90436-1.48676,4.29675-.14148,6-2a4.55923,4.55923,0,0,0,1-4c-.58136-2.31226-3.10382-2.7532-3-4,.13324-1.59961,5.77216-1.45568,5-3-2-4-23.97546-18.12308-25-17-1.039,1.13892,3.63116,5.406,2,8-.97516,1.55078-3.88025,2.0495-5,1-1.46826-1.37613,1.32784-4.67216,0-6-3-3-19,7-30,12-3.75781,1.7081-5.11938,6.72046-10,8-3.78772.993-8.75238.46039-10-2-1.09058-2.15076,1.30084-4.50931,0-6-1.25049-1.433-4.59326-.55182-6,0a6.832,6.832,0,0,0-3,2c-1.22687,1.4996-.74854,2.499-2,4a7.13457,7.13457,0,0,1-3,2c-2.80646,1.14246-4.33948.0535-5,1-1.36536,1.95645.9928,6.42221,4,9,3.52222,3.01926,6,2,8,4,1.56019,1.56019,2.98816,2.55835,4,6,1.2215,4.15485.68469,7.15137,0,8-.72974.90442-3.65594-1.204-5,0-.87152.7807-.92194,2.81433,0,4,1.8313,2.3551,6.18567-.32477,9,2,1.25012,1.03265,1.51709,3.03583,2,7,.82294,6.75549-.396,8.244,1,12a16.93309,16.93309,0,0,0,4,6c3.30322,3.416,4.85834,2.56311,9,6,4.1217,3.42035,4.40051,5.77441,7,6,2.69263.2337,3.36505-2.20782,6-2,3.50372.27631,6.45337,4.91949,7,9,.21381,1.59583.56653,4.22906-1,6-2.7063,3.05933-8.25519.28314-10,3-.99121,1.5434-.35645,4.23938,1,5,1.7829.99976,3.57373-2.0387,7-2,4.69885.0531,7.35736,5.83594,9,5,1.68781-.85889-.67371-7.19019,1-8,.64911-.314,1.49573.40039,6,4,4.04041,3.22894,4.73053,3.75006,6,4,2.51459.49512,3.05658-.90967,6-1,3.0929-.09491,3.78143,1.41663,10,4,4.47266,1.858,6.75476,2.7713,9,2,2.26935-.7796,2.05731-2.25867,5-4,.614-.36334,2.63086-1.48694,8-2,6.99646-.66858,7.56689.85754,10,0,5.06519-1.78528,6.47931-9.769,9-24,1.17462-6.63159,1.7467-10.00848,1-13-1.49847-6.0033-5.54736-9.34241-4-13,.96014-2.26953,2.84113-1.74512,4-4,2.21741-4.31458-1.89093-11.64038-6-16-4.58032-4.85962-8.25952-5.0766-10-10-.35638-1.00812-1.43073-4.04712,0-6,1.65558-2.25977,5.36169-1.28571,6-3,.48206-1.29468-1.323-2.67932-3-5-2.71722-3.76019-2.14874-5.89633-4-11-2.233-6.156-6.49188-12.50906-8-12-1.30945.442.15894,5.81958,0,18C366.88344,504.77652,366.83107,507.45648,365.95229,509.5Z" transform="translate(-67.87741 -34.26834)"/><path class="cls-1" d="M421.95229,417.5a3.35293,3.35293,0,0,0-1,4c.54694,1.07263,1.60571,1.05859,4,2a25.87118,25.87118,0,0,1,7,4c2.14453,1.80023,2.72479,3.14932,4,3a2.31006,2.31006,0,0,0,2-2c-.07172-1.47693-3.03625-1.31976-6-4-2.21924-2.0069-1.65094-3.08423-4-5C427.3636,419.0199,423.9496,416.23563,421.95229,417.5Z" transform="translate(-67.87741 -34.26834)"/><path class="cls-1" d="M429.95229,645.5c-.34937,1.03369-1.11932.78528-4,4-2.41608,2.69617-2.63354,3.718-4,4-1.01361.20917-1.10919-.30865-5-1a5.0829,5.0829,0,0,0-3,0c-.09882.03986-1.74792.729-2,2-.222,1.11945.74786,2.14478,4,5a63.5069,63.5069,0,0,0,6,5c1.3136.7901,2.696,1.43768,8,3,7.3009,2.15051,7.53741,1.76465,11,3a45.70562,45.70562,0,0,1,10,5c1.5296,1.02856,2.58655,1.8902,9,8,7.61639,7.25574,10.01013,9.74109,12,9,1.86157-.6933,1.24255-3.41809,4-5,2.16821-1.2439,3.44318-.071,6-1,3.45154-1.254,3.07562-4.09888,6-6,3.60132-2.34125,8.56824-.88531,15,1,6.89093,2.0199,8.15,3.87738,11,3,4.90643-1.51044,7.72217-9.031,6-11-1.28967-1.47449-4.68524.66614-6-1-1.16449-1.47571-.04828-5.116,2-6,1.62286-.70038,2.89166.73492,4,0,1.38519-.91846,1.221-4.36536,0-7-1.547-3.338-3.74036-3.10626-8-7-2.16547-1.97949-5.67426-5.18683-7-10-1.14862-4.17.4856-5.39142-1-8-2.7019-4.74432-10.96466-5.721-12-4-.4964.82513,1.01685,1.69122,1,4a6.88443,6.88443,0,0,1-4,6c-2.80951,1.12878-5.48267-.80908-6,0-.72321,1.131,4.598,4.76593,4,6-.7934,1.63733-12.61951.31293-22-7-10.40424-8.111-8.0556-15.99243-16-20-11.67877-5.89136-30.90161,4.00439-31,11C417.86916,636.41028,431.42409,641.14514,429.95229,645.5Z" transform="translate(-67.87741 -34.26834)"/><path class="cls-1" d="M463.95229,619.5c.90778-1.21716.17151-2.36316,1-3,1.45569-1.119,5.85083.78748,6,3,.02069.30713-.02325.87518-2,3-2.446,2.62915-3.669,3.94379-5,4-2.84.12-5.64178-3.623-5-5C459.51845,620.28522,462.54042,621.393,463.95229,619.5Z" transform="translate(-67.87741 -34.26834)"/><path class="cls-1" d="M478.95229,612.5a3.99821,3.99821,0,0,1,3,2c1.24353,2.28308-.24506,5.54883-2,6-2.31622.59546-6.02228-3.474-5-6A3.9036,3.9036,0,0,1,478.95229,612.5Z" transform="translate(-67.87741 -34.26834)"/><path class="cls-1" d="M506.95229,618.5c2.72626,1.89447,3.16211,3.08124,4,3,1.60413-.15558,1.48-4.6485,3-5,2.59613-.60034,7.06342,11.55695,9,11,1.118-.32153-.16193-4.43341,2-6,1.91229-1.38568,5.85431-.2995,8,2,2.19385,2.35107,1.01575,4.3692,3,6,2.27533,1.87,4.48846-.23785,9,1a14.48878,14.48878,0,0,1,8,6c.6037.97162,2.64294,4.25385,2,8-.83551,4.86816-5.27625,5.13446-11,12-2.81439,3.37585-4.23547,6.30383-7,12-3.27618,6.75037-4.91425,10.12555-5,13-.24188,8.10919,5.67932,12.58612,3,18-.26477.535-.95868,1.93707-2,2-1.7265.10437-2.72858-3.57367-6-10-3.90594-7.67279-5.05884-7.50031-5-10,.11517-4.89044,4.58063-7.78961,3-11-.6402-1.30029-1.67346-1.43549-2-3-.41791-2.00238,1.02765-2.96478,1-5-.02179-1.60266-1.01483-2.7569-3-5-3.93781-4.44946-5.62323-4.0932-7-7a12.24593,12.24593,0,0,1-1-6c.31256-2.82355,1.60132-3.82092,1-5-.98682-1.93481-4.84625-.0116-7-2-3.16974-2.92633,1.06909-10.89606-2-13-1.16089-.79584-2.33728-.0462-3-1-1.13983-1.64044.92194-5.89838,3-6C505.152,617.49023,505.528,617.51025,506.95229,618.5Z" transform="translate(-67.87741 -34.26834)"/><path class="cls-1" d="M571.95229,600.5c3.70264,2.34918,7.02155.64288,20,1a7.30627,7.30627,0,0,1,4,1c2.07843,1.33929,2.903,3.76825,4,7a20.17652,20.17652,0,0,1,1,4c.3371,2.4502.56964,4.14026,0,5-2.22906,3.36438-15.81329-7.38751-25-3-6.58759,3.14618-4.6073,11.065-13,15-.36481.171-7.94342,3.61182-12,0-2.231-1.98639-3.37445-6.08612-2-8,.67145-.93494,1.64233-.92853,2-2,.4765-1.42767-.97815-2.24469-1-4-.03107-2.49921,2.86267-5.27661,5-5,1.31006.16956,1.28613,1.35065,3,2,2.416.91534,5.00555-.46851,6-1,1.21686-.65033,3.24945-1.73657,4-4,.93317-2.81415-.73853-5.56909-1-6-1.33-2.19177-2.9187-2.42609-3-4a3.08677,3.08677,0,0,1,2-3C567.87715,595.04834,568.74178,598.463,571.95229,600.5Z" transform="translate(-67.87741 -34.26834)"/><path class="cls-1" d="M543.95229,571.5c-2.96063.92535-5.71307.79108-7,3a5.59017,5.59017,0,0,0,4,8c2.41132.30261,2.98688-1.74042,6-2a8.999,8.999,0,0,1,6,2c1.22125.90912,2.76569,2.0589,3,4,.27313,2.26276-1.32886,4.81586-3,5-1.78424.19666-2.78937-2.40155-4-2-1.09113.36188-1.59534,2.91058-1,5,.33508,1.17609.90741,1.81635,4,5,3.33264,3.43073,3.87262,3.92719,4,5a5.05562,5.05562,0,0,1-3,5c-1.11554.39105-1.48285-.1889-3,0-1.63586.20374-2.64374,1.0567-5,3-3.19495,2.635-4.79663,3.95343-5,4-1.91858.43927-4.9718-1.70117-11-6-2.59985-1.854-3.88715-2.88544-6-3-2.57434-.13959-3.06012,1.2616-5,1-3.461-.46667-3.52606-5.14392-8-8-1.52271-.972-1.58032-.47186-8-2-11.47314-2.73108-11.93738-4.483-12-5a2.1471,2.1471,0,0,1,1-2c1.81079-1.03363,3.94861,2.5611,9,4,4.20447,1.19763,5.08154-.621,8,1,2.7876,1.54834,3.66614,4.13989,6,4,.14276-.00854,1.58545-.11267,2-1,.89734-1.9209-3.20892-7.11554-7-7-1.22827.03741-2.25348.62708-3,0-.91455-.76819-.12537-2.28259-1-3-.96075-.78809-2.40625.6347-4,0-1.592-.634-2.64722-3.04834-2-4,.96912-1.425,5.40076.95007,7-1,.61963-.75555.26025-1.48511,1-2,1.25061-.87036,2.95648.74213,4,0,.9129-.64923,1.01276-2.88293,0-4-.69891-.77094-1.58-.62646-6-1-2.91431-.24628-3.7395-.41113-4-1-.20428-.46179.116-.78375,1-3a15.24773,15.24773,0,0,0,1-3,5.21194,5.21194,0,0,0,0-3c-.79755-1.8244-3.93121-2.85547-6-2-2.95856,1.22345-1.58215,5.41309-4,7-4.31158,2.82977-13.50079-7.334-25-8-1.33667-.07739-5.62036-.2774-7,2-.76074,1.25574-.23865,2.60468-1,3-1.47754.76721-4.5722-3.7276-6-3-1.02087.5202.117,3.04413-1,4-1.59778,1.36731-7.58661-.66437-10-5-3.11414-5.59448,2.12323-10.71637-1-15-2.22229-3.04791-5.439-1.23-10-5-3.11322-2.5733-6.328-7.31616-5-10,1.72485-3.48578,9.75964-.76331,12-5a7.81828,7.81828,0,0,0,0-6c-.64642-1.63751-1.29376-1.51868-2-3-1.47687-3.09781.68-5.0314,0-9-.15564-.90817-1.10584-2.61783-3-6-3.84155-6.85947-4.62646-7.094-5-7-1.14606.28842-.23242,4.12546-2,5-1.65405.81836-5.04883-1.25766-5-3,.05493-1.96216,4.42932-1.79221,7-5,2.80811-3.50415,2.59625-9.95633,0-14-5.53931-8.6275-21.90271-6.2446-22-9-.04443-1.25778,3.3363-2.57346,6-3,6.70551-1.07373,11.03668,3.13977,12,2,1.35229-1.6-4.58563-12.97653-13-14-3.38251-.41144-6.42328.94046-11-1-.29712-.126-4.2467-1.82663-4-3,.35217-1.67511,9.18671-1.94391,17,0a58.21449,58.21449,0,0,1,10.99994,4c.98108.49777,3.65405,1.66519,9.00006,4,2.48938,1.08722,3.89233,1.6763,5,1,1.37415-.839,1.89758-3.38379,1-5-.84894-1.52856-2.49469-1.37265-7-3-3.03027-1.09454-6.10779-2.20615-6-3,.13293-.97916,5.20874-2.18915,8,0,1.501,1.17722,1.54919,2.71609,3,3,1.534.30017,2.26593-1.26645,4-1,1.56482.24045,1.56219,1.60733,3,2,1.79.48886,3.68134-1.11411,7-4,2.40857-2.09448,3.61285-3.14172,4-4,1.54041-3.41513-1.18457-5.45862,0-10a8.455,8.455,0,0,1,3-5c3.2934-2.28088,6.27258.83008,10-1,3.6908-1.8121,4.93756-6.90842,5-10a10.49343,10.49343,0,0,0-2-7c-1.94336-2.39209-4.83771-3.16049-8-4-3.03516-.80576-2.96771-.21463-5-1-3.70685-1.43253-3.96643-3.41287-7-4-2.59155-.50159-3.3064.76871-5,0-3.31079-1.50272-3.65936-7.7554-3-8,.58612-.21741,1.73285,4.40021,5,5,1.25555.2305,1.61291-.35477,3,0,1.79852.46,2.30292,1.72668,4,3,1.28955.96756,2.52637,1.31171,5,2,1.89044.526,4.286.69116,9,1,4.6012.30145,7.01617.32364,8-1a2.9722,2.9722,0,0,1,1-1,3.72434,3.72434,0,0,1,3,0c1.66913.67374,1.82636,1.95331,3,3,2.433,2.16992,6.70178,1.08017,7,1,5.14777-1.38367,5.65393-7.12781,9-7a4.531,4.531,0,0,1,4,4c-.05847,2.0575-2.98944,2.173-4,5-1.07184,2.99838,1.41144,5.145,0,7a3.47333,3.47333,0,0,1-4,1c-1.3053-.73553-.90765-2.64374-2-3-.94989-.30981-2.38232.7641-3,2-1.08429,2.16943.35425,4.81317,1,6,1.84741,3.39529,3.62811,3.11127,5,6,1.22552,2.58054,1.38861,6.14288,0,7-1.57007.96915-3.65314-2.42816-7-2-3.39447.43423-6.97845,4.66144-6,8,.351,1.19781,1.45551,2.84808,3,3,3.02411.29742,4.02295-5.51459,8-6,2.92279-.35672,6.14069,2.32379,6,4-.10919,1.30106-2.23523,1.91867-2,3,.17883.822,1.482.80789,2,2a2.76524,2.76524,0,0,1,0,2c-1.2298,3.02509-11.13885.5784-12,3-.334.93945.74689,2.46191,2,3,2.27142.97537,3.89832-1.80313,8-2,.686-.03293,4.29395-.20609,6,2,1.66095,2.14777.70886,5.5025,0,8-.9425,3.32077-2.29205,4.77316-2,5,.46606.362,3.644-3.7587,10-12,.92346-1.19736,2.20728-2.91016,2-5-.17377-1.752-1.23834-2.1839-2-4-1.26794-3.02332-.373-6.72729,1-9,1.94055-3.21219,4.07813-2.31061,7-6,1.05664-1.3342,3.04559-3.84558,3-7-.04663-3.22552-2.17535-4.0029-5-10-1.77545-3.76953-2.84741-6.04541-2-7,1.93732-2.18243,13.7627,2.7037,14,8,.15131,3.37741-4.50891,4.70712-4,8,.53772,3.47922,5.99866,3.66647,7,8,.5351,2.31577-.93127,2.66516-1,6-.12109,5.87787,4.35809,8.49268,3,11-.9765,1.80283-3.322.50574-7,3a16.22682,16.22682,0,0,0-5,6c-1.66431,2.9624-2.61975,4.66306-2,6,1.271,2.74176,8.88934,3.3555,14,0,5.55493-3.64722,5.98-10.561,6-11,.12769-2.80164-.82788-2.30518-2-9-.98816-5.64407-.48853-7.02237-2-10-1.34692-2.65338-2.361-2.77521-3-5-.91705-3.19305.40283-5.61987,1-8,1.97229-7.86115-3.18134-18.23529-8-19-2.58533-.41028-3.28619,2.22934-10,4-2.58734.68237-5.6048,1.44125-7,0-1.48987-1.539-.39239-4.8251,0-6,4.9668-14.87177,34.77167-26.58667,46-31,2.60608-1.02432,5.77911-2.18256,9-1,4.2597,1.564,4.65039,5.77087,9,7,3.26624.923,4.45136-1.05206,8-1,6.58948.09668,14.52338,7.08334,15,14,.52484,7.61676-8.36169,9.80606-9,19-.36951,5.322,2.45062,6.85873,6,15,2.3053,5.28775,8.57581,21.75116,3,37-.84125,2.3006-4.5271,12.38083-12,14-3.30878.71692-4.66412-.809-8-1-10.88306-.62308-25.64105,13.94711-25,29,.02551.59979.66827,12.25534,8,16,4.2403,2.16571,6.66931-.38251,12,1,7.84509,2.03461,16.04883,11.04584,15,20-1.251,10.68036-15.00714,15.65594-16,16-7.98834,2.76794-10.79578-.83789-17,3C550.25472,565.02441,550.25392,569.5304,543.95229,571.5Z" transform="translate(-67.87741 -34.26834)"/><path class="cls-1" d="M621.95229,464.5c2.84924.97192,3.34277,11.40994,0,13-1.34613.64032-3.10754-.25262-4-1-2.28864-1.91663-2.1283-5.61105-1-8C617.95552,466.37592,620.35207,463.95413,621.95229,464.5Z" transform="translate(-67.87741 -34.26834)"/><path class="cls-1" d="M603.95229,461.5c.91669.28577-.62714,3.44275,1,7,1.30811,2.85977,3.32977,3.05774,4,6,.1709.75031.02606.6788,0,4-.0379,4.825.26855,4.87222,0,6-.60516,2.541-2.9245,5.50748-6,6-2.97144.47586-5.278-1.57715-8-4-2.11169-1.87961-4.2749-3.805-4-6,.20007-1.59726,1.46478-1.52979,4-5a39.20724,39.20724,0,0,0,3-5c1.16345-2.18616,1.0813-2.36963,2-4C600.84725,464.91183,602.94649,461.18646,603.95229,461.5Z" transform="translate(-67.87741 -34.26834)"/><path class="cls-1" d="M763.95229,576.5c1.64612.405.501,4.37744,4,8,2.19336,2.27075,3.19031,1.27625,7,4,4.48962,3.20984,5.37183,6.21167,8,6,1.60474-.12921,2.20667-1.32336,4-1a5.068,5.068,0,0,1,3,2,6.52307,6.52307,0,0,1,1,3c.54492,2.69067,3.25513,4.35913,6,6,7.39758,4.42224,10.31812,2.40112,12,5,3.18176,4.91644-4,15.7889-4,23,0,2,.40942,3.5202-1,6a7.04244,7.04244,0,0,1-4,3c-4.34717,1.27539-7.59924-2.59644-14-6-9.01172-4.79193-11.24219-1.731-21-7-5.16516-2.78906-9.34448-5.04584-10-9-.77454-4.67163,4.18909-6.769,4-13-.14-4.61462-6.53451-5.77582-4-10C757.95229,591.5,761.06984,575.79083,763.95229,576.5Z" transform="translate(-67.87741 -34.26834)"/><path class="cls-1" d="M90.95229,258.5c-.20529,3.71692-1.78735,5.36533-1,9a7.62049,7.62049,0,0,0,2,4c.91916.89874,1.67575,1.069,4,2,2.99344,1.19907,6.10608,2.66629,6,3-.10052.31619-2.87921-1.05151-4,0-1.87027,1.75467,1.9122,9.27374,3,9,.66049-.1662-.52948-2.98972,1-5,2.6861-3.53043,11.22293-1.21841,12-1,7.34668,2.06494,11.79645,7.09988,13,6,.81406-.74393-.86926-3.36945,0-4,.87231-.63275,3.344,1.44778,4,2,1.72574,1.45264,4.22147,3.55341,4,6-.10345,1.14294-.75485,1.86389-3,4-5.32233,5.06384-7.274,6.35208-7,7,.35083.8295,3.87488-.51279,9-1,9.26563-.8808,11.96692,2.15466,15,0,3.93365-2.79446,3.56073-10.863,2-16-2.4541-8.07739-9.02087-12.77725-8-14,.6842-.81949,3.206,1.804,6,1,5.05164-1.45367,3.62866-11.99261,9-14,3.33356-1.24583,6.09564,1.98605,9,0,1.74725-1.19481,2.77979-3.75415,2-5-1.26678-2.0238-6.41376.85986-8-1-2.16174-2.53465,2.993-13.05568,12-18,2.10675-1.15648,8.49329-4.66234,14-2,2.86322,1.38429,4.22729,3.8264,6,7,1.88043,3.36652,5.02228,8.99132,4,15-1.25336,7.367-7.37054,7.10684-11,16-3.05347,7.4819-2.24756,16.30045,0,17,.99414.30942,2.19336-.99359,4-3,5.43683-6.03815,4.31091-9.38574,8-12a12.865,12.865,0,0,1,12-1c2.88763,1.3241,3.56256,3.36484,5,3,2.25977-.57358,3.481-6.35052,2-11-.24554-.7709-2.14447-6.468-6-7-4.78967-.66084-8.56891,7.2057-11,6-1.07739-.53433-1.34424-2.5798-1-4,.7337-3.027,2.65417-4.42467,6-6,6.959-3.27653,3.125-8.27609,0-9-4.26965-.98907-3.59412-3.96548-4-7-.36438-2.72414.906-3.23848,2-8a18.80539,18.80539,0,0,0,0-8c-.91357-4.0876-3.78564-4.61409-3-7,1.22349-3.71563,9.644-8.24678,11.65272-12.90432a4.32842,4.32842,0,0,1,1.80794-1.9716c3.1753-1.87777,10.727-6.19586,14.53934-7.12408,5.68951-1.38528,9.88757-2.34412,13,0,2.20758,1.6626,3.13934,4.43724,4,7,1.74658,5.20082,1.05731,10.839,2,11,.74615.12747,1.42633-4.1097,4-9,1.87726-3.567,3.90851-3.12369,6-7,3.804-7.05032,3.39807-7.95605,5-9,2.33551-1.522,2.22321-.26466,10,1,8.61261,1.40059,12,1,14,0,.89441-.44722,9-7,10-5,.4472.89442,26,21,34,20,5.78595-.72324-7,34-1,42-.0167.12064-.01465.73884-.0096,1.43461a1.71851,1.71851,0,0,0,1.43926,1.67511,9.4502,9.4502,0,0,1,2.57034.89027,2.24415,2.24415,0,0,1,1.6983,1.08018c.91956,1.57768-1.6983,2.91972-1.6983,2.91972.01605.936,1.26514,3.83124,0,4.00009-10.01678,1.33693-18,1-19,4-.107.32094,2.65979,3.033,6,3,4.61719-.04564,5.31244-3.00533,8-3,3.9599.00784,6.06689,2.24088,8,8,.53577,1.59619,2.41437,4.57346-1,7-2.30457,1.63782-4.84973,1.82623-5,3-.14844,1.15927,3.23688,1.72818,4,3,3,5,5,16,16,16,25.17938,0,30-9,39-4,3.37164,1.87311,4.57971.686,6,4,3,7,11.69513,12.65952,11,15-.49963,1.68228-.93433,1.12491-3,3-4.09692,3.71887,2,13-3,21-.317.50711-9,14-12,18-2.22125,2.96164-5.57349,1.52884-7,4-2.06189,3.57178,1.06024,6.9227-1,12-.93964,2.31567-4.12018,5.75964-5,4-1-2-4.42377-3.93329-4-8,.47516-4.55948,5-2,3-8-.642-1.92587-6.57806-1.824-10,1-3.85907,3.18472.06409,11.46036-5,11-11-1-18,2-19,1-2.82843-2.82843-1-4-4-7-1-1,6.564-2.05887,9-2,3.665.08859,5.44067.85016,6,0,1.0083-1.53268-4.05774-5.07983-3-8,.84912-2.34433,6.44952-2.34854,7-4,1-3-1-2-5-3-3.21606-.804-3.97357-3.01688-5-3-1.69482.02786-1.887,1.338-5,3-2.83917,1.51584-3.54785.8898-5,2-2.3338,1.78424-1.59924,4.23917-3,8-1.67725,4.50311-3.97815,4.33365-8,10-2.96887,4.1828-5.1142,8.21457-4,11,2,5,4.9809,7.79724,6,17,.47266,4.26822-.97656,3.5029-1,10-.03766,10.435,3.69409,14.24368,1,18-2.21405,3.087-4,5-6,6-1.60291.80145-.38727,2.67157-1,5-.43591,1.65643-1.67346,4.00293-3,4-1.92554-.00424-2-7-5-8-6.67993-2.22662-18.26184.409-19,2-.50531,1.08911-.076,2.16168-1,3-1.791,1.62494-5.72992.10733-6,0-2.38806-.949-2.74127-2.1691-4-2-1.75934.23636-3.48517,2.94452-3,5,.66962,2.837,5.37921,3.70224,7,4,4.46185.81973,5.67841-.83969,10,0,.86084.16727,6.44653,1.25256,7,4,.675,3.351-6.73389,6.208-6,9,.73785,2.80719,8.88,2.40137,9,4,.14166,1.88687-11.11237,3.63486-11,6,.067,1.41055,5.132,2.09583,5,3-.11316.77539-4.187.85028-6,1-9.93005.82-11.70557,6.3342-20,6-1.73059-.06973-5.85309-.23584-8-3-1.15314-1.48465-.78326-2.4917-2-4-1.90759-2.36475-5.09924-1.71872-8-2-5.29248-.51321-11.87006-.597-12,1-.07959.978,2.2829,1.91843,5,3,4.8847,1.94443,6.34558,1.224,10,3,2.06458,1.00333,5.70642,2.2872,7,5,1.51416,3.17532-1.30865,5.18414,0,7,2.54242,3.52786,14.416-1.35992,13,1-6,10-17,20-25,21-3.50739.43842-8.8252-2.478-9-2-.12573.34375,4.47791,2.82861,3,4-3.14954,2.49628-4.90228,1.17188-5,2-.00543.04626,0,0,0,1a8.49127,8.49127,0,0,0,2.00574.01422c-1.00574-.01422.39795.01108.99426-.01422,0,0,.86072-.0365,3,0,1.64636.02811,10.32147,1.65875,11,6,.37653,2.40881-2.5329,4.809-4,6-3.07587,2.49695-6.10663,1.22034-7,3-1.23785,2.46588,4.10571,5.863,3,9-1.05035,2.98-5,1-5,3,0,.57636,3.90826-.3653,6,2,1.69952,1.92181-.89673,4.58557,0,9,.926,4.55859,4.23853,4.39539,7,10,.81824,1.66064,3.89825,7.9118,1,13a9.95964,9.95964,0,0,1-8,5c-2.84882.05267-4.32812-3.67187-6-2-2,2-16,13-16,16,0,1.64209,5,0,8,0,2.4837,0,4.52991,5.67322,4,8-.6626,2.90948-.53485,6.41089-3,6-6-1-12.12207,2.19531-12,3,.19177,1.26422,6.01447,4.80554,11,2,5.09344-2.86627,5.9541-4.29749,9-4,6.1427.59991,6.87469,9.76636,14,11,3.50427.60669,4.80377-1.35474,7,0,3.81842,2.35541,5.26019,8.26019,8,11,1,1,3.831,1.252,3-2-.48187-1.88568-3.15167-2.881-6-8-1.98-3.55841-1.28333-4.99109-3-6-2.38074-1.39923-4.42706.9411-9,0-2.03455-.4187-4.92664-1.56049-5-3-.09125-1.79-2.76617-1.9-3-3-.29443-1.38544,4-2,3-4-.70428-1.40863.4223-2.21112,4-4,2-1,8.58051-2.30487,13,1,5.00128,3.73993,3.59387,7.84711,9,12,3.95245,3.03619,8,3,10,4,10.11926,5.05963,14.37347,23.4577,10,27-2.61066,2.1145-8.37946-.69073-9-1-5.76794-2.87451-6.54211-8.024-10-8-2.7995.01941-.54614,4.52673-6,5-2.541.22052-6.14-6.58008-7-4-2,6-6.57709,1.78918-8,1-7.65845-4.24744-10.62323-16.01459-14,0-.67816,3.21625-14.36725,12.3667-18.18243,15.51807a1.89609,1.89609,0,0,1-2.15049.02982c-1.55474-.95361-3.10877-3.04411-4.66707-2.54788-2.70264.86066-2.37946,3.9801-5,6-3.748,2.88892-11.25006,1.78076-14-2-1.85815-2.55463-.13159-4.384-2-7-1.43536-2.00964-3.70026-2.6745-12-4-11.62939-1.8573-10.8573-1.13886-13-2-7.02466-2.82306-9.22235-8.09259-13-7-2.37976.68829-2.91577,3.18677-5,3-2.342-.20984-2.559-3.4447-5-4-2.75037-.62567-4.04309,3.12439-8,4a10.89817,10.89817,0,0,1-11-5c-2.11914-3.93585,1.22089-6.59418,1-14-.22772-7.63464-3.86453-7.73261-4-14-.19522-9.03174,7.29871-11.53265,8-21,.40735-5.49945-4-8.40161-4-14,0-20,2.03046-45.62527-10-50-11-4-13.46448.53552-17-3-12-12-16.57468-29.42532-19-27-8,8-3,10,1,15,4.12061,5.15076,4.73648,13.23264,3,11-14-18-27.6153-10.22659-25-23,2.94055-14.36194,18.28641-27.13477,9-67-4.14-17.77246-2-85,2-90,1.20395-1.50494,9-1,10,1,1.41422,2.82843,2.17728,8.20285,3,8,.67474-.16638,5.7103-3.44846,5-7-1-5-13.429-9.84662-14-16-.35315-3.80533,2.44406-5.14792,1-7-1.48828-1.90878-5.84155.02728-7-2-4-7,6.47635-57.818,11-57C90.20155,250.72592,91.13493,255.19322,90.95229,258.5Zm163,381c-.064.41071-.4184,2.99866,1,4,1.62323,1.14594,3.69849-1.106,6,0,1.72882.83075,1.45874,2.5343,3,3,1.77576.53656,4.466-1.02032,5-3,.782-2.899-3.30487-5.79773-5-7-1.74323-1.23639-3.12579-2.217-5-2A6.069,6.069,0,0,0,253.95229,639.5Zm27,0c.13593.70367,1.17993.74347,4,2,2.8067,1.25055,2.57477,1.56854,4,2,2.88446.87311,6.53687.38879,7-1a1.87615,1.87615,0,0,0-1-2c-1.249-.6192-2.28754,1.08435-4,1-2.75378-.13562-3.21674-4.69592-6-5C282.94624,636.28082,280.73628,638.382,280.95229,639.5Zm-203-241c.43586,3.70484.97641,4.81583,3,13,2.58246,10.44443,1,19,3,19,1,0-.1424-2.249,2-5,.46887-.60208,1.64047-2.10648,3-2,2.531.19821,4.286,5.86749,3,7-.79849.70316-2.26489-.787-4,0-1.62988.73923-2.63779,3.09814-2,4,.98019,1.386,5.91714-.5708,7-1,3.433-1.36072,11.07932-4.39148,13-12,.22736-.9006,1.48273-5.87369-1-10-1.63165-2.71182-3.55261-2.85535-5-6-1.01117-2.19693-.65671-3.39377-1-7-.52762-5.54269-1.40469-9.00708-3-11C79.84071,367.37271,75.95229,381.5,77.95229,398.5Zm9-35a10.86391,10.86391,0,0,1-2,2c-1.89578,1.72028-1.96381,1.82523-2,2-.29947,1.44574,2.316,4.10852,5,4,3.19122-.129,5.95428-4.15448,5-7-.76651-2.28555-3.9-3.71652-5-3C87.46068,361.82022,87.70036,362.35761,86.95229,363.5Zm174,30c-.016.25272.54474.45844,6,2,.70844.2002,2.11682.59558,4,1,2.83539.60892,4.05774.66077,5,0a5.25807,5.25807,0,0,0,1-1,3.52034,3.52034,0,0,0,1-2c.04236-.87814-.44318-1.9552-1-2-.64978-.05228-.71039,1.35617-2,2a4.176,4.176,0,0,1-3,0c-1.02026-.3024-1.13367-.65631-2-1-.98212-.38962-1.80524-.31915-4,0C262.63057,392.983,260.96932,393.23,260.95229,393.5Zm-49-118c-.739-.26218-2.95679,2.21082-3,5-.01642,1.0603.6557,2.37354,2,5,1.78632,3.49014,2.43555,3.88638,3,4,.99774.20084,1.28119-.57178,3-1,2.59729-.64709,3.66583.68958,5,0,2.2088-1.14163,2.33905-6.38623,1-7-.82428-.37781-1.53094,1.3082-4,2-1.809.50684-4.57568.48331-6-1C210.78835,280.24637,212.882,275.82983,211.95229,275.5Zm74-8c.30865.14075.63092-.23755,1.64606-.99359A36.16511,36.16511,0,0,1,292.95229,263.5a26.693,26.693,0,0,1,3.612-1.5733c.22729-.0775.7-.23483,1.388-.4267,3.006-.83835,3.5802-.51172,5-1,0,0,1.07147-.36848,5-4h0l4-2h0c-.00092-.00011-3.63525-2.87317-6-2-1.55536.5743-1.21594,2.27238-3,3-1.58862.64792-2.30878-.51457-4,0-1.9458.592-1.52142,2.29178-4,4a16.21208,16.21208,0,0,1-5,2c-1.85834.51617-2.32214.41557-3,1C285.25685,263.96173,285.188,267.15149,285.95229,267.5Zm71,162c-2.54034,4.7847-2.17938,9.60477-2,12,.23383,3.12259.38812,5.18277,2,7a8.69677,8.69677,0,0,0,10,2,8.57038,8.57038,0,0,0,4-5c1.52441-5.24789-3.02924-9.10321-1-12,1.15533-1.64929,3.07111-1.02719,4-3,.79913-1.69727.34576-4.20651-1-5-1.38672-.81763-2.79425.73285-4,0-1.502-.9129.01312-3.72549-1-7-1.26349-4.08362-4.86163-3.723-7-8-2.26733-4.535-.13422-8.76532-1-9-1.23712-.33536-6.66663,8.01169-4,13,2.04334,3.82239,7.509,3.18192,8,6C364.39851,423.06091,359.93569,423.88083,356.95229,429.5Zm-6-60c-2.8385,2.29031-1.64368,9.03189,2,11a5.12293,5.12293,0,0,0,5,0c2.57788-1.63763,2.06189-5.53275,2-6a6.5781,6.5781,0,0,0-3-5C355.12477,368.43793,352.50459,368.2475,350.95229,369.5Zm117-120c-.40356.468.78693,2.06657,3,5,2.13232,2.82643,2.592,3.0457,3,3,1.12195-.12569,1.05682-2.16655,3-5a13.14944,13.14944,0,0,1,4-4c2.88831-1.75082,5.14136-1.19476,6-3,.35461-.7455.39459-1.73224,0-2-.576-.39087-1.5932,1.07938-4,2-1.8891.72261-2.1731.16518-4,1a12.53353,12.53353,0,0,0-3,2c-1.43909,1.25549-1.27368,1.62044-2,2C471.65511,251.70049,468.54817,248.80894,467.95229,249.5Zm-74-116a5.942,5.942,0,0,0,2,6c1.91156,1.39468,3.39069-.08893,6,1,3.68671,1.53853,3.27264,5.55959,6,6,2.53247.409,5.93182-2.56676,6-5,.02448-.87288-.38678-1.42572,0-2,.6994-1.03845,2.55524.01048,4-1a4.11411,4.11411,0,0,0,1-5c-.90625-1.426-2.84552-1.12534-3-2-.16351-.92594,1.80969-2.39574,4-3,4.13837-1.14169,6.42383,1.53143,9,0,1.55762-.92595,2.52612-2.97562,2-4-.35315-.68753-1.31494-.78736-3-1-6.45758-.81487-5.44086-1.00288-7-1-1.04944.00194-2.60815.08914-9,2a84.79662,84.79662,0,0,0-9,3C397.41554,129.81493,394.63332,131.02295,393.95229,133.5Zm-280,435c-.73074,2.371,1.01,3.31976,1,7a14.4685,14.4685,0,0,1-1,5c-.86642,2.37781-1.45633,2.2937-2,4-1.1716,3.677.58075,7.16547,1,8,.18893.3761,2.20749,4.31519,4,4,.77792-.13678.73511-.938,2-2,1.83984-1.54474,3.21841-.93091,4-2,.94125-1.28748-.486-2.96014-1-6a15.404,15.404,0,0,1,1-8c1.94687-5.3736,5.82217-6.91235,5-9-.51627-1.31085-2.56018-2.01434-4-2-1.972.01965-2.63416,1.384-4,1-1.69089-.4754-1.67258-2.84662-3-3C115.82774,565.37006,114.44139,566.91315,113.95229,568.5Zm-15-58c-1.84528,1.55634-1.13367,5.03311,0,7,1.21274,2.104,2.45285,1.68982,4,4,1.23718,1.84735.71536,2.51721,2,6a58.52629,58.52629,0,0,0,3,6c3.03046,5.67889,3.53555,6.03827,4,6,1.17529-.0968,2.42664-2.76739,2-5-.33191-1.73688-1.43085-1.908-3-5-.89044-1.75464-1.50031-2.99689-1-4,.64185-1.28693,2.406-.76678,3-2,.52618-1.09247-.37976-2.49377-2-5-1.22317-1.892-1.71268-2.01636-2-2-1.04736.05969-1.48914,2.10809-2,2-.53427-.113-.02182-2.34735-1-5a5.57569,5.57569,0,0,0-2-3A4.437,4.437,0,0,0,98.95229,510.5Zm22,40c-.59256.41534-.89056.60071-1,1a2.08112,2.08112,0,0,0,1,2,3.201,3.201,0,0,0,3,0c.82-.39825,2.25854-1.4989,2-3a2.44893,2.44893,0,0,0-2-2C123.33342,548.45459,123.32146,548.83929,120.95229,550.5Zm150-457c-1.42853,2.57219-1.84015,3.83608-4,9-3.76617,9.00443-7.09949,16.12327-8,18a97.38917,97.38917,0,0,1-24,31c-7.94165,6.71506-12.79712,8.35048-15.80927,9.043a40.60656,40.60656,0,0,1-12.19073.957c-4.73346-.49913-10,0-20-3-5.21179-1.56354-8.84845-1.93637-11,0-10,9-12.2937,10.28227-21,11-9.76691.80516-19.36432-10.907-21-6-1,3-.22961,9.247-5,13-2.658,2.09117-4.19022.15726-7,3-2.21948,2.2455-1.41885,4.41885-3,6-4,4-25,34-27,47-.094.61116-1.35287,7.64758-1,10,.25165,1.6776,0,6,4,6,2.44849,0-2.22549-10.695,0-12,1.13-.66263,3.68726.9473,5,3,1.66953,2.61058,0,5,1,8,1.8439,5.53172,6.23679,11.45436,10,11,2.714-.32768,2.88354-4,6-4,2,0,8,5.37595,8,3,0-2,2.68143-5.33629,1-7-1.58209-1.56544-4.18689.494-6-1-1.99545-1.64424,0-5.86409,0-11,0-3,.49719-6.43645,2-7,8-3,15.3974-6.99416,16-12,.23572-1.95827-1.24365-3.73248,0-6a5.97475,5.97475,0,0,1,2-2c4.44861-3.351,1.21359-11,5-11,2,0,7.47461,3.64406,11,1,4-3,7.91357-14.35271,10-14,1.58105.26727.80841,7.39709,3,8,2.66223.73236,5.89374-9.21275,11-9,2.71643.11317,3.21741,2.98662,6,3,4.04852.01947,4.97052-6.05377,9-7,5.14282-1.20767,7.32257,12.55914,15,10,6-2,14-8,29-9,4.45453-.297,8.77972,1.71323,12-1,2.90613-2.44855,2.37817-6.1461,5-7,3.12537-1.01788,5.44922,3.7238,9,3,3.86169-.78717,3.343-6.85019,7-8,5.314-1.67078,10.9884,9.69115,17,8,3.26941-.91974,3.73535-4.8835,7-5,2.85992-.10205,5.085,2.84772,6,4,5.82257,7.33211,19.8313,18.98351,27,17,4.98114-1.37822,7.24213-9.50049,11-23,2.56885-9.22813,2.14-12.68575,6-17,4.39648-4.91391,8.3866-4.26616,11-9,1.09265-1.97919,1.04346-3.96262,0-15-1.312-13.87781-1.76971-19.58181-2-26-.16034-4.46926,4.2843-5.95422,2-9-6-8-18.04462-19.34377-15-30,2-7,13-24,26.092-29.4929.23315-.09781-.41827-.41087-1.092-.5071-1.38757-.19822-10.02734-2.37483-17.5,4.5-16.67072,15.337-25.5,25.5-39.5,26.5-10.37211.74087-10,0-16.96124-3.48942C288.17985,60.5989,289.2823,70.91433,280.95229,81.5,276.27217,87.44739,274.556,87.01122,270.95229,93.5Zm-142,141c-2,2-2,7-2,8,0,.82834.65219,1.45071,2,3,.52179.59978,4,1,5,4,.92719,2.78151,6.09756-2.46635,7-2,.84879.43863-.28339,2.674-2,4-1.233.95239-3,0-3,1,0,0,3,8,5,8,5.831,0,10-1,13-4,1.4504-1.4504.09882-4.093,1-6,1.11993-2.36993,3-2,4-4a33.54126,33.54126,0,0,0,3-7c1.71088-5.2567,4.12317-5.20689,4-8-.14957-3.39174-3.465-8.005-4.61293-9.50613a1.56537,1.56537,0,0,1-.30944-1.16555c.17468-1.28879.68447-4.09041,1.92237-5.32831,3-3,7.41421,7.65685,6,2-1-4,2.49268-8.522,2-10-1-3,2-14-5-7-2.45062,2.45061-3.77191,6.51877-9,11-7,6-13.45288-.79715-16,3-1.218,1.8158.35388,2.94183-1,7-1.33218,3.99321-3.73016,5.52861-3,7,.84717,1.70718,6-1,5,2-.208.62405-.76865,1.78143-5,4C134.30855,232.8575,130.85372,232.59857,128.95229,234.5Zm40-18" transform="translate(-67.87741 -34.26834)"/></g></svg>