<?xml version="1.0" encoding="utf-8"?>
<!-- Generator: Adobe Illustrator 21.0.2, SVG Export Plug-In . SVG Version: 6.00 Build 0)  -->
<svg version="1.1" id="Lag_1" xmlns="http://www.w3.org/2000/svg" xmlns:xlink="http://www.w3.org/1999/xlink" x="0px" y="0px"
	 viewBox="0 0 1920 1080" style="enable-background:new 0 0 1920 1080;" xml:space="preserve">
<style type="text/css">
	.st0{fill:none;stroke:#000000;stroke-width:3;stroke-miterlimit:10;}
	.st1{fill:none;stroke:#000000;stroke-width:5;stroke-miterlimit:10;}
</style>
<g>
	<g>
		<g>
			<path d="M44.8,749.1l102.7,40.4c-1,3-2.1,6-3.3,9c-9.7,24.8-23.7,47.1-39.2,62.9c-14.8,15.1-30.2,23.4-43.3,23.4
				c-3.6,0-7-0.6-10.2-1.9c-13.2-5.2-21.7-20.6-24-43.5c-2.4-24.1,2.4-53,13.6-81.5C42.3,754.9,43.5,752,44.8,749.1 M42.3,742.7
				c-2,4.3-3.9,8.8-5.7,13.4c-23.7,60.4-17.8,119.3,13.2,131.5c3.8,1.5,7.9,2.2,12,2.2c29.7,0,66.3-36.6,87.2-89.5
				c1.8-4.6,3.4-9.2,4.9-13.7L42.3,742.7L42.3,742.7z"/>
		</g>
		<g>
			<path d="M193.2,525.5c4.5,0,8.6,0.7,12.3,2.2c10.9,4.3,20.4,17.3,25.9,35.5c5,16.6,6.3,36.3,3.6,55.4
				c-3,21.5-10.7,41.6-22.5,58.4c-11.2,16-23.8,36.8-34.9,55.2c-6.8,11.2-13.2,21.9-18.4,29.9L55,721.2
				c4.4-23.9,15.4-58.6,24.5-81.9c17-43.1,39.5-69.8,55.4-84.6C154.8,536.2,176,525.5,193.2,525.5 M193.2,520.5
				c-36.2,0-89.1,42.3-118.4,116.9c-10.4,26.3-21.7,63.3-25.5,86.9l111.8,43.9c13.3-19.8,36.4-61.2,55.5-88.4
				c41.4-58.9,25.7-143.1-9.3-156.9C203,521.4,198.3,520.5,193.2,520.5L193.2,520.5z"/>
		</g>
	</g>
	<g>
		<g>
			<path d="M233.3,922.9L342,942.4c-0.4,3.2-0.9,6.3-1.5,9.4c-5.1,28.3-15.3,54.4-28.8,73.3c-12.9,18.1-27.4,28.1-40.9,28.1
				c-1.6,0-3.2-0.1-4.7-0.4c-13.9-2.5-25.3-16-32.1-38c-7.1-23.1-8-52.4-2.6-82.6C232,929.2,232.6,926.1,233.3,922.9 M229.5,917.2
				c-1.1,4.6-2.1,9.4-3,14.2c-11.4,63.9,5.9,120.4,38.7,126.3c1.9,0.3,3.7,0.5,5.6,0.5c31.2,0,63.8-45.3,74.6-105.5
				c0.9-4.8,1.6-9.6,2.1-14.4L229.5,917.2L229.5,917.2z"/>
		</g>
		<g>
			<path d="M314.9,664.1v5c2.1,0,4.2,0.2,6.4,0.6c16.7,3,32.7,21.3,42.5,49c11.3,31.7,13.6,71.5,6.3,112.1
				c-4.4,24.6-13.2,59.9-22.1,82.6L239.7,894c4.4-14.5,1.9-33-0.7-52.5c-2.2-16.4-4.4-33.4-2.2-47.1c6.5-39.6,17.8-72.2,32.9-94.5
				c13.5-20,29.1-30.6,45.1-30.6L314.9,664.1 M314.9,664.1c-34.7,0-69,44.4-82.9,129.3c-5.4,32.8,13,79.5,0.9,104.3L351.1,919
				c9.2-22,18.9-59.5,23.9-87.3c16.1-90-15.8-160.2-52.9-166.9C319.7,664.3,317.3,664.1,314.9,664.1L314.9,664.1z"/>
		</g>
	</g>
</g>
<g>
	<g>
		<g>
			<path d="M1647.1,178l43.5,42.7c-0.8,0.9-1.6,1.7-2.5,2.6c-17.2,17.6-38.3,28.9-53.7,28.9c-5.6,0-10-1.5-13.1-4.5
				c-5.3-5.2-6.2-15-2.5-27c4.1-13.3,13.2-27.6,25.6-40.2C1645.4,179.7,1646.2,178.8,1647.1,178 M1647.2,171.1
				c-2.1,1.9-4.2,3.8-6.2,5.9c-26.7,27.3-37.1,60.5-23,74.3c4.1,4,9.8,5.9,16.6,5.9c16.3,0,38.3-11.1,57.2-30.4c2-2.1,4-4.2,5.8-6.3
				L1647.2,171.1L1647.2,171.1z"/>
		</g>
		<g>
			<path d="M1765.1,87.8c8.2,0,14.5,2,18.4,5.9c4,3.9,6.1,9.3,6.1,16c0,17.3-13.5,40.7-37.1,64c-10.4,10.3-27.5,20.8-40,28.5
				c-2.3,1.4-4.3,2.7-6.2,3.9l-44.7-43.8c7.9-11.7,21.1-27,30.9-37C1719.6,97.6,1747.8,87.8,1765.1,87.8 M1765.1,82.8
				c-20.9,0-50.2,12.3-76.1,38.8c-11.7,11.9-26.3,29.3-33.8,41.2l50.5,49.5c11.8-7.7,36.5-21.4,50.4-35.1
				c38.5-38.1,46.8-71.6,31-87.1C1782.2,85.2,1774.5,82.8,1765.1,82.8L1765.1,82.8z"/>
		</g>
	</g>
	<g>
		<g>
			<path d="M1709.8,315.5l51.1,33.4c-0.6,1-1.3,2-1.9,3c-15.1,23.2-36.5,39.4-52,39.4c-3.4,0-6.3-0.8-8.7-2.4
				c-6.2-4.1-9-13.5-7.7-26c1.4-13.8,7.6-29.6,17.2-44.4C1708.5,317.4,1709.1,316.4,1709.8,315.5 M1708.5,308.7
				c-1.7,2.3-3.3,4.6-4.9,7c-20.9,32-24.5,66.6-8,77.3c3.3,2.2,7.2,3.2,11.4,3.2c16.8,0,39.5-16.1,56.1-41.7
				c1.6-2.4,3.1-4.9,4.5-7.3L1708.5,308.7L1708.5,308.7z"/>
		</g>
		<g>
			<path d="M1803,194.2L1803,194.2c4.1,0,7.8,1.1,11,3.2c7.8,5.1,11.8,17.9,10.9,34.5c-1.1,19.4-8.9,41.1-22,61.2
				c-7.7,11.8-19.8,27.9-29.5,38.1l-52.4-34.2c0.7-2.1,1.5-4.4,2.4-6.9c4.8-13.8,11.4-32.8,19.2-45.2
				C1762.6,213.2,1785.1,194.2,1803,194.2 M1803,189.2c-18.2,0-42.1,17.2-64.7,53c-10.4,16.5-18.5,43.6-23.5,56.7l59.2,38.6
				c10-9.8,23.9-27.9,33-41.8c29.4-45,28.2-90.5,9.7-102.6C1812.7,190.6,1808,189.2,1803,189.2L1803,189.2z"/>
		</g>
	</g>
</g>
<g>
	<g>
		<g>
			<path d="M1552.8,868.9c1,3,2,6.1,2.9,9.1c8.6,29.4,10.8,58.6,6.3,82.4c-4.3,22.6-14.2,37.2-27.8,41.2c-2.5,0.7-5,1.1-7.7,1.1
				c-13.3,0-28.3-9.1-42.3-25.6c-14.7-17.3-27.1-41.4-34.8-67.9c-0.9-3-1.7-6.1-2.5-9.2L1552.8,868.9 M1555.9,862.8l-115.1,33.7
				c1,4.7,2.3,9.4,3.6,14.1c16.6,56.5,51.6,97.1,81.9,97.1c3.1,0,6.1-0.4,9.1-1.3c32-9.4,43.2-67.5,24.9-129.7
				C1559,871.9,1557.5,867.3,1555.9,862.8L1555.9,862.8z"/>
		</g>
		<g>
			<path d="M1449,625.1c16.6,0,34.7,10.2,49.6,27.9c17.8,21.1,30.5,51.5,36.7,88c5.5,31.9,8.3,74.1,9.9,99.3l0,0l-107.5,31.5
				c-11.2-21.6-23.8-55.8-30.8-79.7c-11.6-39.6-13.7-79.4-5.8-112.1c6.9-28.6,20.7-48.5,37-53.2
				C1441.6,625.6,1445.2,625.1,1449,625.1 M1449,620.1c-4.2,0-8.3,0.6-12.2,1.7c-36.1,10.6-60.3,83.9-34.6,171.6
				c8,27.2,21.6,63.4,33.1,84.3l115.2-33.7c-1.6-23.8-4.5-69.9-10.3-103.8C1526.4,659.2,1483.6,620.1,1449,620.1L1449,620.1z"/>
		</g>
	</g>
	<g>
		<g>
			<path d="M1800.1,870.7c1.6,2.8,3.1,5.6,4.6,8.4c14.2,27.1,22.1,55.4,22.3,79.5c0.2,23-6.7,39.3-19.2,45.8
				c-4,2.1-8.5,3.2-13.5,3.2c-13,0-28.7-7.3-44.3-20.7c-16.5-14.1-31.5-33.7-43.5-56.5c-1.5-2.8-2.9-5.7-4.2-8.5L1800.1,870.7
				 M1802,864.1l-106.2,55.6c1.9,4.4,4,8.7,6.3,13.1c25.2,48.1,63.2,79.8,92.2,79.8c5.7,0,11-1.2,15.8-3.7
				c29.6-15.5,29.1-74.6-1-132.1C1806.9,872.4,1804.5,868.2,1802,864.1L1802,864.1z"/>
		</g>
		<g>
			<path d="M1633.4,664.1c17.3,0,39,9.3,59.6,25.5c23.6,18.5,44.6,44.7,60.8,75.6c11.6,22.1,26.3,55.5,33.2,78.8l-99.2,51.9
				c-14.5-17.4-42.9-52.2-61.9-78.5c-15.3-21.2-25.8-42.7-31.2-63.9c-4.7-18.5-5.3-36.2-1.7-51.3c3.8-16.2,12.2-28.4,23.6-34.4
				C1621.4,665.4,1627,664.1,1633.4,664.1L1633.4,664.1L1633.4,664.1 M1633.4,659.1c-7.2,0-13.6,1.4-19.1,4.3
				c-33.3,17.4-45.3,83.5,7.6,156.9c19.4,26.9,49.3,63.6,64.7,81.9l106.4-55.7c-6.2-23-21.5-58.6-34.6-83.7
				C1723,695.4,1669.5,659.1,1633.4,659.1L1633.4,659.1z"/>
		</g>
	</g>
</g>
<g>
	<g>
		<g>
			<path d="M570.1,516l43.5,42.7c-0.8,0.9-1.6,1.7-2.5,2.6c-17.2,17.6-38.3,28.9-53.7,28.9c-5.6,0-10-1.5-13.1-4.5
				c-5.3-5.2-6.2-15-2.5-27c4.1-13.3,13.2-27.6,25.6-40.2C568.4,517.7,569.2,516.8,570.1,516 M570.2,509.1c-2.1,1.9-4.2,3.8-6.2,5.9
				c-26.7,27.3-37.1,60.5-23,74.3c4.1,4,9.8,5.9,16.6,5.9c16.3,0,38.3-11.1,57.2-30.4c2-2.1,4-4.2,5.8-6.3L570.2,509.1L570.2,509.1z
				"/>
		</g>
		<g>
			<path d="M687.7,426.3c8.2,0,14.8,1.9,19.1,5.6c2.3,1.9,3.8,6.1,4,11.5c0.4,8.5-2.3,19.1-7.4,29.9c-6.1,13-15.8,26.2-27.9,38.2
				c-10.4,10.3-27.5,20.8-40,28.5c-2.3,1.4-4.3,2.7-6.2,3.9l-44.7-43.8c7.9-11.7,21.1-27,30.9-37c11.7-12,25-21.7,38.4-28.1
				C665.8,429.3,677.5,426.3,687.7,426.3 M687.7,421.3c-20.9,0-49.7,11.7-75.7,38.2c-11.7,11.9-26.3,29.3-33.8,41.2l50.5,49.5
				c11.8-7.7,36.5-21.4,50.4-35.1c38.5-38.1,42.9-77.2,31-87.1C704.8,423.7,697.1,421.3,687.7,421.3L687.7,421.3z"/>
		</g>
	</g>
	<g>
		<g>
			<path d="M632.8,653.5l51.1,33.3c-0.6,1-1.3,2-1.9,3c-15.1,23.2-36.5,39.4-52,39.4c-3.4,0-6.3-0.8-8.7-2.4c-6.2-4.1-9-13.5-7.7-26
				c1.4-13.8,7.6-29.6,17.2-44.4C631.5,655.4,632.1,654.4,632.8,653.5 M631.5,646.7c-1.7,2.3-3.3,4.6-4.9,7
				c-20.9,32-24.5,66.6-8,77.3c3.3,2.2,7.2,3.2,11.4,3.2c16.8,0,39.5-16.1,56.1-41.7c1.6-2.4,3.1-4.9,4.5-7.3L631.5,646.7
				L631.5,646.7z"/>
		</g>
		<g>
			<path d="M728.2,532.7L728.2,532.7c4.8,0,7.2,1.2,7.9,1.9c7.1,7.5,11.1,21.3,10.5,36.8c-0.5,13.4-4.5,34.6-20.8,59.6
				c-7.7,11.8-19.8,27.9-29.5,38.1L643.9,635c4-10.4,14.7-38,21.9-52.5c8.2-16.7,19.5-30.2,32.6-39
				C712.6,533.8,724,532.7,728.2,532.7 M728.2,527.7c-17.2,0-47.6,13.3-66.9,52.5c-7.3,14.8-18.5,43.6-23.5,56.7l59.2,38.6
				c10-9.8,23.9-27.9,33-41.8c29.4-45,24.9-86.5,9.7-102.6C737.6,529,733.6,527.7,728.2,527.7L728.2,527.7z"/>
		</g>
	</g>
</g>
<g>
	<g>
		<g>
			<path d="M187.2,223.6c0.4,1.1,0.8,2.2,1.1,3.4c5.5,16.8,7.2,33.7,5,47.4c-2,12.4-7.2,20.8-14.3,23.1c-1.4,0.4-2.8,0.7-4.4,0.7
				c-3.5,0-7.2-1.2-11.2-3.4c-4.2-2.4-8.3-5.9-12.4-10.5c-8.6-9.7-16.1-23.3-20.9-38.3c-0.4-1.1-0.7-2.3-1.1-3.4L187.2,223.6
				 M190.2,217.3l-67.1,21.8c0.7,2.7,1.5,5.5,2.4,8.2c10.6,32.6,31.6,55.7,49.3,55.7c2,0,4-0.3,5.9-0.9
				c18.7-6.1,24.3-40.4,12.5-76.7C192.2,222.6,191.3,219.9,190.2,217.3L190.2,217.3z"/>
		</g>
		<g>
			<path d="M119.8,82.2c15,0,47.3,19.3,54.2,64c2.8,18.2,5.9,42.5,7.4,56.6l-59.5,19.3c-6.7-12.4-14.2-31.2-18.5-44.5
				c-11.1-34.1-5.8-67.3,4.2-85.1c3.8-6.7,7.4-9.6,9.6-10C117.9,82.3,118.8,82.2,119.8,82.2 M119.8,77.2c-1.4,0-2.6,0.1-3.7,0.4
				C101,81,82,127.9,98.6,179.1c5.1,15.8,13.8,36.9,20.9,49l67.2-21.8c-1.3-14-4.8-41.6-7.8-60.9C171.6,97.8,136.9,77.2,119.8,77.2
				L119.8,77.2z"/>
		</g>
	</g>
	<g>
		<g>
			<path d="M333.3,220.6c0.6,1,1.2,2,1.8,3.1c8.6,15.4,13.7,31.6,14.2,45.5c0.5,12.5-3,21.8-9.5,25.4c-2.2,1.2-4.7,1.8-7.5,1.8
				c-7.2,0-16-4-24.9-11.3c-9.6-7.9-18.5-18.8-25.7-31.6c-0.6-1-1.1-2.1-1.7-3.1L333.3,220.6 M335,213.9l-61.5,34.5
				c1.2,2.5,2.5,5.1,3.9,7.6c15.4,27.5,37.9,45.4,54.9,45.4c3.6,0,6.9-0.8,9.9-2.5c17.1-9.6,15.9-44.4-2.8-77.7
				C338,218.7,336.5,216.3,335,213.9L335,213.9z"/>
		</g>
		<g>
			<path d="M233.3,101.2c9.7,0,22.1,5.1,34,14c13.7,10.3,26.2,25,35.9,42.4c6.9,12.2,15.6,30.5,20.1,43.8L268.8,232
				c-0.1-0.1-0.2-0.2-0.3-0.3c-9.8-10.9-26.1-29.1-36.1-43.3c-14-19.9-21.5-51.2-16.9-71.3c1.1-4.7,3.4-11,8.2-13.7
				C226.3,102,229.6,101.2,233.3,101.2L233.3,101.2 M233.3,96.2c-4.6,0-8.7,1-12.1,2.9c-19.3,10.8-14.2,61.9,7.1,92.2
				c11.3,16,30.1,36.6,39.4,47.1l61.6-34.5c-4.1-13.4-13.7-34.1-21.8-48.6C286,116.6,254.6,96.2,233.3,96.2L233.3,96.2z"/>
		</g>
	</g>
</g>
<g>
	<g>
		<g>
			<path d="M975,957.4c0.3,1.1,0.6,2.3,0.9,3.4c4.3,17.2,4.8,34.1,1.6,47.6c-2.9,12.2-8.7,20.2-15.9,22c-1.1,0.3-2.2,0.4-3.3,0.4
				c-13.8,0-33.2-20.7-41.7-55.3c-0.3-1.1-0.6-2.3-0.8-3.5L975,957.4 M978.5,951.4l-68.5,17c0.5,2.8,1.1,5.6,1.8,8.4
				c8.5,34.2,28.6,59.1,46.6,59.1c1.5,0,3-0.2,4.5-0.5c19.1-4.7,27.1-38.6,17.9-75.7C980.1,956.8,979.3,954,978.5,951.4L978.5,951.4
				z"/>
		</g>
		<g>
			<path d="M915.6,811.7c23.9,0,41.3,23,51.8,68.2c3.3,14.2,3.3,34.3,3.3,49c0,2.7,0,5.1,0,7.3l-60.8,15.1
				c-5.8-12.9-11.9-32.1-15.3-45.7c-4.3-17.5-5.6-35.4-3.7-51.7c1.7-14.6,5.8-26.9,11.7-34.6c2.6-3.4,6.7-7.4,12-7.6
				C914.9,811.7,915.2,811.7,915.6,811.7 M915.6,806.7c-0.4,0-0.8,0-1.2,0c-22.1,0.6-37.5,47.8-24.6,100c4,16.2,11.1,37.8,17.4,50.4
				l68.6-17c-0.4-14,0.9-42.3-3.5-61.3C960.2,826.9,939.7,806.7,915.6,806.7L915.6,806.7z"/>
		</g>
	</g>
	<g>
		<g>
			<path d="M1120.9,964.7c0.5,1.1,1.1,2.1,1.6,3.2c7.5,16,11.4,32.5,10.9,46.4c-0.4,12.5-4.5,21.5-11.2,24.7c-1.9,0.9-4,1.3-6.3,1.3
				c-7.2,0-15.9-4.4-24.5-12.3c-9.2-8.5-17.8-20.6-24.2-34.1c-0.5-1.1-1-2.1-1.5-3.2L1120.9,964.7 M1123.1,958.2l-63.8,30.1
				c1,2.6,2.2,5.2,3.4,7.9c13.9,29.5,36,49.2,53.2,49.2c3,0,5.8-0.6,8.4-1.8c17.8-8.4,19-43.2,2.7-77.7
				C1125.8,963.2,1124.5,960.6,1123.1,958.2L1123.1,958.2z"/>
		</g>
		<g>
			<path d="M1023,844.5c11.3,0,24.9,4.8,37.2,13.2c10.3,7,24.8,20.1,35.2,42.1c6,12.7,13.4,31.5,17,45.1l-56.5,26.6
				c-2.6-3.7-5.7-8.2-8.9-13c-7.8-11.6-16.6-24.7-24.9-33.8c-18.3-20.1-26.8-41.7-23.3-59.1c1.8-8.9,6.7-15.8,13.4-19
				C1015,845.2,1018.8,844.5,1023,844.5L1023,844.5 M1023,839.5c-5,0-9.4,0.9-13,2.5c-20,9.4-28.1,46,8.3,86
				c12.7,14,27.4,38.6,36,49.8l63.9-30.1c-3.1-13.7-11.2-35-18.3-50C1081.1,857.7,1046,839.5,1023,839.5L1023,839.5z"/>
		</g>
	</g>
</g>
<g>
	<g>
		<g>
			<path d="M874.9,285.7l109.2,16.5c-0.3,3.2-0.8,6.3-1.2,9.5c-4.3,28.7-14,55.2-27.1,74.6c-12.5,18.5-26.9,28.6-40.5,28.6
				c-1.3,0-2.7-0.1-4-0.3c-14-2.1-25.8-15.3-33.1-37.1c-7.7-22.9-9.4-52.2-4.8-82.5C873.8,291.9,874.3,288.8,874.9,285.7 M871,280
				c-1,4.7-1.9,9.4-2.6,14.3c-9.7,64.2,9.1,120.2,42.1,125.2c1.6,0.2,3.2,0.4,4.8,0.4c31.5,0,63.3-46.4,72.6-107.5
				c0.7-4.9,1.3-9.7,1.7-14.4L871,280L871,280z"/>
		</g>
		<g>
			<path d="M971.1,33.7c1.4,0,2.8,0.1,4.2,0.3c13.1,1.9,26.9,17,36.2,39.5c8.2,19.9,16.7,54.4,10.6,106c-2.9,24.3-16.3,55.3-26,77.9
				c-2.5,5.8-4.8,11.1-6.6,15.7l-110.8-16.8c-1.1-24.3,1.9-60.6,5.7-85.3c6-39.6,18.9-75.5,36.4-101.1
				C936.3,46.8,954.7,33.7,971.1,33.7 M971.1,28.7c-36.3,0-78.6,55.1-91.7,141.5c-4.2,28-7.1,66.6-5.5,90.4l118.7,18
				c8.6-22.3,30.5-65.5,34.5-98.5c11-92-23-147-51-151C974.4,28.8,972.7,28.7,971.1,28.7L971.1,28.7z"/>
		</g>
	</g>
	<g>
		<g>
			<path d="M1207.6,408.1c0.3,3.2,0.5,6.4,0.6,9.5c1.4,30.6-3.3,59.5-13.3,81.5c-9.5,20.9-22.6,32.8-36.7,33.5c-0.4,0-0.8,0-1.3,0
				c-14,0-27.8-10.9-39-30.8c-11.7-20.9-19-48.9-20.4-79c-0.1-3.2-0.2-6.4-0.2-9.5L1207.6,408.1 M1212.1,402.9l-119.8,5.6
				c-0.1,4.8,0,9.6,0.2,14.5c3,63.9,31.7,114.6,64.4,114.6c0.5,0,1,0,1.5,0c33.3-1.6,57.9-55.4,54.8-120.2
				C1213,412.4,1212.7,407.6,1212.1,402.9L1212.1,402.9z"/>
		</g>
		<g>
			<path d="M1126.6,146.8c5.5,0,13.3,3.6,21.5,9.7c9.3,7.1,18.7,17.3,27.1,29.4c20.7,29.9,33.1,67.9,35,107
				c1.2,25,0.4,61.4-3.1,85.4l-111.9,5.3c-0.6-2.3-1.3-4.8-2-7.4c-6.8-24.6-17.1-61.8-20.9-89.6c-3.7-27.1-2.5-52.4,3.6-75.4
				c6.4-24.3,16.5-39.5,23.8-47.9C1108.5,153,1118.6,146.9,1126.6,146.8L1126.6,146.8L1126.6,146.8 M1126.6,141.8c0,0-0.1,0-0.1,0
				c-27.5,0.2-71.5,55.2-59.3,145.5c4.5,32.9,17.9,78.5,24.1,101.5l120-5.6c4.1-23.5,5.2-62.2,3.8-90.5
				C1210.9,201.6,1153.3,141.8,1126.6,141.8L1126.6,141.8z"/>
		</g>
	</g>
</g>
<polygon class="st0" points="392.2,486 317.2,442.7 317.2,529.3 "/>
<polygon class="st0" points="1419,214 1380.9,279.9 1457,279.9 "/>
<polygon class="st0" points="1268.5,720.5 1275.3,661.1 1220.4,684.9 "/>
<polygon class="st0" points="800.5,125.5 807.3,66.1 752.4,89.9 "/>
<polygon class="st0" points="634.5,982.5 641.3,923.1 586.4,946.9 "/>
<polygon class="st0" points="1820.5,589.5 1827.3,530.1 1772.4,553.9 "/>
<polygon class="st0" points="955.9,636.3 965.3,554.1 889.4,587.1 "/>
<polygon class="st0" points="488.7,150.8 442.9,112.4 432.5,171.3 "/>
<polygon class="st1" points="1151.1,64.6 1195,126.6 1226.8,57.5 "/>
<polygon class="st0" points="625.3,307 558.8,257.7 549.4,339.9 "/>
<polygon class="st0" points="1461.5,479.5 1468.3,420.1 1413.4,443.9 "/>
<polygon class="st0" points="498.5,823.5 505.3,764.1 450.4,787.9 "/>
<polygon class="st0" points="1294.6,952.1 1264.7,900.3 1234.8,952.1 "/>
<g>
	<g>
		<g>
			<path d="M1441.9,120.5c0.1,0.7,0.3,1.5,0.4,2.2c1.8,10.9,1.2,21.5-1.4,29.7c-2.4,7.4-6.4,12.1-11,12.9c-0.4,0.1-0.9,0.1-1.4,0.1
				c-9.9,0-20.6-16.4-23.9-36.6c-0.1-0.7-0.2-1.5-0.3-2.2L1441.9,120.5 M1444.4,117l-43.5,7c0.2,1.7,0.4,3.5,0.7,5.3
				c3.6,22.3,15.4,39.2,26.9,39.2c0.6,0,1.2,0,1.9-0.1c12.1-2,18.8-22.6,15-46.2C1445.1,120.4,1444.8,118.7,1444.4,117L1444.4,117z"
				/>
		</g>
		<g>
			<path d="M1414.4,26.6c5.5,0,10.8,3.7,15.4,10.8c5.3,8.1,9.3,20.1,11.4,34.6c1.3,9,0.3,21.5-0.5,30.6c-0.1,1.7-0.3,3.2-0.4,4.6
				l-38.6,6.2c-2.9-8.3-5.8-20.6-7.2-29.3c-2.4-14.8-1.3-29.1,3-40.5c3.6-9.7,9.2-16,14.9-16.9C1413.1,26.6,1413.7,26.6,1414.4,26.6
				 M1414.4,23.4c-0.8,0-1.6,0.1-2.4,0.2c-13.7,2.2-25.8,27.8-20.5,61c1.7,10.3,5,24.1,8.2,32.3l43.6-7c0.5-8.8,2.8-26.3,1-38.3
				C1439.7,40,1427.2,23.4,1414.4,23.4L1414.4,23.4z"/>
		</g>
	</g>
	<g>
		<g>
			<path d="M1532.4,132.7c0.3,0.7,0.5,1.4,0.8,2.1c3.9,10.4,5.4,20.8,4.4,29.4c-0.9,7.8-3.9,13.2-8.3,14.8c-1,0.4-2,0.5-3.1,0.5
				c-9.7,0-22.1-13.5-28.8-31.4c-0.3-0.7-0.5-1.4-0.7-2.1L1532.4,132.7 M1534.1,128.7l-41.3,15.4c0.5,1.7,1.1,3.4,1.7,5.1
				c7.4,19.7,20.7,33.4,31.7,33.4c1.5,0,2.9-0.2,4.2-0.7c11.5-4.3,14-25.9,5.7-48.2C1535.5,132,1534.8,130.3,1534.1,128.7
				L1534.1,128.7z"/>
		</g>
		<g>
			<path d="M1479.7,46.1v3.1c6,0,13.4,3.9,20.5,10.6c5.7,5.4,13.7,15.3,19.7,31.1c3.1,8.2,6.7,20.3,8.2,29l-36.6,13.7
				c-0.8-1.2-1.6-2.4-2.6-3.8c-5.2-7.5-12.3-17.9-15.6-26.4c-7.5-19.3-9.3-36.1-4.9-45.9c1.7-3.8,4.2-6.3,7.5-7.6
				c1.1-0.4,2.4-0.6,3.8-0.6L1479.7,46.1l0,3.1L1479.7,46.1 M1479.7,46.1c-1.8,0-3.4,0.3-4.9,0.8c-13,4.8-16.7,26.1-4.4,57.6
				c4.4,11.4,15.1,25.5,19.8,32.8l41.3-15.4c-1.2-8.7-5.2-22.3-8.8-32.1C1512.4,62,1493,46.1,1479.7,46.1L1479.7,46.1z"/>
		</g>
	</g>
</g>
<polygon class="st0" points="108.5,441.5 115.3,382.1 60.4,405.9 "/>
<g>
	<g>
		<g>
			<path d="M1080.3,714.6c0.1,0.4,0.2,0.7,0.2,1.1c2.1,10.8-0.6,20.8-5.7,21.7c-0.3,0.1-0.5,0.1-0.8,0.1c-5,0-10.6-8.2-12.5-18.2
				c-0.1-0.4-0.1-0.7-0.2-1.1L1080.3,714.6 M1081.5,712.7l-21.9,4.2c0.1,0.9,0.2,1.8,0.4,2.7c2.1,11.2,8.2,19.5,14,19.5
				c0.4,0,0.7,0,1.1-0.1c6.1-1.2,9.2-11.7,7-23.6C1081.9,714.5,1081.7,713.6,1081.5,712.7L1081.5,712.7z"/>
		</g>
		<g>
			<path d="M1064.8,667.3c3.5,0,11.7,6.8,14.4,22.6c0.8,4.6,0.4,10.9,0.2,15.5c0,0.8-0.1,1.6-0.1,2.3l-19.5,3.7
				c-1.6-4.2-3.2-10.4-4-14.7c-3.1-16.6,3-27.9,8.4-29.4C1064.4,667.4,1064.6,667.3,1064.8,667.3 M1064.8,665.8c-0.4,0-0.7,0-1,0.1
				c-6.8,1.9-12.7,14.5-9.5,31.2c1,5.2,2.9,12.1,4.6,16.2l22-4.2c0.1-4.4,1-13.3,0-19.4C1078,674,1069.7,665.8,1064.8,665.8
				L1064.8,665.8z"/>
		</g>
	</g>
	<g>
		<g>
			<path d="M1126.2,719.4c0.2,0.3,0.3,0.7,0.4,1c2.1,5.2,3,10.5,2.6,14.8c-0.4,3.9-1.8,6.7-4,7.6c-0.5,0.2-1.1,0.3-1.7,0.3
				c-4.9,0-11.3-6.7-14.9-15.5c-0.1-0.3-0.3-0.7-0.4-1L1126.2,719.4 M1127.1,717.4l-20.7,8.4c0.3,0.8,0.6,1.7,0.9,2.5
				c4,9.8,10.8,16.5,16.3,16.5c0.8,0,1.6-0.1,2.3-0.4c5.8-2.3,6.7-13.3,2.2-24.5C1127.8,719,1127.4,718.2,1127.1,717.4L1127.1,717.4
				z"/>
		</g>
		<g>
			<path d="M1097.4,678.3L1097.4,678.3c6.6,0,16.3,6.3,21.9,20.2c1.7,4.1,3.7,10.2,4.6,14.6l-18.3,7.4c-2-2.9-7.2-10.7-9.7-15.2
				c-5.5-10-4.9-18.8-2.5-23.8c1.1-2.1,2.2-3,2.7-3.1C1096.5,678.3,1097,678.3,1097.4,678.3 M1097.4,676.7c-0.5,0-1,0-1.5,0.1
				c-4,0.6-10.2,13.3-1.4,29.2c2.5,4.6,8,12.7,10.5,16.3l20.7-8.4c-0.7-4.4-2.9-11.2-4.9-16.1
				C1114.9,683.2,1104.4,676.7,1097.4,676.7L1097.4,676.7z"/>
		</g>
	</g>
</g>
<g>
	<g>
		<g>
			<path d="M750.8,757.7l19.1,13c-0.2,0.4-0.5,0.8-0.7,1.1c-5.8,8.5-13.9,14.5-19.8,14.5c-1.3,0-2.5-0.3-3.4-1
				c-2.3-1.6-3.3-5.2-2.7-9.9c0.6-5.2,3.1-11.1,6.8-16.7C750.3,758.4,750.6,758,750.8,757.7 M750.4,755.1c-0.7,0.8-1.3,1.7-1.9,2.6
				c-8.1,11.9-9.7,25-3.6,29.2c1.3,0.9,2.8,1.3,4.5,1.3c6.3,0,14.9-5.9,21.3-15.3c0.6-0.9,1.2-1.8,1.7-2.7L750.4,755.1L750.4,755.1z
				"/>
		</g>
		<g>
			<path d="M791.5,716.1c1.8,0,3.4,0.4,4.6,1.1c1,0.6,1.8,2,2.3,4c1.3,5.7-0.3,16-8.6,27.7c-3.2,4.5-8.8,9.6-13,13.3
				c-0.7,0.7-1.4,1.3-2.1,1.8l-19.6-13.3c2.2-4.9,6-11.5,9-15.8C773.1,721.9,784.3,716.1,791.5,716.1 M791.5,714.2
				c-8.1,0-19.8,6.3-28.8,19.6c-3.5,5.2-7.8,12.7-9.8,17.6l22.1,15c3.9-3.6,12.1-10.4,16.4-16.4c11.8-16.7,10.8-31.6,5.7-34.5
				C795.5,714.7,793.6,714.2,791.5,714.2L791.5,714.2z"/>
		</g>
	</g>
	<g>
		<g>
			<path d="M783.4,804.6l21.2,9c-0.2,0.4-0.3,0.8-0.5,1.2c-4.4,10.4-12.1,18.3-18,18.3c-0.8,0-1.5-0.1-2.1-0.4
				c-5.8-2.4-6.3-14.7-1.2-26.8C783,805.4,783.2,805,783.4,804.6 M782.5,802.2c-0.5,0.9-0.9,1.9-1.4,2.9
				c-5.6,13.3-4.7,26.4,2.2,29.3c0.9,0.4,1.9,0.6,2.9,0.6c6.6,0,14.8-7.9,19.7-19.4c0.4-1,0.8-2,1.2-3L782.5,802.2L782.5,802.2z"/>
		</g>
		<g>
			<path d="M812.3,751.3v1.9c0.8,0,1.4,0.2,1.6,0.3c3.2,2.3,5.5,7.2,6.4,13c0.7,5,0.6,13.2-3.7,23.6c-2.1,4.9-5.5,11.7-8.4,16.2
				l-21.8-9.2c0.8-4.1,2.9-15.1,4.6-21c5-17.2,16.6-22.8,21.4-22.8V751.3 M812.3,751.3c-6,0-18.2,6.7-23.2,24.2
				c-1.7,6-4,17.5-4.9,22.7l24.6,10.4c3.1-4.3,7-12,9.5-17.8c7.9-18.7,3.5-33.9-3.3-38.8C814.4,751.5,813.4,751.3,812.3,751.3
				L812.3,751.3z"/>
		</g>
	</g>
</g>
<g>
	<g>
		<g>
			<path d="M1574.3,517.6c0.1,0.4,0.2,0.7,0.2,1.1c2.1,10.8-0.6,20.8-5.7,21.7c-0.3,0.1-0.5,0.1-0.8,0.1c-5,0-10.6-8.2-12.5-18.2
				c-0.1-0.4-0.1-0.7-0.2-1.1L1574.3,517.6 M1575.5,515.7l-21.9,4.2c0.1,0.9,0.2,1.8,0.4,2.7c2.1,11.2,8.2,19.5,14,19.5
				c0.4,0,0.7,0,1.1-0.1c6.1-1.2,9.2-11.7,7-23.6C1575.9,517.5,1575.7,516.6,1575.5,515.7L1575.5,515.7z"/>
		</g>
		<g>
			<path d="M1558.8,470.3c3.5,0,11.7,6.8,14.4,22.6c0.8,4.6,0.4,10.9,0.2,15.5c0,0.8-0.1,1.6-0.1,2.3l-19.5,3.7
				c-1.6-4.2-3.2-10.4-4-14.7c-3.1-16.6,3-27.9,8.4-29.4C1558.4,470.4,1558.6,470.3,1558.8,470.3 M1558.8,468.8c-0.4,0-0.7,0-1,0.1
				c-6.8,1.9-12.7,14.5-9.5,31.2c1,5.2,2.9,12.1,4.6,16.2l22-4.2c0.1-4.4,1-13.3,0-19.4C1572,477,1563.7,468.8,1558.8,468.8
				L1558.8,468.8z"/>
		</g>
	</g>
	<g>
		<g>
			<path d="M1620.2,522.4c0.2,0.3,0.3,0.7,0.4,1c2.1,5.2,3,10.5,2.6,14.8c-0.4,3.9-1.8,6.7-4,7.6c-0.5,0.2-1.1,0.3-1.7,0.3
				c-4.9,0-11.3-6.7-14.9-15.5c-0.1-0.3-0.3-0.7-0.4-1L1620.2,522.4 M1621.1,520.4l-20.7,8.4c0.3,0.8,0.6,1.7,0.9,2.5
				c4,9.8,10.8,16.5,16.3,16.5c0.8,0,1.6-0.1,2.3-0.4c5.8-2.3,6.7-13.3,2.2-24.5C1621.8,522,1621.4,521.2,1621.1,520.4L1621.1,520.4
				z"/>
		</g>
		<g>
			<path d="M1591.4,481.3L1591.4,481.3c6.6,0,16.3,6.3,21.9,20.2c1.7,4.1,3.7,10.2,4.6,14.6l-18.3,7.4c-2-2.9-7.2-10.7-9.7-15.2
				c-5.5-10-4.9-18.8-2.5-23.8c1.1-2.1,2.2-3,2.7-3.1C1590.5,481.3,1591,481.3,1591.4,481.3 M1591.4,479.7c-0.5,0-1,0-1.5,0.1
				c-4,0.6-10.2,13.3-1.4,29.2c2.5,4.6,8,12.7,10.5,16.3l20.7-8.4c-0.7-4.4-2.9-11.2-4.9-16.1
				C1608.9,486.2,1598.4,479.7,1591.4,479.7L1591.4,479.7z"/>
		</g>
	</g>
</g>
<g>
	<g>
		<g>
			<path d="M596.3,137.6c0.1,0.4,0.2,0.7,0.2,1.1c2.1,10.8-0.6,20.8-5.7,21.7c-0.3,0.1-0.5,0.1-0.8,0.1c-5,0-10.6-8.2-12.5-18.2
				c-0.1-0.4-0.1-0.7-0.2-1.1L596.3,137.6 M597.5,135.7l-21.9,4.2c0.1,0.9,0.2,1.8,0.4,2.7c2.1,11.2,8.2,19.5,14,19.5
				c0.4,0,0.7,0,1.1-0.1c6.1-1.2,9.2-11.7,7-23.6C597.9,137.5,597.7,136.6,597.5,135.7L597.5,135.7z"/>
		</g>
		<g>
			<path d="M580.8,90.3c3.5,0,11.7,6.8,14.4,22.6c0.8,4.6,0.4,10.9,0.2,15.5c0,0.8-0.1,1.6-0.1,2.3l-19.5,3.7
				c-1.6-4.2-3.2-10.4-4-14.7c-3.1-16.6,3-27.9,8.4-29.4C580.4,90.4,580.6,90.3,580.8,90.3 M580.8,88.8c-0.4,0-0.7,0-1,0.1
				c-6.8,1.9-12.7,14.5-9.5,31.2c1,5.2,2.9,12.1,4.6,16.2l22-4.2c0.1-4.4,1-13.3,0-19.4C594,97,585.7,88.8,580.8,88.8L580.8,88.8z"
				/>
		</g>
	</g>
	<g>
		<g>
			<path d="M642.2,142.4c0.2,0.3,0.3,0.7,0.4,1c2.1,5.2,3,10.5,2.6,14.8c-0.4,3.9-1.8,6.7-4,7.6c-0.5,0.2-1.1,0.3-1.7,0.3
				c-4.9,0-11.3-6.7-14.9-15.5c-0.1-0.3-0.3-0.7-0.4-1L642.2,142.4 M643.1,140.4l-20.7,8.4c0.3,0.8,0.6,1.7,0.9,2.5
				c4,9.8,10.8,16.5,16.3,16.5c0.8,0,1.6-0.1,2.3-0.4c5.8-2.3,6.7-13.3,2.2-24.5C643.8,142,643.4,141.2,643.1,140.4L643.1,140.4z"/>
		</g>
		<g>
			<path d="M613.4,101.3L613.4,101.3c6.6,0,16.3,6.3,21.9,20.2c1.7,4.1,3.7,10.2,4.6,14.6l-18.3,7.4c-2-2.9-7.2-10.7-9.7-15.2
				c-5.5-10-4.9-18.8-2.5-23.8c1.1-2.1,2.2-3,2.7-3.1C612.5,101.3,613,101.3,613.4,101.3 M613.4,99.7c-0.5,0-1,0-1.5,0.1
				c-4,0.6-10.2,13.3-1.4,29.2c2.5,4.6,8,12.7,10.5,16.3l20.7-8.4c-0.7-4.4-2.9-11.2-4.9-16.1C630.9,106.2,620.4,99.7,613.4,99.7
				L613.4,99.7z"/>
		</g>
	</g>
</g>
</svg>
