<svg id="Lag_4" data-name="Lag 4" xmlns="http://www.w3.org/2000/svg" viewBox="0 0 150.40999 188.56378"><defs><style>.cls-1{fill:#fff;stroke:#000;stroke-miterlimit:10;stroke-width:1.5px;}</style></defs><title>fyn</title><g id="Lag_2" data-name="Lag 2"><path class="cls-1" d="M83.44007,165.10578c3.25085,3.62146,3.465,5.98157,7,8,1.95447,1.116,2.12006.52649,5,2,4.34869,2.225,4.82312,4.00513,7,4,2.89874-.00684,3.52881-3.16675,6-3,3.27686.22113,6.34625,6.05927,5,8-.15765.22729-.44318.49811-3,1-4.29651.84332-4.7569.32721-6,1-2.67926,1.45013-2.40479,4.85712-4,5-1.18085.10577-2.16217-1.68671-3-3-2.33636-3.66235-2.87439-2.52844-9-9a99.9629,99.9629,0,0,1-9-11c-2.3623-3.35333-5.8053-8.24066-5-9C75.20233,158.387,79.9408,161.20753,83.44007,165.10578Zm60-10c-4.2171,3.23224-11.567,7.20294-11,12,.39093,3.30713,4.24927,4.509,4,8-.24438,3.42285-4.21216,5.88886-6,7-4.886,3.03674-8.5332,2.241-9,4-.5174,1.94958,3.75049,3.72784,8,8,7.25433,7.293,6.584,13.94031,9,14,4.7146.11646,5.62817-25.238,16-53a123.6701,123.6701,0,0,0,5-17c2.28094-10.3988,3.16528-20.74109,2-21C159.627,116.703,160.11426,142.32557,143.44007,155.10578Zm-23-106c-3.74316,8.70422-16.82379,13.11316-20,10-1.7392-1.70468-1.166-6.30893,1-8,1.90436-1.48676,4.29675-.14148,6-2a4.55923,4.55923,0,0,0,1-4c-.58136-2.31226-3.10382-2.7532-3-4,.13324-1.59961,5.77216-1.45568,5-3-2-4-23.97546-18.12308-25-17-1.039,1.13892,3.63116,5.406,2,8-.97516,1.55078-3.88025,2.0495-5,1-1.46826-1.37613,1.32784-4.67216,0-6-3-3-19,7-30,12-3.75781,1.7081-5.11938,6.72046-10,8-3.78772.993-8.75238.46039-10-2-1.09058-2.15076,1.30084-4.50931,0-6-1.25049-1.433-4.59326-.55182-6,0a6.832,6.832,0,0,0-3,2c-1.22687,1.4996-.74854,2.499-2,4a7.13457,7.13457,0,0,1-3,2c-2.80646,1.14246-4.33948.0535-5,1-1.36536,1.95645.9928,6.42221,4,9,3.52222,3.01926,6,2,8,4,1.56019,1.56019,2.98816,2.55835,4,6,1.2215,4.15485.68469,7.15137,0,8-.72974.90442-3.65594-1.204-5,0-.87152.7807-.92194,2.81433,0,4,1.8313,2.3551,6.18567-.32477,9,2,1.25012,1.03265,1.51709,3.03583,2,7,.82294,6.75549-.396,8.244,1,12a16.93309,16.93309,0,0,0,4,6c3.30322,3.416,4.85834,2.56311,9,6,4.1217,3.42035,4.40051,5.77441,7,6,2.69263.2337,3.36505-2.20782,6-2,3.50372.27631,6.45337,4.91949,7,9,.21381,1.59583.56653,4.22906-1,6-2.7063,3.05933-8.25519.28314-10,3-.99121,1.5434-.35645,4.23938,1,5,1.7829.99976,3.57373-2.0387,7-2,4.69885.0531,7.35736,5.83594,9,5,1.68781-.85889-.67371-7.19019,1-8,.64911-.314,1.49573.40039,6,4,4.04041,3.22894,4.73053,3.75006,6,4,2.51459.49512,3.05658-.90967,6-1,3.0929-.09491,3.78143,1.41663,10,4,4.47266,1.858,6.75476,2.7713,9,2,2.26935-.7796,2.05731-2.25867,5-4,.614-.36334,2.63086-1.48694,8-2,6.99646-.66858,7.56689.85754,10,0,5.06519-1.78528,6.47931-9.769,9-24,1.17462-6.63159,1.7467-10.00848,1-13-1.49847-6.0033-5.54736-9.34241-4-13,.96014-2.26953,2.84113-1.74512,4-4,2.21741-4.31458-1.89093-11.64038-6-16-4.58032-4.85962-8.25952-5.0766-10-10-.35638-1.00812-1.43073-4.04712,0-6,1.65558-2.25977,5.36169-1.28571,6-3,.48206-1.29468-1.323-2.67932-3-5-2.71722-3.76019-2.14874-5.89633-4-11-2.233-6.156-6.49188-12.50906-8-12-1.30945.442.15894,5.81958,0,18C121.37122,44.3823,121.31885,47.06227,120.44007,49.10578Z" transform="translate(-12.29308 -20.29241)"/></g></svg>