<?xml version="1.0" encoding="utf-8"?>
<!-- Generator: Adobe Illustrator 21.1.0, SVG Export Plug-In . SVG Version: 6.00 Build 0)  -->
<svg version="1.1" id="Layer_1" xmlns="http://www.w3.org/2000/svg" xmlns:xlink="http://www.w3.org/1999/xlink" x="0px" y="0px"
	 width="727px" height="467.3572px" viewBox="0 0 727 467.3572" style="enable-background:new 0 0 727 467.3572;"
	 xml:space="preserve">
<style type="text/css">
	.st0{fill:#E5E5E5;}
	.st1{fill:#E24040;stroke:#991C2B;stroke-width:0.3246;stroke-miterlimit:10;}
	.st2{fill:#E22B2B;stroke:#991C2B;stroke-width:0.3246;stroke-miterlimit:10;}
	.st3{fill:#760000;stroke:#991C2B;stroke-width:0.3246;stroke-miterlimit:10;}
</style>
<g id="Gul_boks">
	<g>
		<path class="st0" d="M698.8032,467.3572H28.1968C12.6241,467.3572,0,454.733,0,439.1604V28.1968C0,12.6242,12.6241,0,28.1968,0
			h670.6064C714.3759,0,727,12.6242,727,28.1968v410.9635C727,454.733,714.3759,467.3572,698.8032,467.3572z"/>
	</g>
	<polyline class="st1" points="388.1661,467.357 323.2554,467.357 323.2554,-0.0001 388.1661,-0.0001 388.1661,467.357 	"/>
</g>
<g id="Sløjfe">
	<g>
		<path class="st1" d="M271.9567,256.9539L0,255.7482V193.434l121.6758-0.642L727,193.434v64.9107l-280.4008,0.3599
			c0,0,88.5767,72.3069,96.0146,101.5044l-58.1699-18.6656c0,0,5.9832,39.1349,5.4507,66.7753L373.6155,258.5616l-25.5709,1.332
			L219.4943,404.653l6.4537-65.4231l-58.2926,16.8428C167.6555,356.0727,189.4151,319.4373,271.9567,256.9539z"/>
		<path class="st2" d="M201.8817,142.2643c0,0,27.5581-38.9098,75.0531,2.0074c0,0,45.6305,42.9867,55.5679,44.4414l5.696-4.2414
			c0,0,18.6251,16.7808,39.5448,1.8848l6.2084,5.5936c0,0,2.0695,1.8645,54.9936-42.3112c0,0,45.0562-43.7659,72.8812-1.8241
			l10.8191,94.1083c0,0-45.5685,33.931-137.9969,1.2713l-3.5241,8.0729l-8.0729-3.5241c0,0-16.0433-5.0813-37.3729,1.9468
			l-2.2744-5.7985c0,0-85.2157,30.0792-138.5092-8.5637L201.8817,142.2643z"/>
		<path class="st3" d="M333.0973,237.9904l0.3074,5.901c0,0-83.2487,29.9768-138.5092-8.5637c0,0,48.5601-14.3635,82.8187-0.3694
			C277.7141,234.9583,311.6653,243.0515,333.0973,237.9904z"/>
		<path class="st3" d="M382.4771,239.3629l2.1719,3.8315c0,0,82.4911,31.205,137.9969-1.2713c0,0-28.5625-18.2355-94.8255-2.9498
			C427.8204,238.9732,394.4839,242.6821,382.4771,239.3629z"/>
		<path class="st2" d="M332.5028,188.7131l0.5945,49.2773l0.3074,5.901l2.2744,5.7985c0,0,29.0951-9.4049,45.4458,1.5774
			l3.5241-8.0729l-2.1719-3.8315l1.4749-47.4128l-6.2084-5.5936c0,0-18.9527,14.7936-39.5448-1.8848L332.5028,188.7131z"/>
	</g>
</g>
</svg>
