<?xml version="1.0" encoding="utf-8"?>
<!-- Generator: Adobe Illustrator 21.1.0, SVG Export Plug-In . SVG Version: 6.00 Build 0)  -->
<svg version="1.1" xmlns="http://www.w3.org/2000/svg" xmlns:xlink="http://www.w3.org/1999/xlink" x="0px" y="0px"
	 viewBox="0 0 1268 1426" style="enable-background:new 0 0 1268 1426;" xml:space="preserve">
<style type="text/css">
	.st0{fill:#E5E5E5;}
	.st1{fill:#E24040;stroke:#991C2B;stroke-width:0.3246;stroke-miterlimit:10;}
	.st2{fill:#E22B2B;stroke:#991C2B;stroke-width:0.3246;stroke-miterlimit:10;}
	.st3{fill:#760000;stroke:#991C2B;stroke-width:0.3246;stroke-miterlimit:10;}
	.st4{fill:#E5E5E5;stroke:#000000;stroke-width:3.1046;stroke-miterlimit:10;}
	.st5{stroke:#000000;stroke-width:0.8353;stroke-miterlimit:10;}
	.st6{fill:none;stroke:#000000;stroke-width:0.8353;stroke-miterlimit:10;}
	.st7{fill:none;stroke:#000000;stroke-width:1.6707;stroke-miterlimit:10;}
	.st8{font-family:'Roboto-Regular';}
	.st9{font-size:65.992px;}
	.st10{stroke:#000000;stroke-width:2.506;stroke-miterlimit:10;}
	.st11{font-family:'Arial-Black';}
	.st12{font-size:90.2169px;}
	.st13{font-size:45.9438px;}
</style>
<g id="Gul_boks">
	<g>
		<path class="st0" d="M698.8032,467.3572H28.1968C12.6241,467.3572,0,454.733,0,439.1604V28.1968C0,12.6242,12.6241,0,28.1968,0
			h670.6064C714.3759,0,727,12.6242,727,28.1968v410.9635C727,454.733,714.3759,467.3572,698.8032,467.3572z"/>
	</g>
	<polyline class="st1" points="388.1661,467.357 323.2554,467.357 323.2554,-0.0001 388.1661,-0.0001 388.1661,467.357 	"/>
</g>
<g id="Sløjfe">
	<g>
		<path class="st1" d="M271.9567,256.9539L0,255.7482V193.434l121.6758-0.642L727,193.434v64.9107l-280.4008,0.3599
			c0,0,88.5767,72.3069,96.0146,101.5044l-58.1699-18.6656c0,0,5.9832,39.1349,5.4507,66.7753L373.6155,258.5616l-25.5709,1.332
			L219.4943,404.653l6.4537-65.4231l-58.2926,16.8428C167.6555,356.0727,189.4151,319.4373,271.9567,256.9539z"/>
		<path class="st2" d="M201.8817,142.2643c0,0,27.5581-38.9098,75.0531,2.0074c0,0,45.6305,42.9867,55.5679,44.4414l5.696-4.2414
			c0,0,18.6251,16.7808,39.5448,1.8848l6.2084,5.5936c0,0,2.0695,1.8645,54.9936-42.3112c0,0,45.0562-43.7659,72.8812-1.8241
			l10.8191,94.1083c0,0-45.5685,33.931-137.9969,1.2713l-3.5241,8.0729l-8.0729-3.5241c0,0-16.0433-5.0813-37.3729,1.9468
			l-2.2744-5.7985c0,0-85.2157,30.0792-138.5092-8.5637L201.8817,142.2643z"/>
		<path class="st3" d="M333.0973,237.9904l0.3074,5.901c0,0-83.2487,29.9768-138.5092-8.5637c0,0,48.5601-14.3635,82.8187-0.3694
			C277.7141,234.9583,311.6653,243.0515,333.0973,237.9904z"/>
		<path class="st3" d="M382.4771,239.3629l2.1719,3.8315c0,0,82.4911,31.205,137.9969-1.2713c0,0-28.5625-18.2355-94.8255-2.9498
			C427.8204,238.9732,394.4839,242.6821,382.4771,239.3629z"/>
		<path class="st2" d="M332.5028,188.7131l0.5945,49.2773l0.3074,5.901l2.2744,5.7985c0,0,29.0951-9.4049,45.4458,1.5774
			l3.5241-8.0729l-2.1719-3.8315l1.4749-47.4128l-6.2084-5.5936c0,0-18.9527,14.7936-39.5448-1.8848L332.5028,188.7131z"/>
	</g>
</g>
<g id="Gavekort">
	<path class="st4" d="M930.757,499.6243l-249.6973,63.6413L596.4379,705.778L776.4354,1412l477.5836-121.7235l-179.8057-705.4699
		L930.757,499.6243z M844.6299,683.3692c-16.615,4.2347-33.5169-5.8015-37.7516-22.4164
		c-4.2347-16.6149,5.8014-33.5168,22.4163-37.7516c16.615-4.2347,33.517,5.8015,37.7516,22.4164
		S861.2449,679.1345,844.6299,683.3692z"/>
	<g id="Netto">
		<g>
			<path class="st5" d="M726.353,884.0406l68.3421,58.4415c0,0,4.0789,5.8568-0.9684,9.7293l-50.1868,12.7913
				c0,0-6.5867-0.4763-0.5552-10.6341c0,0,0.8094-0.2063,0.1905-2.6347l-8.2524-32.3785c0,0-5.0947-6.46-8.2852,4.6978
				l-2.0316-1.2063l-1.2063,2.0316l-1.2379-4.8568l-4.8568,1.2379l1.2379,4.8568l-2.4126,4.0631l-1.841-3.841l-3.0157,5.0789
				c0,0-5.1262-13.3483-7.1578-14.5546c0,0-2.2379-2.0157,0.5873-4.46l8.8884-5.7136c0,0,1.6189-0.4127-3.0474-1.8094
				c0,0-0.6189-2.4284,5.6663-1.4442l-2.2379-2.0157l6.0789,0.1747l-1.4284-2.2221l2.6347,0.1906c0,0,4.8726,2.2063-0.6505-9.3167
				c0,0-1.6347-3.0316,6.6978,2.6031C727.3051,892.8495,723.8136,882.5328,726.353,884.0406z"/>
			<path class="st6" d="M718.3209,921.8627l2.8884,11.3325l-10.5231,2.6821l4.9515,19.4271c0,0,1.841,3.841,4.8726,2.2063
				l16.9987-4.3326c0,0,3.2379-0.8252,2.4127-4.063l-4.9515-19.4271l-10.523,2.682l-2.8884-11.3325L718.3209,921.8627z"/>
			<polygon class="st5" points="755.8262,904.9763 751.2874,887.168 778.8092,880.1534 803.8225,900.5017 797.4268,875.4083 
				826.5675,867.9811 844.5166,938.4044 816.9948,945.419 790.1563,924.674 792.8383,935.197 			"/>
			<polygon class="st5" points="831.4243,866.7432 880.8016,854.1583 884.9278,870.3475 863.0723,875.918 865.3417,884.822 
				885.5783,879.6642 890.1171,897.4725 869.8806,902.6302 871.9437,910.7249 893.7992,905.1545 898.7507,924.5816 
				849.3734,937.1666 			"/>
			<polygon class="st5" points="884.8489,853.1267 889.8004,872.5538 903.5613,869.0466 916.5588,920.0428 941.6522,913.6471 
				928.861,863.4604 942.6218,859.9531 937.4641,839.7165 			"/>
			<polygon class="st5" points="941.5114,838.6849 994.936,825.0684 999.8875,844.4955 984.5076,848.4155 997.5052,899.4117 
				973.2213,905.601 960.4301,855.4142 946.6691,858.9215 			"/>
			<path class="st5" d="M1035.9966,810.2929c-21.9058,5.5832-35.1377,27.8673-29.5545,49.7729
				c5.5831,21.9057,27.8672,35.1377,49.7729,29.5545c21.9058-5.5832,35.1377-27.8673,29.5546-49.7729
				C1080.1863,817.9417,1057.9022,804.7097,1035.9966,810.2929z M1049.2004,862.0986c-6.7058,1.7092-13.5275-2.3415-15.2366-9.0472
				c-1.7092-6.7059,2.3414-13.5275,9.0472-15.2366c6.7058-1.7092,13.5275,2.3414,15.2366,9.0473
				C1059.9569,853.5677,1055.9062,860.3895,1049.2004,862.0986z"/>
			<line class="st6" x1="736.208" y1="934.5447" x2="711.9241" y2="940.7341"/>
			<line class="st6" x1="738.8901" y1="945.0677" x2="735.0806" y2="953.7971"/>
			<line class="st6" x1="737.4459" y1="939.4016" x2="730.2238" y2="955.035"/>
			<line class="st6" x1="735.3986" y1="934.751" x2="724.5576" y2="956.4792"/>
			<line class="st6" x1="729.7323" y1="936.1953" x2="718.8914" y2="957.9233"/>
			<line class="st6" x1="724.066" y1="937.6394" x2="715.2251" y2="953.6855"/>
			<line class="st6" x1="718.3998" y1="939.0836" x2="713.5746" y2="947.2098"/>
			<line class="st6" x1="736.6838" y1="949.9403" x2="739.5248" y2="950.9403"/>
			<line class="st6" x1="731.827" y1="951.1782" x2="735.4775" y2="951.9719"/>
			<line class="st6" x1="734.0333" y1="946.3057" x2="737.6838" y2="947.0993"/>
			<line class="st6" x1="726.3671" y1="953.4318" x2="730.827" y2="954.0192"/>
			<line class="st6" x1="729.1765" y1="947.5435" x2="733.6364" y2="948.1309"/>
			<line class="st6" x1="732.5891" y1="940.6394" x2="736.2396" y2="941.4331"/>
			<line class="st6" x1="729.1292" y1="937.211" x2="733.7954" y2="938.6078"/>
			<line class="st6" x1="726.9229" y1="942.0836" x2="730.7797" y2="943.6867"/>
			<line class="st6" x1="723.5103" y1="948.9877" x2="728.1765" y2="950.3845"/>
			<line class="st6" x1="720.0977" y1="955.8918" x2="725.3671" y2="956.2728"/>
			<line class="st6" x1="716.4314" y1="951.6539" x2="721.9071" y2="952.8445"/>
			<line class="st6" x1="720.6534" y1="944.5435" x2="725.3197" y2="945.9404"/>
			<line class="st6" x1="724.066" y1="937.6394" x2="727.9229" y2="939.2426"/>
			<line class="st6" x1="714.1777" y1="946.194" x2="718.844" y2="947.5908"/>
			<line class="st6" x1="717.7966" y1="940.0994" x2="722.4629" y2="941.4962"/>
			<line class="st6" x1="711.9241" y1="940.7341" x2="715.9872" y2="943.1467"/>
		</g>
	</g>
	<line class="st7" x1="784.5875" y1="1331.0833" x2="1208.7465" y2="1222.9763"/>
	<line class="st7" x1="703.653" y1="1014.8231" x2="1127.8119" y2="906.7161"/>
	<text transform="matrix(0.969 -0.247 0.247 0.969 718.775 862.9165)" class="st8 st9">Gavekort til</text>
	<text transform="matrix(0.969 -0.247 0.247 0.969 821.3758 1153.1375)" class="st8 st9">Værdi på:</text>
	<text transform="matrix(0.969 -0.247 0.247 0.969 786.9127 1268.3702)"><tspan x="0" y="0" class="st10 st11 st12">5</tspan><tspan x="60.1738" y="0" class="st10 st11 st13">.</tspan><tspan x="75.4736" y="0" class="st10 st11 st12">000 kr</tspan><tspan x="386.2988" y="0" class="st10 st11 st13">.</tspan></text>
	<path class="st4" d="M740.8555,487.7551"/>
	<path class="st7" d="M821.3759,626.4327c0,0-34.5766-76.8623-80.5204-130.3242c-37.0348-43.095-116.9498-90.5323-146.55-107.3091
		c-6.2978-3.5695-12.7848-6.7778-19.431-9.647C547.6655,367.406,457.2123,324.3265,385,243"/>
	<line class="st7" x1="821.0483" y1="626.4218" x2="769.2571" y2="540.3817"/>
</g>
</svg>
