<svg id="Lag_4" data-name="Lag 4" xmlns="http://www.w3.org/2000/svg" viewBox="0 0 420.10603 619.61656"><defs><style>.cls-1{fill:#fff;stroke:#000;stroke-miterlimit:10;stroke-width:1.5px;}</style></defs><title>jylland</title><g id="Lag_2" data-name="Lag 2"><path class="cls-1" d="M35.36461,233.54255c-.20529,3.71692-1.78735,5.36533-1,9a7.62049,7.62049,0,0,0,2,4c.91916.89874,1.67575,1.069,4,2,2.99344,1.19907,6.10608,2.66629,6,3-.10052.31619-2.87921-1.05151-4,0-1.87027,1.75467,1.9122,9.27374,3,9,.66049-.1662-.52948-2.98972,1-5,2.6861-3.53043,11.22293-1.21841,12-1,7.34668,2.06494,11.79645,7.09988,13,6,.81406-.74393-.86926-3.36945,0-4,.87231-.63275,3.344,1.44778,4,2,1.72574,1.45264,4.22147,3.55341,4,6-.10345,1.14294-.75485,1.86389-3,4-5.32233,5.06384-7.274,6.35208-7,7,.35083.8295,3.87488-.51279,9-1,9.26563-.8808,11.96692,2.15466,15,0,3.93365-2.79446,3.56073-10.863,2-16-2.4541-8.07739-9.02087-12.77725-8-14,.6842-.81949,3.206,1.804,6,1,5.05164-1.45367,3.62866-11.99261,9-14,3.33356-1.24583,6.09564,1.98605,9,0,1.74725-1.19481,2.77979-3.75415,2-5-1.26678-2.0238-6.41376.85986-8-1-2.16174-2.53465,2.993-13.05568,12-18,2.10675-1.15648,8.49329-4.66234,14-2,2.86322,1.38429,4.22729,3.8264,6,7,1.88043,3.36652,5.02228,8.99132,4,15-1.25336,7.367-7.37054,7.10684-11,16-3.05347,7.4819-2.24756,16.30045,0,17,.99414.30942,2.19336-.99359,4-3,5.43683-6.03815,4.31091-9.38574,8-12a12.865,12.865,0,0,1,12-1c2.88763,1.3241,3.56256,3.36484,5,3,2.25977-.57358,3.481-6.35052,2-11-.24554-.7709-2.14447-6.468-6-7-4.78967-.66084-8.56891,7.2057-11,6-1.07739-.53433-1.34424-2.5798-1-4,.7337-3.027,2.65417-4.42467,6-6,6.959-3.27654,3.125-8.27609,0-9-4.26965-.98907-3.59412-3.96548-4-7-.36438-2.72414.906-3.23848,2-8a18.80539,18.80539,0,0,0,0-8c-.91357-4.0876-3.78564-4.61409-3-7,1.22349-3.71563,9.644-8.24678,11.65272-12.90432a4.32842,4.32842,0,0,1,1.80794-1.9716c3.1753-1.87777,10.727-6.19586,14.53934-7.12408,5.68951-1.38528,9.88757-2.34412,13,0,2.20758,1.6626,3.13934,4.43724,4,7,1.74658,5.20082,1.05731,10.839,2,11,.74615.12747,1.42633-4.1097,4-9,1.87726-3.567,3.90851-3.12369,6-7,3.804-7.05032,3.39807-7.95605,5-9,2.33551-1.522,2.22321-.26466,10,1,8.61261,1.40059,12,1,14,0,.89441-.44722,9-7,10-5,.4472.89442,26,21,34,20,5.78595-.72324-7,34-1,42-.0167.12064-.01465.73884-.0096,1.43461a1.71851,1.71851,0,0,0,1.43926,1.67511,9.4502,9.4502,0,0,1,2.57034.89027,2.24415,2.24415,0,0,1,1.6983,1.08018c.91956,1.57768-1.6983,2.91972-1.6983,2.91972.01605.936,1.26514,3.83124,0,4.00009-10.01678,1.33693-18,1-19,4-.107.32094,2.65979,3.033,6,3,4.61719-.04564,5.31244-3.00533,8-3,3.9599.00784,6.06689,2.24088,8,8,.53577,1.59619,2.41437,4.57346-1,7-2.30457,1.63782-4.84973,1.82623-5,3-.14844,1.15927,3.23688,1.72818,4,3,3,5,5,16,16,16,25.17938,0,30-9,39-4,3.37164,1.87311,4.57971.686,6,4,3,7,11.69513,12.65952,11,15-.49963,1.68228-.93433,1.12491-3,3-4.09692,3.71887,2,13-3,21-.317.50711-9,14-12,18-2.22125,2.96164-5.57349,1.52884-7,4-2.06189,3.57178,1.06024,6.9227-1,12-.93964,2.31567-4.12018,5.75964-5,4-1-2-4.42377-3.93329-4-8,.47516-4.55948,5-2,3-8-.642-1.92587-6.57806-1.824-10,1-3.85907,3.18472.06409,11.46036-5,11-11-1-18,2-19,1-2.82843-2.82843-1-4-4-7-1-1,6.564-2.05887,9-2,3.665.08859,5.44067.85016,6,0,1.0083-1.53268-4.05774-5.07983-3-8,.84912-2.34433,6.44952-2.34854,7-4,1-3-1-2-5-3-3.21606-.804-3.97357-3.01688-5-3-1.69482.02786-1.887,1.338-5,3-2.83917,1.51584-3.54785.8898-5,2-2.3338,1.78424-1.59924,4.23917-3,8-1.67725,4.50311-3.97815,4.33365-8,10-2.96887,4.1828-5.1142,8.21457-4,11,2,5,4.9809,7.79724,6,17,.47266,4.26822-.97656,3.5029-1,10-.03766,10.435,3.69409,14.24368,1,18-2.21405,3.087-4,5-6,6-1.60291.80145-.38727,2.67157-1,5-.43591,1.65643-1.67346,4.00293-3,4-1.92554-.00424-2-7-5-8-6.67993-2.22662-18.26184.409-19,2-.50531,1.08911-.076,2.16168-1,3-1.791,1.62494-5.72992.10733-6,0-2.38806-.949-2.74127-2.1691-4-2-1.75934.23636-3.48517,2.94452-3,5,.66962,2.837,5.37921,3.70224,7,4,4.46185.81973,5.67841-.83969,10,0,.86084.16727,6.44653,1.25256,7,4,.675,3.351-6.73389,6.208-6,9,.73785,2.80719,8.88,2.40137,9,4,.14166,1.88687-11.11237,3.63486-11,6,.067,1.41055,5.132,2.09583,5,3-.11316.77539-4.187.85028-6,1-9.93005.82-11.70557,6.3342-20,6-1.73059-.06973-5.85309-.23584-8-3-1.15314-1.48465-.78326-2.4917-2-4-1.90759-2.36475-5.09924-1.71872-8-2-5.29248-.51321-11.87006-.597-12,1-.07959.978,2.2829,1.91843,5,3,4.8847,1.94443,6.34558,1.224,10,3,2.06458,1.00333,5.70642,2.2872,7,5,1.51416,3.17532-1.30865,5.18414,0,7,2.54242,3.52786,14.416-1.35992,13,1-6,10-17,20-25,21-3.50739.43842-8.8252-2.478-9-2-.12573.34375,4.47791,2.82861,3,4-3.14954,2.49628-4.90228,1.17188-5,2-.00543.04626,0,0,0,1a8.49127,8.49127,0,0,0,2.00574.01422c-1.00574-.01422.39795.01108.99426-.01422,0,0,.86072-.0365,3,0,1.64636.02811,10.32147,1.65875,11,6,.37653,2.40881-2.5329,4.809-4,6-3.07587,2.49695-6.10663,1.22034-7,3-1.23785,2.46588,4.10571,5.863,3,9-1.05035,2.98-5,1-5,3,0,.57635,3.90826-.3653,6,2,1.69952,1.92181-.89673,4.58557,0,9,.926,4.55859,4.23853,4.39539,7,10,.81824,1.66064,3.89825,7.9118,1,13a9.95964,9.95964,0,0,1-8,5c-2.84882.05267-4.32812-3.67187-6-2-2,2-16,13-16,16,0,1.64209,5,0,8,0,2.4837,0,4.52991,5.67322,4,8-.6626,2.90948-.53485,6.41089-3,6-6-1-12.12207,2.19531-12,3,.19177,1.26422,6.01447,4.80554,11,2,5.09344-2.86627,5.9541-4.29749,9-4,6.1427.59991,6.87469,9.76636,14,11,3.50427.60669,4.80377-1.35474,7,0,3.81842,2.35541,5.26019,8.26019,8,11,1,1,3.831,1.252,3-2-.48187-1.88568-3.15167-2.881-6-8-1.98-3.55841-1.28333-4.99109-3-6-2.38074-1.39923-4.42706.9411-9,0-2.03455-.4187-4.92664-1.56049-5-3-.09125-1.79-2.76617-1.9-3-3-.29443-1.38544,4-2,3-4-.70428-1.40863.4223-2.21112,4-4,2-1,8.58051-2.30487,13,1,5.00128,3.73993,3.59387,7.84711,9,12,3.95245,3.03619,8,3,10,4,10.11926,5.05963,14.37347,23.4577,10,27-2.61066,2.1145-8.37946-.69073-9-1-5.76794-2.87451-6.54211-8.024-10-8-2.7995.01941-.54614,4.52673-6,5-2.541.22052-6.14-6.58008-7-4-2,6-6.57709,1.78918-8,1-7.65845-4.24744-10.62323-16.01459-14,0-.67816,3.21625-14.36725,12.3667-18.18243,15.51807a1.89609,1.89609,0,0,1-2.15049.02982c-1.55474-.95361-3.10877-3.04411-4.66707-2.54788-2.70264.86066-2.37946,3.9801-5,6-3.748,2.88892-11.25006,1.78076-14-2-1.85815-2.55463-.13159-4.384-2-7-1.43536-2.00964-3.70026-2.6745-12-4-11.62939-1.8573-10.8573-1.13886-13-2-7.02466-2.82306-9.22235-8.09259-13-7-2.37976.68829-2.91577,3.18677-5,3-2.342-.20984-2.559-3.4447-5-4-2.75037-.62567-4.04309,3.12439-8,4a10.89817,10.89817,0,0,1-11-5c-2.11914-3.93585,1.22089-6.59418,1-14-.22772-7.63464-3.86453-7.73261-4-14-.19522-9.03174,7.29871-11.53265,8-21,.40735-5.49945-4-8.40161-4-14,0-20,2.03046-45.62527-10-50-11-4-13.46448.53552-17-3-12-12-16.57468-29.42532-19-27-8,8-3,10,1,15,4.12061,5.15076,4.73648,13.23264,3,11-14-18-27.6153-10.22659-25-23,2.94055-14.36194,18.28641-27.13477,9-67-4.14-17.77246-2-85,2-90,1.20395-1.50494,9-1,10,1,1.41422,2.82843,2.17728,8.20285,3,8,.67474-.16638,5.7103-3.44846,5-7-1-5-13.429-9.84662-14-16-.35315-3.80533,2.44406-5.14792,1-7-1.48828-1.90878-5.84155.02728-7-2-4-7,6.47635-57.818,11-57C34.61388,225.76848,35.54726,230.23578,35.36461,233.54255Zm163,381c-.064.41071-.4184,2.99866,1,4,1.62323,1.14594,3.69849-1.106,6,0,1.72882.83075,1.45874,2.5343,3,3,1.77576.53656,4.466-1.02032,5-3,.782-2.899-3.30487-5.79773-5-7-1.74323-1.23639-3.12579-2.217-5-2A6.069,6.069,0,0,0,198.36461,614.54255Zm27,0c.13593.70367,1.17993.74347,4,2,2.8067,1.25055,2.57477,1.56854,4,2,2.88446.87311,6.53687.38879,7-1a1.87615,1.87615,0,0,0-1-2c-1.249-.6192-2.28754,1.08435-4,1-2.75378-.13562-3.21674-4.69592-6-5C227.35857,611.32338,225.14861,613.42457,225.36461,614.54255Zm-203-241c.43586,3.70484.97641,4.81583,3,13,2.58246,10.44443,1,19,3,19,1,0-.1424-2.249,2-5,.46887-.60208,1.64047-2.10648,3-2,2.531.19821,4.286,5.86749,3,7-.79849.70316-2.26489-.787-4,0-1.62988.73923-2.63779,3.09814-2,4,.98019,1.386,5.91714-.5708,7-1,3.433-1.36072,11.07932-4.39148,13-12,.22736-.9006,1.48273-5.87369-1-10-1.63165-2.71182-3.55261-2.85535-5-6-1.01117-2.19693-.65671-3.39377-1-7-.52762-5.54269-1.40469-9.00708-3-11C24.253,342.41527,20.36461,356.54255,22.36461,373.54255Zm9-35a10.86391,10.86391,0,0,1-2,2c-1.89578,1.72028-1.96381,1.82523-2,2-.29947,1.44574,2.316,4.10852,5,4,3.19122-.129,5.95428-4.15448,5-7-.76651-2.28555-3.9-3.71652-5-3C31.873,336.86278,32.11269,337.40016,31.36461,338.54255Zm174,30c-.016.25272.54474.45843,6,2,.70843.2002,2.11682.59558,4,1,2.83539.60892,4.05774.66077,5,0a5.25807,5.25807,0,0,0,1-1,3.52034,3.52034,0,0,0,1-2c.04236-.87814-.44318-1.9552-1-2-.64978-.05228-.71039,1.35617-2,2a4.176,4.176,0,0,1-3,0c-1.02026-.3024-1.13367-.65631-2-1-.98212-.38962-1.80524-.31915-4,0C207.0429,368.02559,205.38164,368.2726,205.36461,368.54255Zm-49-118c-.739-.26218-2.95679,2.21082-3,5-.01642,1.0603.6557,2.37354,2,5,1.78632,3.49014,2.43555,3.88638,3,4,.99774.20084,1.28119-.57178,3-1,2.59729-.64709,3.66583.68958,5,0,2.2088-1.14163,2.33905-6.38623,1-7-.82428-.37781-1.53094,1.3082-4,2-1.809.50684-4.57568.48331-6-1C155.20067,255.28892,157.29436,250.87239,156.36461,250.54255Zm74-8c.30865.14075.63092-.23755,1.64606-.99359a36.1651,36.1651,0,0,1,5.35394-3.00641,26.693,26.693,0,0,1,3.612-1.5733c.22729-.0775.7-.23483,1.388-.4267,3.006-.83835,3.5802-.51172,5-1,0,0,1.07147-.36848,5-4h0l4-2h0c-.00092-.00011-3.63525-2.87317-6-2-1.55536.5743-1.21594,2.27238-3,3-1.58862.64792-2.30878-.51457-4,0-1.9458.592-1.52142,2.29178-4,4a16.21208,16.21208,0,0,1-5,2c-1.85834.51617-2.32214.41557-3,1C229.66918,239.00429,229.60033,242.194,230.36461,242.54255Zm71,162c-2.54034,4.7847-2.17938,9.60477-2,12,.23383,3.12259.38812,5.18277,2,7a8.69677,8.69677,0,0,0,10,2,8.57038,8.57038,0,0,0,4-5c1.52441-5.24789-3.02924-9.10321-1-12,1.15533-1.64929,3.07111-1.02719,4-3,.79913-1.69727.34576-4.20651-1-5-1.38672-.81763-2.79425.73285-4,0-1.502-.9129.01312-3.72549-1-7-1.26349-4.08362-4.86163-3.723-7-8-2.26733-4.535-.13422-8.76532-1-9-1.23712-.33536-6.66663,8.01169-4,13,2.04333,3.82239,7.509,3.18192,8,6C308.81084,398.10347,304.348,398.92338,301.36461,404.54255Zm-6-60c-2.8385,2.29031-1.64368,9.03189,2,11a5.12293,5.12293,0,0,0,5,0c2.57788-1.63763,2.06189-5.53275,2-6a6.5781,6.5781,0,0,0-3-5C299.5371,343.48048,296.91692,343.29005,295.36461,344.54255Zm117-120c-.40356.468.78693,2.06657,3,5,2.13232,2.82643,2.592,3.0457,3,3,1.12195-.12569,1.05682-2.16655,3-5a13.14943,13.14943,0,0,1,4-4c2.88831-1.75082,5.14136-1.19476,6-3,.35461-.7455.39459-1.73224,0-2-.576-.39087-1.5932,1.07938-4,2-1.8891.72261-2.1731.16518-4,1a12.53353,12.53353,0,0,0-3,2c-1.43909,1.25549-1.27368,1.62044-2,2C416.06743,226.743,412.9605,223.8515,412.36461,224.54255Zm-74-116a5.942,5.942,0,0,0,2,6c1.91156,1.39468,3.39069-.08893,6,1,3.68671,1.53853,3.27264,5.55959,6,6,2.53247.409,5.93182-2.56676,6-5,.02448-.87288-.38678-1.42572,0-2,.6994-1.03845,2.55524.01048,4-1a4.11411,4.11411,0,0,0,1-5c-.90625-1.426-2.84552-1.12534-3-2-.16351-.92594,1.80969-2.39574,4-3,4.13837-1.14169,6.42383,1.53143,9,0,1.55762-.92595,2.52612-2.97562,2-4-.35315-.68753-1.31494-.78736-3-1-6.45758-.81487-5.44086-1.00288-7-1-1.04944.00194-2.60815.08914-9,2a84.79658,84.79658,0,0,0-9,3C341.82787,104.85748,339.04564,106.0655,338.36461,108.54255Zm-280,435c-.73074,2.371,1.01,3.31976,1,7a14.4685,14.4685,0,0,1-1,5c-.86642,2.37781-1.45633,2.2937-2,4-1.1716,3.677.58075,7.16547,1,8,.18893.3761,2.20749,4.31519,4,4,.77792-.13678.73511-.938,2-2,1.83984-1.54474,3.21841-.93091,4-2,.94125-1.28748-.486-2.96014-1-6a15.404,15.404,0,0,1,1-8c1.94687-5.3736,5.82217-6.91235,5-9-.51627-1.31085-2.56018-2.01434-4-2-1.972.01965-2.63416,1.384-4,1-1.69089-.4754-1.67258-2.84662-3-3C60.24007,540.41261,58.85372,541.9557,58.36461,543.54255Zm-15-58c-1.84528,1.55634-1.13367,5.03311,0,7,1.21274,2.104,2.45285,1.68982,4,4,1.23718,1.84735.71536,2.51721,2,6a58.52628,58.52628,0,0,0,3,6c3.03046,5.67889,3.53555,6.03827,4,6,1.17529-.0968,2.42664-2.7674,2-5-.33191-1.73688-1.43085-1.908-3-5-.89044-1.75464-1.50031-2.99689-1-4,.64185-1.28693,2.406-.76678,3-2,.52618-1.09247-.37976-2.49377-2-5-1.22318-1.892-1.71268-2.01636-2-2-1.04736.05969-1.48914,2.10809-2,2-.53427-.113-.02182-2.34735-1-5a5.57569,5.57569,0,0,0-2-3A4.437,4.437,0,0,0,43.36461,485.54255Zm22,40c-.59256.41534-.89056.60071-1,1a2.08112,2.08112,0,0,0,1,2,3.201,3.201,0,0,0,3,0c.82-.39825,2.25854-1.4989,2-3a2.44893,2.44893,0,0,0-2-2C67.74575,523.49714,67.73379,523.88185,65.36461,525.54255Zm150-457c-1.42853,2.57219-1.84015,3.83608-4,9-3.76617,9.00443-7.09949,16.12327-8,18a97.38917,97.38917,0,0,1-24,31c-7.94165,6.71506-12.79712,8.35048-15.80927,9.043a40.60656,40.60656,0,0,1-12.19073.957c-4.73346-.49913-10,0-20-3-5.21179-1.56354-8.84845-1.93637-11,0-10,9-12.2937,10.28227-21,11-9.76691.80516-19.36432-10.907-21-6-1,3-.22961,9.247-5,13-2.658,2.09117-4.19022.15726-7,3-2.21948,2.2455-1.41885,4.41885-3,6-4,4-25,34-27,47-.094.61116-1.35287,7.64758-1,10,.25165,1.6776,0,6,4,6,2.44849,0-2.22549-10.695,0-12,1.13-.66263,3.68726.9473,5,3,1.66953,2.61058,0,5,1,8,1.8439,5.53172,6.23679,11.45436,10,11,2.714-.32768,2.88354-4,6-4,2,0,8,5.37595,8,3,0-2,2.68143-5.33629,1-7-1.58209-1.56545-4.18689.494-6-1-1.99545-1.64424,0-5.86409,0-11,0-3,.49719-6.43645,2-7,8-3,15.3974-6.99416,16-12,.23572-1.95827-1.24365-3.73248,0-6a5.97475,5.97475,0,0,1,2-2c4.44861-3.351,1.21359-11,5-11,2,0,7.47461,3.64406,11,1,4-3,7.91357-14.35271,10-14,1.58105.26727.80841,7.39709,3,8,2.66223.73236,5.89374-9.21275,11-9,2.71643.11317,3.21741,2.98662,6,3,4.04852.01947,4.97052-6.05377,9-7,5.14282-1.20767,7.32257,12.55914,15,10,6-2,14-8,29-9,4.45453-.297,8.77972,1.71323,12-1,2.90613-2.44855,2.37817-6.1461,5-7,3.12537-1.01788,5.44922,3.7238,9,3,3.86169-.78717,3.343-6.85019,7-8,5.314-1.67078,10.9884,9.69115,17,8,3.26941-.91974,3.73535-4.8835,7-5,2.85992-.10205,5.085,2.84772,6,4,5.82257,7.33211,19.8313,18.98351,27,17,4.98114-1.37822,7.24213-9.50049,11-23,2.56885-9.22813,2.14-12.68575,6-17,4.39648-4.91391,8.3866-4.26616,11-9,1.09265-1.97919,1.04346-3.96262,0-15-1.312-13.87781-1.76971-19.58181-2-26-.16034-4.46926,4.2843-5.95422,2-9-6-8-18.04462-19.34377-15-30,2-7,13-24,26.092-29.4929.23315-.09781-.41827-.41087-1.092-.5071-1.38757-.19822-10.02734-2.37483-17.5,4.5-16.67072,15.337-25.5,25.5-39.5,26.5-10.37211.74087-10,0-16.96124-3.48942-4.81119-2.41168-3.70874,7.90376-12.03876,18.48942C220.6845,62.48994,218.96837,62.05377,215.36461,68.54255Zm-142,141c-2,2-2,7-2,8,0,.82834.65219,1.45071,2,3,.52179.59978,4,1,5,4,.92719,2.78151,6.09756-2.46635,7-2,.84879.43863-.28339,2.674-2,4-1.233.95239-3,0-3,1,0,0,3,8,5,8,5.831,0,10-1,13-4,1.4504-1.4504.09882-4.093,1-6,1.11993-2.36993,3-2,4-4a33.54127,33.54127,0,0,0,3-7c1.71088-5.2567,4.12317-5.20689,4-8-.14957-3.39174-3.465-8.005-4.61293-9.50613a1.56537,1.56537,0,0,1-.30944-1.16555c.17468-1.28879.68447-4.09041,1.92237-5.32831,3-3,7.41421,7.65685,6,2-1-4,2.49268-8.522,2-10-1-3,2-14-5-7-2.45062,2.45061-3.77191,6.51877-9,11-7,6-13.45288-.79715-16,3-1.218,1.8158.35388,2.94183-1,7-1.33218,3.99321-3.73016,5.52861-3,7,.84717,1.70718,6-1,5,2-.208.62405-.76865,1.78143-5,4C78.72088,207.90005,75.266,207.64113,73.36461,209.54255Zm40-18" transform="translate(-12.28974 -9.31089)"/></g></svg>