<svg id="Layer_1" data-name="Layer 1" xmlns="http://www.w3.org/2000/svg" viewBox="0 0 491.04102 514.708"><defs><style>.cls-1{fill:#3c3c3c;}</style></defs><title>kobenhavn</title><g id="Layer_4" data-name="Layer 4"><path class="cls-1" d="M158.947,513.97038l137.125,2.125,52.5625-34.6875s.7002-54.71869.03131-66.59369l16.01559,2.45309,44.50781-12.0235,5.00391,2.48831,19.50388-9.01172v-9l16-5v3l34-9.25,8.375-.75-10.4375-4.5s-5.46875-11.75-10.96875-15.25c0,0-3.98437-25.625-12.98437-35.625a18.02633,18.02633,0,0,1-2.99219-20.5625s-.42383-2.8428-9.49609-19.53119a36.47472,36.47472,0,0,0-8.498-17.51569l-17.999-37.50781s24.5004-20.50781,28.0004-25.00391c0,0-9.93829-12.3755-13.93829-11.3735,0,0-11.955,5.3647-16.06137,8.87061,0,0-11.49994-2.5005-14.49994-.5005s-5-7.0005,1-7.0005c0,0,8,1.5,13-5l10.5-2.5,3-8-17-19s9-9.5-5-6.5a35.24186,35.24186,0,0,1-16.5,1.5l-1,3.5,8.5,2s2.5,4.5-4,4l-8.5-7.5-.5,7,4,1s5,8-4.5,3.5l-1,8.5,8.5,2.5-.5,2.5-9-2-.75,4,1.14938.5,6.10062,2v3.5l-7.5-2.5-.75,2.5,5.875,1.5,5.81256,1.5s32.04684,86-59.95316,91c0,0-18.92871,1.2764-7.61719-3,12.00488.6221,39.8223-6.5596,44.12891-9,27.21878-15.4238,24.31445-44.8696,24.002-48-.9277-9.2856-.499-18.5-8.46585-28.8701-2.0625-2.6841-3.58542-3.6377-4.53271-.6299-1.82712,5.8018,1.50024,15.5-1.99976,18.5s-8.99988,1-8.99988,1-6.99994,11.5-5.99994,15.5-12,16.5-16.5,20.5c-5.083,4.51859-22,13.5-29.5,26.5s-29.5,37-29.5,37l-33,79.5a36.72152,36.72152,0,0,1-11.5,20.5c-10,9-23,24.5-27,26.5s-9.5,6-11.5,10.5S158.947,513.97038,158.947,513.97038Z" transform="translate(-1.03104 -1.38738)"/></g><g id="Layer_3" data-name="Layer 3"><path class="cls-1" d="M324.8923,48.40108s-8.0976-1.3394-12.0976,1.3266c-4,2.667.95059-12.1694-5.7164-22.8364,0,0-1.35641-6.7515-.02289-8.418s-16.1792-4.7109-19.5127-4.3774c0,0-1.8457-11.042-6.8457-12.7085v6.333l-6.583,1.167s-4.4165,30.833-2.75,37.833h-19.667v-4s-22-4.0005-26-3.3335v3.3335s-7.916,2.0151-9.916-10.6519c0,0,3.25-.3481-10.0835-6.3481H190.69705s-1.999,6.7407-13.666.1621-12.334,1.9629-26.667,31.9629c0,0-13.999-3.3955-21.999-.0625,0,0-6.33351-4.69825-9.33351-2.03175l-15-11.01562-6.66649.99219-9-7.67041-11.501-.33545L61.697,49.38638v4.334l-10.6655,10H34.697s-2.999,6.9165-19.3325,7.9165l-3,9.5415L1.031,91.78239l1.667,23.63574s.666,13.31787,23.333,17.98438c0,0,5.0005-5.34181,1.3335,30.32469l6.333,8.99609a21.51393,21.51393,0,0,1-1,11.66455,8.33521,8.33521,0,0,0,3,9.999l3.3335,29s4.333,1.33377,3.6665,9.66675,6,9.99988,6,9.99988l2,8.66693a37.649,37.649,0,0,0,3.6665,13.5l.667,4.5h9.666l-.666,28.25s2.66649,4.543-1,19.209,1.333,24.60352,10,30.27051c0,0,12.33449,7.30276,15.668,16.30273s2.33339,8.65137,5.33339,14.65137c0,0,1.9449,4.72168,9.3331,7.6582a102.12824,102.12824,0,0,0,17.333,17.99609,56.448,56.448,0,0,0,13.6674,24.664s-.3335,13.999,24.6665-3.001c0,0,4.16461-5.00049,14.33162-2.99948,0,0,20.00049-4.66724,22.667-3.66724s2,11.99887-1,21.33289,4,5.666,7.6665-.00006,29-27.333,29-27.333l-3.6665-4.667s-14.9111-2.79492-8.002-10.332c3.667-4,9.36578,2.07321,9.36578,2.07321l9.6362,8.25879s-2.0264-5.76071,7.999-17.666l5.334-6.334-15-9.666a16.12552,16.12552,0,0,1-4,8.666c-6.84232,7.63181-4.41992-2.833-4.0015-4.999,1.0415-5.39359-1.6665-5.333-3.21921-11.25781,0,0-.2988-11.33789,7.5542-7.40921,4.665,2.334-1.8721,8.3125.3335,7.333l10.333,7.667s4.334,3.667,7.667-.667l8.333-11.667s4.89938-4.74609-3.0112-8.60159a75.38587,75.38587,0,0,1-7.6568-4.06439l-5.4931,6.416s-4.5069,2.584,1.1626-4.082c4.19281-4.92969,1.36621-2.9209-1.3335-4.333-5.2691-2.75589-8.67041-5.9776-2.66953-4.001,10.77829,3.5498,2.89261.25879,21.3335,8.334l9.336-21.333s5.3335-7.001-3.6665-5.334-2.47861-2.9209.3335-4.333a8.83988,8.83988,0,0,1,7-.333l5-9s5-3.667-.3335-5.667,2.3335-5.333,2.3335-5.333,23.33249-17.668,33.33249-31.001l16.6665-12.667,2.66653-5.33392s15.66751-6.666,20.00052-21.33249l-4-1.999s18.94717-24.667,17.28119-40.3335c-1.66791-15.6665.05081-22.6665.05081-22.6665V128.72038s-4.583,5.0015-4.583,15.335a203.97357,203.97357,0,0,1-1.208,20.6665l-9.60449-1.333s8.69824-24.0005-.63474-24.667l-2.98437-5.6665,9.6738-1.3335,3.6709-4.6665-.665-4-14.332,3-.99951-6.6665s20.33325-6,26.00024-.3335-1.99988-11-18.33289-13l-.334-4.6665,23.334,9s.999-7.0005-22.667-14.3335l1.667-5,35.333,14,8.667-5.6665-2-6.3335s-19-11-24.667-10.6665c0,0-.667,5.0004-7.667,2.3335l-7-2.667,4-6.6665,14.667,4.3335s3.333,2.666,5-1.667l20.333,7s6.667,3.9995,7.667-2.667-2-3.9995-5-5.333-9.667-4.3335-9.667-4.3335-3.999,1.333-3.666-4.3335,5-2.333,5-2.333l22,8.333s3-10.3335-23-17c0,0,1.667-12.666-11-12.333l-15-5.3335s-1.668,12.6665-4.334,15c0,0,8.333,5.3335,11,5l-3.333,5.3335-19.667-7.3335-11.667,28.6665a9.84222,9.84222,0,0,0,2.167,11.332c5.333,5.167,1.499,5.834-2.167,1.667-3.6665-4.167-5.333-8.833-2.166-14,3.166-5.167-3.66751-4.333-4.834-1.5,0,0-2.333,1.333-3.6665-4.8335s-4.167-3.33353-4.3335-2.33353S323.08713,52.08078,324.8923,48.40108Z" transform="translate(-1.03104 -1.38738)"/></g></svg>