<svg id="Layer_2" data-name="Layer 2" xmlns="http://www.w3.org/2000/svg" viewBox="0 0 508.03303 513.97695"><defs><style>.cls-1{fill:#3c3c3c;}</style></defs><title>kobenhavn-kort</title><path class="cls-1" d="M162.99971,448.6699c3.335,3.5801,5.35749,3.3281,14.61089-2.3535,23.72411-14.5664,23.3418-4.4795,29.72211-7.3144,3.07619-1.3663,11.66659-2.5362,17.252-3.002,1.5-.125,4.28079,8.1182.125,7.75-9.875-.875-3.58691,2.6855-1.375,3.5,2.375.875-6.33061,25.751,7.125,13.375,5.18409-4.7686,11.37209-13.459,14.70559-13.626s2.0302-2.1738,4-6.5c.7758-1.7041,14.3335-8.583,12.91941-12.499s-9.17191-1.832-11.58591-3.666c-1.6988-1.291-6.03909-26.459,18.1665.333,2.0161,2.2314,2.91941-2.042,0-5.6641-1.4424-1.79,14.66941-18.665,17.16941-21.834s1.49609-6.8408-1.33451-2.3857c-4.66549,7.3418-16.0869-11.2158-18.54049-4.7832-4.625,12.125-10.5,12.875-5.75,5.25,1.23579-1.9834-4.07281-9.9131-4-15.875.08059-6.5859,13.56839-7.4014,7.25,1.625-.875,1.25,16.375,13.5,20.87789,7.8359l9.833-13.333s3.001-4.833-3.166-7-16.894-7.2949-18.71189-8.1601c-3.083-1.4678-3.126-4.8477.292-3.8428,3.10989.9141,21.70409,12.0195,23,8.625,1.81539-4.7549,20.31349-46.1729,19.084-45.1201-5.834,4.9951-10.24421,3.5478-6.959-1.3799,2.5-3.75,82.25-67.125,86.79-86.1221.46489-1.9453.27349-3.4716-2.64161-4.2246s14.5655-33.4492,10.97661-36.0283c-4-2.875-10.875-14.5-.75-16.5,2.40918-.4761,3.84078-41.229,2.375-41-5.583.8716-1.88672,34.2231-5.625,35.625-5,1.875-.07712-14.3018-2.82711-14.1768-4.50789.2051-.7911,13.8311-4.9395,13.8164-4.10839-.0146,3.2588-23.6132,1.26561-24.5112-7.499-3.3784-4.65231-9.3564.19239-9.4648,7.30861-.1636,9.64261-9.8711,2.43361-9.0386-5.75.6641-9.17581,1.8643-12.28811-1.1694-5.21189-5.0806,13.4834-8.4732,18.78811-5.7056,5.75,3,16.49318.6597,0-4.875-18.625-6.25-13.46871-11.4746-9.459-9.9146,31.584,12.2896,24.97268,5.9991,18.333.6666-4.13772-3.3233-21.25291-4.8926-20.5-7.3335,3.251-10.5435,8.04978-1.272,11.251-1.0435,10.5.75,20.89258,5.0371,24.125,7.125,6,3.875,5.25,2.125,11.46288-2.6807,8.1992-6.3422,6.7949-8.1098,1.03712-9.0693-5.47272-.9121-27.47462-11.4111-28.042-9.8315-1.958,5.4565-2.46582,5.7641-5.84082,2.7641-1.5635-1.3901-2.6133,3.5659-6.8643-1.2534-2.25289-2.5542,1.0987-6.5361,4.37111-7.1772,5.751-1.127-.21481,11.5346,6.44338.8818.625-1,28.289,12.2212,35.05762,13.9912,8.125,2.125,15.39158-7.7319,14.5-8.375-3.50982-2.5312-10.5-2.875-8.625-7.75s9.24318-2.7178,12.09958-.2695c.875.75,2.4697-7.3555.02542-8.9805-4.39262-2.9204-49.80082-34.8906-52.75-29.75-2.20212,3.8379-7.65332,18.5454-4.375,19.5,9.875,2.875,10.61718,2.3799,9.80858,5.896-1.05858,4.604-1.3633,3.2642-6.85058,1.7705-6.583-1.7915-14.57711-6.5518-17.32131-.2808-3.38669,7.7393-14.01169,28.1143-10.4795,31.7242,7.1983,7.3564-.15719,13.3901-6.28219-.4849-.82911-1.8774,8.37889-20.1489-2.375-10.5-3.55471,3.1895-3.32521-9.8984-6.125-7.75-5.375,4.125-4.27731-14.3105-5-20-1-7.875,1.125-6.75-11.01761-8.0518-2.3008-.2465-4.9765.7227-5.0595-3.2783-.04789-2.2949-4.54789-2.7949-5.8936-.1553-.3848.7549-2.77929-4.1396-5.65429.3604-.97951,1.5337-1.86041-3.1055-3.86041-.2305-1.2841,1.8462-17.4443-1.8901-18.51459.4805-2.625,7.375-7.125-3.5-10.12891,3.4048-.37109,6.8452-3.99609-.4048-2.37109-2.2798s-2.86331-2.7256-6.625-2.25-15.58891-.377-16.82761,1.9761c-4.42239,8.3989-8.54739.6489-11.0733,1.8232-4.7187,2.1939,2.15091-4.7993-5.59909-7.4243-2.21191-.749-8.75.125-10.75-.25s-.34671-1.8823-1.375-5.75c-2.625-9.875-15.65231-13.1035-33.375-6.75-13.25,4.75-18.77831,4.832-21.875,7-5,3.5-10.86041,19.6987-12.125,24.125-.5,1.75-40.25.875-49-11.75-.91161-1.3159-3.85691,1.3228-4-1.25-.25-4.5-11.47711-13.1621-14.44781-10.0493-2.55219,2.6743-11.4477.7329-12.8735,3.039-2.9595,3.7359-21.05369,20.6231-23.30369,23.2603-2.86431,3.3574-18-.875-20.84571,1.8687C51.08031,66.3516,46.58571,70.875,40.83521,71S34.72,82.8457,32.45971,86.75c-5.5,9.5-21.38961,36.4136,5.625,46.75,8.62939,3.3018,14.47019-1.7637,10.875,13.375-.334,2.8335,2.75729,8.6367.625,14-3.10841,7.8174,8.15479,21.231,5.375,28.875-.90771,2.4966,8.65189,36.8955,6.04149,39.584-4.16649,4.291.9238,6.3198,2.95851,9.541,1.5,2.375,11.62739-4.9419,13.75-.75,14.875,29.375,15.23629,20.8203,25,15.125,1.5-.875,7.94679.7314-.14111,7.9985-4.6362,4.1661,6.89111,8.2515-11.6226,14.024-6.4819,2.021-2.98629,48.4775-4.98629,52.7275-3.38041,7.1836.644,22.0771,3.875,24.5,17.001,12.749,33.72559,46.7295,45.75,56.75,9,7.5,20.75,27.5,27.415,39.4199" transform="translate(-22.79758 -25.47435)"/><path class="cls-1" d="M235.9182,465.167c5.75051,12.249,3.25051,11.332,11.5571,1.9736.9053-1.0195,2.3096,1.8389,6.2759-3.0703.6064-.751,1.24951,1.9277,6.58151,2.0108,1.26229.0195-4.33151,9.499,35.002,10.0019,1.58109.0205,30.38089,1.6133,30.21479,3.9463-.3789,5.3311-15.71379,58.8027-12.96379,59.2207,6.92189,1.0518,30.501-1.6709,35.624-16.5,1.93359-5.5977,4.377-43.7549,5.96-43.7549,4.76459,0,28.10929-.8154,28.83689-4.2119,4.664-21.7861-3.2051-40.7861,1.499-40.7832,2.1289.001,15.1523-1.4043,14.916,1-.418,4.2529,39.1182-9.7627,47.03812-11,2-.3125-.14062,3.0273,4.375,2.8125,1.31248-.0625-.19822,6.2842,6.31248.5625,6.18752-5.4375,14.25-5.4414,15.25-7.4375.72752-1.4512-3.3203-10.1855-1.81248-11.125s19.65038-6.3203,19.625-5.3125c-.18752,7.5625,20.71878-5.2656,25.877-4.7939,10.69918.9785,9.68548-4.2686,7.498-7.8936s-12.12892-11.0889-13.5-18.4375c-4.68752-25.125-19.53322-34.7754-16-54.5625,1.56248-8.75-8.21,5.4727-8.35252-3.2002-.02248-1.3623-10.3614.2129,5.415-4.2373,2.43752-.6875-12.18748-16.3125-5.75-19.375,2.9824-1.4189-5.10548-4.9395-2.18748-5.375,5.43748-.8125,6.75-3.875,7.375-3.875s5.06838,9.4424,7.375,1.125c.59278-2.1372,10.19918-8.3809,10.30568-9.251,2.6318-21.4365.7197-34.417-3.1182-16.249-.93748,4.4375-8.2461-3.9292-10.56248,1.375-2.375,5.4375-12.08012,5.6768-4.25-1.75,6.06248-5.75.02638-6.5454.25-10.6875.125-2.3125,13.31048-3.9385,12.5-5.875-3.60642-8.6172-7-21.4375-11.125-19.1875-5.79882,3.1626-27.48832,12.9233-23.75,22.1875,2.875,7.125,16.624,30.582,20.125,35.25,1.68748,2.25-6.18752,7.5-9.06252,3.5s-21.0088-38.3066-22.4873-42.9385c-2.8125-8.8125,39.29982-31.8115,38.4873-32.874-1.9922-2.605-7.875-12.375-8.68748-11.9375-2.11432,1.1382-12,11.125-12.56252,5.625-.3457-3.3828-5.625-2.1875-4.75,5,.2588,2.124-.56248-4.9927-7.7539.1577-7.80858,5.5923-13.8711,7.2129-13.8711,5.0298,0-2.0625-9.75.6875-9.81248-.375-.125-2.125-1.38772-6.7842-.06252-6.6875,3.2412.2363,12.3057-2.8081,13.81252-2.1875,1.06248.4375,4.5,9.5,1.75-2.4375-.70512-3.0586,10.41308-2.3242,11.875-4.8125,4.18748-7.125-.375-7.5088-.125-10.9375.07128-.9771,3.69728-7.6196,1.56248-20.6875-.2021-1.2373-39.75-.5-40.18748,1.5s10.93748,2.125,9.43548,7.062c-1.0771,3.5401-7.248-.9995-11.81048-6.8745-1.06842-1.3765-3.375,8.5-.625,8.5625,1.20018.0273,5.18748.25,4.5,2.625-1.44042,4.9751-5.31252-.8125-5.93752,1.9375s-2.6436,14.833-2.06248,15.0625c2.92768,1.1563,9.5,2.125,9.06248,4.625-.2812,1.6055-9.68748-2.375-9.625-.6875.0586,1.5923,8.81252,3.0625,9.416,3.9575s4.0654,5.9722-1.7099,7.669c-3.6065,1.0595-2.25,9.3994-.5811,7.436,2.125-2.5,5.25-9.8125,7.18752,1.625s2.68748,37.75-6.125,47.625c-11.21972,12.5723-30.584,35.6973-54,34-8.625-.625-21.20611-4.5605-19-7.125,6.93749-8.0625,6.43649.8496,7.875,1.6875,4.042,2.3545,5.042-2.3125,7.209-2.4795,2.5.167,2.95509,5.625,7.333,1.834,1.34279-1.1631,3.53219-4.5293,6.083-.6045,1.584,2.4375,5.251-.2295,4.33109-3.2275-.7559-2.4629,3.038-6.4287,6.29391-4.0225,3.834,2.833,4.375-4.75,6.625-6s7.49708,5.9365,9.75-4.0625c1-4.4375,9.34078-.624,8.75-5.5-1.42972-11.8032,9.749.4868,7.31248-12.625-1.31248-7.0625,9.3193-1.0493,3.68752-12.3125-2.06252-4.125,7.582-4.2065,1.75-11.3125-5.43752-6.625,7.14648-8.3667-1.125-12-13.375-5.875-4.15722-21.3867-10.75-20.6875-4.125.4375-4.14942,9.9463-3.93752,11.375,1.1904,8.0269-1.31448,16.957-7.93748,14-3.5-1.5625-7.31842,12.0264-8.125,13.4375-.5.875,6.11328,6.5332,2.75,4.9375-4.875-2.3125-7.959,2.105-8,5.3125-.02931,2.2925-23.625,15.8125-33.375,27.625-3.15621,3.8232-39,46.1875-42.25,54.375-4.14161,10.4346-37.125,80.375-35.06251,85.3125.5352,1.2813-3.18749-2.6875-5.75-.8125-2.0576,1.5059,6.0313,3.6309,4.875,5.25-1.25,1.75-7.103-1.4736-8-.75-1.93749,1.5625,5.06251,2.375,2.56251,4.875S235.1521,463.5352,235.9182,465.167Z" transform="translate(-22.79758 -25.47435)"/><path class="cls-1" d="M513.3972,374.9375c-.5391.4443,11.93752,15.084,11.93752,13.7715,0-6.419-3.20512-18.1465,4-26.042,3.89258-4.2666-.749-3.8496-3.31252-4.2295C515.8972,356.9375,530.20971,361.0625,513.3972,374.9375Z" transform="translate(-22.79758 -25.47435)"/><path class="cls-1" d="M512.33471,339.75c1.26458.0127,3.21088,2.7607.499,4.75-1.874,1.375-10.68652.25-2.749-2.375C512.1179,341.4521,511.0222,339.7373,512.33471,339.75Z" transform="translate(-22.79758 -25.47435)"/></svg>