<svg id="Layer_1" data-name="Layer 1" xmlns="http://www.w3.org/2000/svg" viewBox="0 0 463.21191 78.7627"><defs><style>.cls-1{fill:#fff;}.cls-2{fill:#ff4a4d;}</style></defs><title>logo</title><path class="cls-1" d="M89.93848,65.92131H85.51074L71.20215,53.17717V65.92131H67.90723V27.85149h3.29492V51.82756L84.21582,39.73137h4.26563L74.874,52.31291Z" transform="translate(-1.1582 -7.96037)"/><path class="cls-1" d="M97.58105,64.62541a11.22533,11.22533,0,0,1-4.23926-4.752,16.09539,16.09539,0,0,1-1.51172-7.18262A16.09548,16.09548,0,0,1,93.3418,45.5092a11.23106,11.23106,0,0,1,4.23926-4.752,12.81009,12.81009,0,0,1,12.66211,0,11.00694,11.00694,0,0,1,4.23926,4.752,16.35058,16.35058,0,0,1,1.48535,7.18164,16.35049,16.35049,0,0,1-1.48535,7.18262,11.00145,11.00145,0,0,1-4.23926,4.752,12.81009,12.81009,0,0,1-12.66211,0Zm12.7168-3.99609q2.26758-2.75391,2.26758-7.93848,0-5.07422-2.29492-7.91064a8.54793,8.54793,0,0,0-12.7168,0q-2.26758,2.83521-2.26855,7.91064,0,5.18408,2.21484,7.93848a7.69678,7.69678,0,0,0,6.37207,2.75391A7.85661,7.85661,0,0,0,110.29785,60.62932Z" transform="translate(-1.1582 -7.96037)"/><path class="cls-1" d="M159.92285,49.23576V65.92131h-3.29395V49.45158q0-3.94189-1.40332-5.69727a5.403,5.403,0,0,0-4.48242-1.75488,7.04988,7.04988,0,0,0-5.58887,2.376,9.413,9.413,0,0,0-2.0791,6.42578V65.92131h-3.29395V49.45158q0-3.94189-1.4043-5.69727a5.40091,5.40091,0,0,0-4.48145-1.75488,7.04851,7.04851,0,0,0-5.58887,2.376,9.413,9.413,0,0,0-2.0791,6.42578V65.92131h-3.29395V39.73137h3.23926v4.31982a8.21289,8.21289,0,0,1,3.26758-3.69873,9.47909,9.47909,0,0,1,4.94043-1.269q6.31934,0,8.04688,5.18408a8.52323,8.52323,0,0,1,3.45508-3.80713,10.28124,10.28124,0,0,1,5.34668-1.377Q159.92334,39.08342,159.92285,49.23576Z" transform="translate(-1.1582 -7.96037)"/><path class="cls-1" d="M205.44434,49.23576V65.92131h-3.29395V49.45158q0-3.94189-1.40332-5.69727a5.403,5.403,0,0,0-4.48242-1.75488,7.04988,7.04988,0,0,0-5.58887,2.376,9.413,9.413,0,0,0-2.0791,6.42578V65.92131h-3.29395V49.45158q0-3.94189-1.4043-5.69727a5.40091,5.40091,0,0,0-4.48145-1.75488,7.04851,7.04851,0,0,0-5.58887,2.376,9.413,9.413,0,0,0-2.0791,6.42578V65.92131h-3.29395V39.73137h3.23926v4.31982a8.21289,8.21289,0,0,1,3.26758-3.69873,9.47909,9.47909,0,0,1,4.94043-1.269q6.31934,0,8.04688,5.18408a8.52323,8.52323,0,0,1,3.45508-3.80713,10.28124,10.28124,0,0,1,5.34668-1.377Q205.44482,39.08342,205.44434,49.23576Z" transform="translate(-1.1582 -7.96037)"/><path class="cls-1" d="M235.19824,39.73137V65.92131H231.958V61.22307a8.67351,8.67351,0,0,1-3.53711,3.78027,10.40815,10.40815,0,0,1-5.21094,1.2959q-4.645,0-6.99316-2.56445-2.34814-2.56494-2.34863-7.58789V39.73137h3.29395V55.93108q0,3.835,1.53906,5.64355a6.0042,6.0042,0,0,0,4.833,1.80859,8.01144,8.01144,0,0,0,6.0752-2.40332,8.8783,8.8783,0,0,0,2.29492-6.39844V39.73137Z" transform="translate(-1.1582 -7.96037)"/><path class="cls-1" d="M265.5459,49.23576V65.92131H262.252V49.45158q0-3.88843-1.56641-5.67041-1.56738-1.782-4.96777-1.78174a8.37908,8.37908,0,0,0-6.2373,2.376,8.66957,8.66957,0,0,0-2.34863,6.37207V65.92131h-3.29395V39.73137h3.23926V44.2133a8.7571,8.7571,0,0,1,3.5918-3.80713,10.87463,10.87463,0,0,1,5.42676-1.32275Q265.54395,39.08342,265.5459,49.23576Z" transform="translate(-1.1582 -7.96037)"/><path class="cls-1" d="M291.59961,41.56731q2.34961,2.48438,2.34863,7.50635V65.92131H290.709V61.22307a8.49873,8.49873,0,0,1-3.29492,3.75293,9.309,9.309,0,0,1-4.96777,1.32324,10.46412,10.46412,0,0,1-4.64355-1.02637,8.18085,8.18085,0,0,1-3.32129-2.86133,7.18515,7.18515,0,0,1-1.21484-4.0498,6.39375,6.39375,0,0,1,1.51172-4.53613,9.215,9.215,0,0,1,5.02246-2.32227,52.61075,52.61075,0,0,1,9.77344-.70215H290.709v-1.998q0-3.564-1.458-5.21094a5.83314,5.83314,0,0,0-4.59082-1.647,15.39031,15.39031,0,0,0-4.5625.67529,18.127,18.127,0,0,0-4.50879,2.187l-1.24219-2.53809a16.23083,16.23083,0,0,1,4.752-2.32227,18.00449,18.00449,0,0,1,5.40039-.86377Q289.24951,39.08342,291.59961,41.56731ZM288.46777,61.061a8.46162,8.46162,0,0,0,2.24121-6.04785V53.23088h-1.02637a54.85452,54.85452,0,0,0-7.93848.43262,7.45643,7.45643,0,0,0-3.8877,1.48438,3.96164,3.96164,0,0,0-1.13379,3.05176,4.7355,4.7355,0,0,0,1.72754,3.75293,6.3167,6.3167,0,0,0,4.2666,1.48438A7.55139,7.55139,0,0,0,288.46777,61.061Z" transform="translate(-1.1582 -7.96037)"/><path class="cls-1" d="M302.53418,65.92131V27.85149h3.29395V65.92131Z" transform="translate(-1.1582 -7.96037)"/><path class="cls-2" d="M340.65723,27.85149h6.80371V65.92131h-6.80371V49.3969H321.16309V65.92131h-6.8584V27.85149h6.8584V43.78117h19.49414Z" transform="translate(-1.1582 -7.96037)"/><path class="cls-2" d="M383.58691,27.85149h7.07324L373.7041,65.92131h-5.66992L351.07813,27.85149h7.18262l12.63574,29.43018Z" transform="translate(-1.1582 -7.96037)"/><path class="cls-2" d="M419.71289,65.92131l-3.834-8.91016H397.35645l-3.834,8.91016h-7.01953l17.22559-38.06982h5.6709L426.625,65.92131ZM399.625,51.61174h13.93164l-6.96582-16.2002Z" transform="translate(-1.1582 -7.96037)"/><path class="cls-2" d="M430.67383,27.85149h14.04q9.34277,0,14.499,4.99463,5.15625,4.99585,5.15723,14.01318,0,9.01831-5.15723,14.03955-5.15625,5.02295-14.499,5.02246h-14.04Zm13.6084,32.3999q13.12207,0,13.12207-13.39209,0-13.3374-13.12207-13.33789h-6.6416v26.73Z" transform="translate(-1.1582 -7.96037)"/><path class="cls-2" d="M61.48828,33.43254H49.64453l-5.25,26.92432H59.14063V65.9428H43.27734L39.25586,86.72307H33.334L37.35547,65.9428H17.916L13.89453,86.72307H8.08594L12.10742,65.9428H1.1582V60.35686H13.22461l5.25-26.92432H3.50391V27.8466H19.48047L23.39063,7.96037H29.3125L25.40234,27.8466H44.8418L48.752,7.96037h5.80859L50.65039,27.8466H61.48828ZM38.47266,60.35686l5.252-26.92432H24.28516l-5.252,26.92432Z" transform="translate(-1.1582 -7.96037)"/></svg>