<svg id="Layer_1" data-name="Layer 1" xmlns="http://www.w3.org/2000/svg" viewBox="0 0 521.0984 492.96673"><defs><style>.cls-1{fill:#3c3c3c;}</style></defs><title>odense</title><path class="cls-1" d="M410.68749,500.9375c-1.0059-3.4375-6.43749-10.4375-6.125-12.5625.3569-2.4268,7.377-6.9814,6.625-9.8125-1.06249-4,1.0586-6.7773,4.81251-5.5625,2.125.6875,5.125-12.6875,7.93749-13.0625,3.4873-.4648,2.8091-3.6855,6.5-5.125,2.249-.877,2.8184-3.3145,14.06251-7.0625,5.625-1.875,13-1.0625,18.5-5.75,1.32129-1.126,2.5-2.125,9.25-1.125,4.12259.6104,18.25389-8.5078,17.25-7.6875l3.47659-.2646s9.9277-5.7803,12.64841-8.5479c2.17579-2.2129,4.68749-3.9375,7.18749-3.5,8.6816,1.5195-.68749,1.625,5.56251,4.8125,3.21389,1.6396,2.56249,5.25-.875,6.3438-5.95121,1.8935-5.19631,7.3398,1.125,8.2812,2.88479.4297,7.36229,9.083,8.43749,12.1875.5762,1.6631,5.93751,3.5,5.6064,19.2637-.2177,10.3789,4.0186,13.6738,6.8936,12.7363,8.1846-2.6689,6.2607.3604,8.06251.3125,59.06248-1.5625,42.32319-23.8721,42.68749-24.0625,9.5293-4.9814,36.81251-13.125,49.18751-11.8125,5.13378.5449,28.25,5.9375,31.18748,7,.77052.2783,10.125-7.6875,12.56252-8.25s27.56248-.9375,38.56248,2c.6641.1777,28.625-37.4375,29.875-37.75,5.2158-1.3037.2158-3.6602,1.06252-4.9375s3.25-4.375,3.5-8.4375c.32808-5.3262,3.93748-6.3125-1.68752-7.5-6.627-1.3994-19.0244-7.2334-19.3994-8.4209-2.0166-6.3867-7.2256-4.4541-7.91308-6.1416-.74022-1.8174-2.68752-17.625-3-19s-10.25-7.4375-12-7.75-4.502,4.8359-6.25,4c-11.375-5.4375-6.375-14.0625-11-20.5625-1.70312-2.3936-19.49122-17.5078-20.43752-16.8125-4.93748,3.625-2.5-2.1875-3.18748-4.625-.76072-2.6963-4.125-4.5625-3-10.375.30858-1.5928-9.5-10.9375-10.375-13.375-.73242-2.0391-.875-1.9922-2.875-4.1875-.5-.5488-3.75-6.375-3.68752-9,.3701-15.5625-7.25-17.5-8-24.75-.2256-2.1768,3.1621-2.0981,2.125-4.5625-1.5-3.5625.2998-2.4717.9336-5.25,2.0664-9.0625-8.99708-11-13.24708-15s-8.40332-10.6865-10.68652-10.0312c-1.7598.5048-35.5,18.0312-27.43748-8.0938,0,0,3.33008-1.603.625-3.125,0,0,.43748-7.1719.43748-8.3594s-2.2217-.1758-2.56248-1.664c-.28811-1.2569-1.25-9.2383-3.18751-9.1758-2.332.0752-5.31249-1.3692-.43749-4.0567,6.30368-3.4751,19.875-5.997,13.25-12.497a27.30032,27.30032,0,0,0-5.875-4.1861c-2.75-1.25-2.48442-10.9936-2.06251-11.812,2.0098-3.8984-.5957-3.5361-1.31249-5.9995-2.875-9.875-18.43751-11.1245-26.75,6.2505-3.13961,6.563-8.625,3.4375-14.75-.5s-12.375,4.0625-13.25,4-2.09081-4.4702-1.5-5.5c2.18749-3.8125,4.25-7.1875,4.06249-10.3125-.0332-.5542,4.9141-.4077,4.31251-2.8125-1.06251-4.25,2.93749-9.875,3.625-11.625s-2.125-2.9375,1.375-5.9375.75-6.375-3.25-6.125c-3.52441.2202-8.27931-4.0488.43749-4.8125,1.7393-.1523-.6133-5.2183,1.93751-5.3125,0,0,3.165.1143,3.125-2.3125-.06251-3.8125,2-6.3125,1.43749-7.8125-1.0654-2.8413-.25-4.6875.43751-8.8125-.19631,1.1772.752-2.7856-.5-2.5-2.63281.5996-4.82231,6.1909-6.61041,11.1978-.7294,2.0424-3.6513,2.3139-2.7021-1.0103a36.90761,36.90761,0,0,1,4.31251-8.375c1.68459-2.6655,3.36039-5.9214,5.75-9.1875,0,0,4.25-7.3125-3.5-2.9375,0,0-4.18751,3.375-5.25,3.9375S534.5,77.4375,533,77.25s-5.58691-8.2959-6.25-9-19.93461-10.3169-23.53121-8.75c-3.1563,1.375-11.9063,2.375-15.4063-.5s-9.4341-6.2187-12.06249-4.5c-4.875,3.1875-25.15671,5.8369-16.625-1.5625,1.44869-1.2563-6.5-7.3125-7.625-7.5625s-16.19431,3.877-16.69091,4.3135S436,58.125,427.25,55.25c-1.40821-.4629-1.98781-.8975-8,2,0,0-43.81251-4.625-45.5-5s-3.58891-4.3569-5.5-5-8.51861-3.25-8.91551-3,0,19.75-8,30.4165-9.33349,8.6665-21.33349,32c0,0-8.66651,3.334-8,6.667s-7.99951,2.667-14.66651-4l-10-.667-6,22s5.333,16.0005-4.667,4.667l-10.66649,1.333-7.33351,12S278.54389,160.7183,279,163.25c.21039,1.1694-1.56251,9.625-4.43751,9.75,0,0,.5659,7.7505-.3311,8.042s-17.10639-5.3545-17.10639-4.4795c0,3.2173,1.52249,6.75,1.54249,7.4375s-12.667,1.9995-18,14.6665c0,0-5.18949,16.5889-3.855,16.2085,10.75-3.0625,14.93751,2.375,12.3013,13.1968-.3662,1.5029,14.9433-4.2124,14.3237,8.4907-.06149,1.2627,20.75051,14.2271,22.6362,13.9063,3.4888-.5938,4.2388,3.3437,4.2388,3.3437l7.68751.25s22.10449-15.104,25.43749,11.5625c0,0,17.9478,2.2417,24.125,3.375,10.56251,1.9375,1.5103,4.8276,1.125,6.375-1.2578,5.0518-2.375,20.125-3.43749,20.375s-3.875-4-4.875-4.125-8.5,7.4375-9.43751,7.9375-12.4687.4688-18.4687,7.2188-7.2344,7.9843-7.2344,7.9843-3.4922,3.7422-4.7422-.0078a46.64517,46.64517,0,0,0-4.7461-8.8789s-20.3618,7.541-20.793,7.915C273.56249,315,266.81249,312.1875,257,314.5c-6.375,11.25-9.64941,28.3047-6.5,31.8125l-.06251,5.9375L271.75,362.75s.375,3.0625,3.875,2.25c1.63429.873,10.979,5.3066,8.79739,9.8076-1.54739,3.1924,3.2651.6299,1.5151,3.0049-1.1421,1.5498-2.7046,2.7852-2.6421,3.5352s12.2671,1.7148,12.2671,1.7148.4863,7.0645,0,9.375c-.25,1.1875-7,2.1875-.06249,8.8281-.125,2.1719-9.5,10.2969,6.5,10.2422,2.25389-.0078,3.31249,3.9922.875,4.2422-2.53221.2598-.68751,4.5625-.875,7.002,0,0,.31249,4.3105-4,4.5605-2.04881.1191-2.43311,1.2188-4.5,6.9375,0,0-2.68751,6,1.75,7.25,0,0,4.5,1.4375,3,6.75-.06251,1.75,2.25,4,2.25,4l-2.5,2.5a131.00623,131.00623,0,0,1,.75,14.75s4.46829,3.29,6.5,1.8125c2.75-2,9.12839,1.9463,11.50339,1.6338s6.80961-5.3203,9.87161,4.7412c.43749,1.4375,4.93749.625,5.875-.75,1.93749-1.5625.93749-3,2.06249-4.6875.7637-1.1455,2.81251-.8125,3.31251-4,.26319-1.6797,1.125,2,3.125-2.25,0,0,4.68749-5.0625,4.125,5.75-.375,3-2.90971,7.3291-3.78471,8.6416S343.56249,488.8125,337,489c-3,.125-3.29541,7.3506-1.875,8.375,3.81249,2.75,2.75,8.625-2.31251,8.625-5.9639,0-8.06249,4.1875-8.06249,5.75s-.18751,3.8125,8.375,7.4375c3.58059.6465-.207,4.376-.80661,6.4756-.3892,1.3623,1.68161,4.5557,3.2441,5.4619s3.93751-1.5,6.68751,3.0625c2.56249,1.2344,6.98729.1807,8.31249.25,2.375.125,4.56251,5,7.93751,1.5,5.87739-6.0947,12.15719-5.6094,13.31249-7.0625,4.9331-6.2051,13.2529-1.7158,16.56251-1.375,4.25.4375,10.57129-6.3994,21.02979.0918,3.34521,1.0957,9.832-.8799,10.1577-1.2793,4.125-5.0625,5.8716-4.1709,6.31251-5.0625,1.05519-2.1338.12449-8.8271-.125-10.25-.24221-1.3809-4.25-4.0625-8.875-5.8125C415.97219,504.8457,411.43749,503.5,410.68749,500.9375Z" transform="translate(-236.5931 -44.23316)"/></svg>