<svg id="Layer_2" data-name="Layer 2" xmlns="http://www.w3.org/2000/svg" viewBox="0 0 279.13862 63.62267"><defs><style>.cls-1{fill:#ff4a4d;stroke:#ff4a4d;stroke-miterlimit:10;}</style></defs><title>odense-skyline</title><path class="cls-1" d="M88.32,65.27445H364.254V50.78918l1.22045-1.15265L357.27035,45.365H353.948s-7.05148-10.10261-15.93364,0h-3.72915l-7.482,4.06816.44548.98995v6.23668H326.234V45.49808l-2.40063.76721V42.92421l-3.14309.94045v1.80666h-7.65213V39.34463h-3.17054v2.27261H298.33607V39.66056h-.85578v1.98182l-.94372-.94372V37.608h-1.19145V40.793l-.96142.96142V39.60158h-.79627v2.13517H282.17412v-2.3234H279.0473v6.12h-7.85713V44.09021l-2.83284-1.09572v2.913l-2.48542-.56122V56.75784H264.696V54.53967h-.90865v-.80175h-1.09572v-.93537h-.9621V51.8939h-.82847v-.7483h-.8552V50.237h-.88192v-.8552h-1.04227V41.79187l-.90865-.8552V30.56739l.40087-.61467h-1.63022l-2.2449-2.37852s-.58795-2.619.294-2.913a24.024,24.024,0,0,1-1.52332-6.84159c-.294,3.31389-.45432,5.639-1.4966,6.84159.4276.4276.13362,3.04664.13362,3.04664l-1.63022,1.844H247.111l.72157,1.04227v10.396l-1.1759.90865V49.355h-.88192V50.3973h-.98882v.8552H243.904v.80175h-.775V53.15h-1.12245v.66812h-.82847v.69485h-.93537v2.16472L239.147,55.58194V49.88953l-1.29616-1.29616V22.25594L234.9184,5.12406,232.04816,21.994V42.14422l-.93722-.93722-.96651.96651V37.751h-2.32032V33.835h-2.63969v3.916h-2.46564v4.49617l-.87023-1.1603-.81221,1.07328-.42061-.42061h-.47862v6.5122l-1.69694,1.69694v3.37938h-.68168v1.07328h-.69618v1.07328h-.72519v2.84274l-.95725,1.45038v1.79847h-.72519V48.19372l.71069-.71069s-2.3061-.0145-2.19007-5.0038a4.52374,4.52374,0,0,0-1.45038-.087l-1.9145-4.67022-.116-4.52518-.49313,5.33739-1.27633.58015-2.37862,2.6977V40.10062H204.444v2.58167h-4.2351V41.2029h-1.97251v1.39236H197.0471V41.1739h-1.33435v1.45038h-4.2061V41.23191H189.7662v1.30534h-1.65343V39.904l-1.71512-9.041-1.41623,9.041v2.63066h-8.2532V41.36263H174.6283v1.41623h-6.29978V40.23941H167.01v1.36739l-3.46732-3.95567-.293-1.70924-.43952,1.90458-1.95342,4.49286-1.41623.19534A4.67975,4.67975,0,0,1,157.487,47.5159c.43952.97671.53719,1.26972.53719,1.26972V62.21538h-.92787V53.425l-9.0834-6.15327-.39068-1.31856-1.26972-.04884.04884,1.22089H143.5201V45.85549h-2.00225v1.26972H128.82063V45.90433H126.33v1.46506h-7.22765V45.90433h-2.00225V47.5159H103.8657V45.90433h-2.05109v1.80691H99.031V45.90433H97.66359v1.31856l-9.86477,6.44628.43952,1.17205Z" transform="translate(-87.19003 -2.15178)"/></svg>