<svg id="Lag_4" data-name="Lag 4" xmlns="http://www.w3.org/2000/svg" viewBox="0 0 414.32427 331.00127"><defs><style>.cls-1{fill:#fff;stroke:#000;stroke-miterlimit:10;stroke-width:1.5px;}</style></defs><title>sjaelland</title><g id="Lag_2" data-name="Lag 2"><path class="cls-1" d="M43.64729,68.28113a3.35293,3.35293,0,0,0-1,4c.54694,1.07263,1.60571,1.05859,4,2a25.87117,25.87117,0,0,1,7,4c2.14453,1.80023,2.72479,3.14932,4,3a2.31006,2.31006,0,0,0,2-2c-.07172-1.47693-3.03625-1.31976-6-4-2.21924-2.0069-1.65094-3.08423-4-5C49.05861,69.801,45.64461,67.01676,43.64729,68.28113Z" transform="translate(-17.88621 -22.03203)"/><path class="cls-1" d="M51.64729,296.28113c-.34937,1.03369-1.11932.78528-4,4-2.41608,2.69617-2.63354,3.718-4,4-1.01361.20917-1.10919-.30865-5-1a5.0829,5.0829,0,0,0-3,0c-.09882.03986-1.74792.729-2,2-.222,1.11945.74786,2.14478,4,5a63.50688,63.50688,0,0,0,6,5c1.3136.7901,2.696,1.43768,8,3,7.3009,2.15051,7.53741,1.76465,11,3a45.70562,45.70562,0,0,1,10,5c1.5296,1.02856,2.58655,1.8902,9,8,7.61639,7.25574,10.01013,9.74109,12,9,1.86157-.6933,1.24255-3.41809,4-5,2.16821-1.2439,3.44318-.071,6-1,3.45154-1.254,3.07562-4.09888,6-6,3.60132-2.34125,8.56824-.88531,15,1,6.89093,2.0199,8.15,3.87738,11,3,4.90643-1.51044,7.72217-9.031,6-11-1.28967-1.47449-4.68524.66614-6-1-1.16449-1.47571-.04828-5.116,2-6,1.62286-.70038,2.89166.73492,4,0,1.38519-.91846,1.221-4.36536,0-7-1.547-3.338-3.74036-3.10626-8-7-2.16547-1.97949-5.67426-5.18683-7-10-1.14862-4.17.4856-5.39142-1-8-2.7019-4.74432-10.96466-5.721-12-4-.4964.82513,1.01685,1.69122,1,4a6.88443,6.88443,0,0,1-4,6c-2.80951,1.12878-5.48267-.80908-6,0-.72321,1.131,4.598,4.76593,4,6-.7934,1.63733-12.61951.31293-22-7-10.40424-8.111-8.0556-15.99243-16-20-11.67877-5.89136-30.90161,4.00439-31,11C39.56416,287.19141,53.11909,291.92627,51.64729,296.28113Z" transform="translate(-17.88621 -22.03203)"/><path class="cls-1" d="M85.64729,270.28113c.90778-1.21716.17151-2.36316,1-3,1.45569-1.119,5.85083.78748,6,3,.02069.30713-.02325.87518-2,3-2.446,2.62915-3.669,3.94379-5,4-2.84.12-5.64178-3.623-5-5C81.21345,271.06635,84.23543,272.17414,85.64729,270.28113Z" transform="translate(-17.88621 -22.03203)"/><path class="cls-1" d="M100.64729,263.28113a3.99821,3.99821,0,0,1,3,2c1.24353,2.28308-.24506,5.54883-2,6-2.31622.59546-6.02228-3.474-5-6A3.9036,3.9036,0,0,1,100.64729,263.28113Z" transform="translate(-17.88621 -22.03203)"/><path class="cls-1" d="M128.64729,269.28113c2.72626,1.89447,3.16211,3.08124,4,3,1.60413-.15558,1.48-4.6485,3-5,2.59613-.60034,7.06342,11.55695,9,11,1.118-.32153-.16193-4.43341,2-6,1.91229-1.38568,5.85431-.2995,8,2,2.19385,2.35107,1.01575,4.3692,3,6,2.27533,1.87,4.48846-.23785,9,1a14.48878,14.48878,0,0,1,8,6c.6037.97162,2.64294,4.25385,2,8-.83551,4.86816-5.27625,5.13446-11,12-2.81439,3.37585-4.23547,6.30383-7,12-3.27618,6.75037-4.91425,10.12555-5,13-.24188,8.10919,5.67932,12.58612,3,18-.26477.535-.95868,1.93707-2,2-1.7265.10437-2.72858-3.57367-6-10-3.90594-7.67279-5.05884-7.50031-5-10,.11517-4.89044,4.58063-7.78961,3-11-.6402-1.30029-1.67346-1.43549-2-3-.41791-2.00238,1.02765-2.96478,1-5-.02179-1.60266-1.01483-2.7569-3-5-3.93781-4.44946-5.62323-4.0932-7-7a12.24593,12.24593,0,0,1-1-6c.31256-2.82355,1.60132-3.82092,1-5-.98682-1.93481-4.84625-.0116-7-2-3.16974-2.92633,1.06909-10.89606-2-13-1.16089-.79584-2.33728-.0462-3-1-1.13983-1.64044.92194-5.89838,3-6C126.847,268.27136,127.223,268.29138,128.64729,269.28113Z" transform="translate(-17.88621 -22.03203)"/><path class="cls-1" d="M193.64729,251.28113c3.70264,2.34918,7.02155.64288,20,1a7.30627,7.30627,0,0,1,4,1c2.07843,1.33929,2.903,3.76825,4,7a20.17652,20.17652,0,0,1,1,4c.3371,2.4502.56964,4.14026,0,5-2.22906,3.36438-15.81329-7.38751-25-3-6.58759,3.14618-4.6073,11.065-13,15-.36481.171-7.94342,3.61182-12,0-2.231-1.98639-3.37445-6.08612-2-8,.67145-.93494,1.64233-.92853,2-2,.4765-1.42767-.97815-2.24469-1-4-.03107-2.49921,2.86267-5.27661,5-5,1.31006.16956,1.28613,1.35065,3,2,2.416.91534,5.00555-.46851,6-1,1.21686-.65033,3.24945-1.73657,4-4,.93317-2.81415-.73853-5.56909-1-6-1.33-2.19177-2.9187-2.42609-3-4a3.08677,3.08677,0,0,1,2-3C189.57216,245.82947,190.43678,249.24414,193.64729,251.28113Z" transform="translate(-17.88621 -22.03203)"/><path class="cls-1" d="M165.64729,222.28113c-2.96063.92535-5.71307.79108-7,3a5.59017,5.59017,0,0,0,4,8c2.41132.30261,2.98688-1.74042,6-2a8.999,8.999,0,0,1,6,2c1.22125.90912,2.76569,2.0589,3,4,.27313,2.26276-1.32886,4.81586-3,5-1.78424.19666-2.78937-2.40155-4-2-1.09113.36188-1.59534,2.91058-1,5,.33508,1.17609.90741,1.81635,4,5,3.33264,3.43073,3.87262,3.92719,4,5a5.05562,5.05562,0,0,1-3,5c-1.11554.39105-1.48285-.1889-3,0-1.63586.20374-2.64374,1.0567-5,3-3.19495,2.635-4.79663,3.95343-5,4-1.91858.43927-4.9718-1.70117-11-6-2.59985-1.854-3.88715-2.88544-6-3-2.57434-.13959-3.06012,1.2616-5,1-3.461-.46667-3.52606-5.14392-8-8-1.52271-.972-1.58032-.47186-8-2-11.47314-2.73108-11.93738-4.483-12-5a2.1471,2.1471,0,0,1,1-2c1.81079-1.03363,3.94861,2.5611,9,4,4.20447,1.19763,5.08154-.621,8,1,2.7876,1.54834,3.66614,4.13989,6,4,.14276-.00854,1.58545-.11267,2-1,.89734-1.9209-3.20892-7.11554-7-7-1.22827.03741-2.25348.62708-3,0-.91455-.76819-.12537-2.28259-1-3-.96075-.78809-2.40625.6347-4,0-1.592-.634-2.64722-3.04834-2-4,.96912-1.425,5.40076.95007,7-1,.61963-.75555.26025-1.48511,1-2,1.25061-.87036,2.95648.74213,4,0,.9129-.64923,1.01276-2.88293,0-4-.69891-.77094-1.58-.62646-6-1-2.91431-.24628-3.7395-.41113-4-1-.20428-.46179.116-.78375,1-3a15.24773,15.24773,0,0,0,1-3,5.21194,5.21194,0,0,0,0-3c-.79755-1.8244-3.93121-2.85547-6-2-2.95856,1.22345-1.58215,5.41309-4,7-4.31158,2.82977-13.50079-7.334-25-8-1.33667-.07739-5.62036-.2774-7,2-.76074,1.25574-.23865,2.60468-1,3-1.47754.76721-4.5722-3.7276-6-3-1.02087.5202.117,3.04413-1,4-1.59778,1.36731-7.58661-.66437-10-5-3.11414-5.59448,2.12323-10.71637-1-15-2.22229-3.04791-5.439-1.23-10-5-3.11322-2.5733-6.328-7.31616-5-10,1.72485-3.48578,9.75964-.76331,12-5a7.81828,7.81828,0,0,0,0-6c-.64642-1.63751-1.29376-1.51868-2-3-1.47687-3.09781.68-5.0314,0-9-.15564-.90817-1.10583-2.61783-3-6-3.84155-6.85947-4.62646-7.094-5-7-1.14606.28842-.23242,4.12546-2,5-1.65405.81836-5.04883-1.25766-5-3,.05493-1.96216,4.42932-1.79221,7-5,2.80811-3.50415,2.59625-9.95633,0-14-5.53931-8.6275-21.90271-6.2446-22-9-.04443-1.25778,3.3363-2.57346,6-3,6.70551-1.07373,11.03668,3.13977,12,2,1.35229-1.6-4.58563-12.97653-13-14-3.38251-.41144-6.42328.94046-11-1-.29712-.126-4.2467-1.82663-4-3,.35217-1.67511,9.18671-1.94391,17,0a58.21449,58.21449,0,0,1,10.99994,4c.98108.49777,3.65405,1.66519,9.00006,4,2.48938,1.08722,3.89233,1.6763,5,1,1.37415-.839,1.89758-3.38379,1-5-.84894-1.52856-2.49469-1.37265-7-3-3.03027-1.09454-6.10779-2.20615-6-3,.13293-.97916,5.20874-2.18915,8,0,1.501,1.17722,1.54919,2.71609,3,3,1.534.30017,2.26593-1.26645,4-1,1.56482.24045,1.56219,1.60733,3,2,1.79.48886,3.68134-1.11411,7-4,2.40857-2.09448,3.61285-3.14172,4-4,1.54041-3.41513-1.18457-5.45862,0-10a8.455,8.455,0,0,1,3-5c3.2934-2.28088,6.27258.83008,10-1,3.6908-1.8121,4.93756-6.90842,5-10a10.49343,10.49343,0,0,0-2-7c-1.94336-2.39209-4.83771-3.16049-8-4-3.03516-.80576-2.96771-.21463-5-1-3.70685-1.43253-3.96643-3.41287-7-4-2.59155-.50159-3.3064.76871-5,0-3.31079-1.50272-3.65936-7.7554-3-8,.58612-.21741,1.73285,4.40021,5,5,1.25555.2305,1.61292-.35477,3,0,1.79852.46,2.30292,1.72668,4,3,1.28955.96756,2.52637,1.31171,5,2,1.89044.526,4.286.69116,9,1,4.6012.30145,7.01617.32364,8-1a2.9722,2.9722,0,0,1,1-1,3.72434,3.72434,0,0,1,3,0c1.66913.67374,1.82635,1.95331,3,3,2.433,2.16992,6.70178,1.08017,7,1,5.14777-1.38367,5.65393-7.12781,9-7a4.531,4.531,0,0,1,4,4c-.05847,2.0575-2.98944,2.173-4,5-1.07184,2.99838,1.41144,5.145,0,7a3.47333,3.47333,0,0,1-4,1c-1.3053-.73553-.90765-2.64374-2-3-.94989-.30981-2.38232.7641-3,2-1.08429,2.16943.35425,4.81317,1,6,1.84741,3.39529,3.62811,3.11127,5,6,1.22552,2.58054,1.38861,6.14288,0,7-1.57007.96915-3.65314-2.42816-7-2-3.39447.43423-6.97845,4.66144-6,8,.351,1.19781,1.45551,2.84808,3,3,3.02411.29742,4.02295-5.51459,8-6,2.92279-.35672,6.14069,2.32379,6,4-.10919,1.30106-2.23523,1.91867-2,3,.17883.822,1.482.80789,2,2a2.76524,2.76524,0,0,1,0,2c-1.2298,3.02509-11.13886.5784-12,3-.334.93945.74689,2.46191,2,3,2.27142.97537,3.89832-1.80313,8-2,.686-.03293,4.29395-.20609,6,2,1.66095,2.14777.70886,5.5025,0,8-.9425,3.32077-2.29205,4.77316-2,5,.46606.362,3.644-3.7587,10-12,.92346-1.19736,2.20728-2.91016,2-5-.17377-1.752-1.23834-2.1839-2-4-1.26794-3.02332-.373-6.72729,1-9,1.94055-3.21219,4.07813-2.31061,7-6,1.05664-1.3342,3.04559-3.84558,3-7-.04663-3.22552-2.17535-4.0029-5-10-1.77545-3.76953-2.84741-6.04541-2-7,1.93732-2.18243,13.7627,2.7037,14,8,.15131,3.37741-4.50891,4.70712-4,8,.53772,3.47922,5.99866,3.66647,7,8,.5351,2.31577-.93127,2.66516-1,6-.12109,5.87787,4.35809,8.49268,3,11-.9765,1.80283-3.322.50574-7,3a16.22682,16.22682,0,0,0-5,6c-1.66431,2.9624-2.61975,4.66306-2,6,1.271,2.74176,8.88934,3.3555,14,0,5.55493-3.64722,5.98-10.561,6-11,.12769-2.80164-.82788-2.30518-2-9-.98816-5.64407-.48853-7.02237-2-10-1.34692-2.65338-2.361-2.77521-3-5-.91705-3.19305.40283-5.61987,1-8,1.97229-7.86115-3.18134-18.23529-8-19-2.58533-.41028-3.28619,2.22934-10,4-2.58734.68237-5.6048,1.44125-7,0-1.48987-1.539-.3924-4.8251,0-6,4.9668-14.87177,34.77167-26.58667,46-31,2.60608-1.02432,5.77911-2.18256,9-1,4.2597,1.564,4.65039,5.77087,9,7,3.26624.923,4.45135-1.05206,8-1,6.58948.09668,14.52338,7.08334,15,14,.52484,7.61676-8.36169,9.80606-9,19-.36951,5.322,2.45062,6.85873,6,15,2.3053,5.28775,8.57581,21.75116,3,37-.84125,2.3006-4.5271,12.38083-12,14-3.30878.71692-4.66412-.809-8-1-10.88306-.62308-25.64105,13.94711-25,29,.02551.59979.66827,12.25534,8,16,4.2403,2.16571,6.66931-.38251,12,1,7.84509,2.03461,16.04883,11.04584,15,20-1.251,10.68036-15.00714,15.65594-16,16-7.98834,2.76794-10.79578-.83789-17,3C171.94972,215.80554,171.94893,220.31153,165.64729,222.28113Z" transform="translate(-17.88621 -22.03203)"/><path class="cls-1" d="M243.64729,115.28113c2.84924.97192,3.34277,11.40994,0,13-1.34613.64032-3.10754-.25262-4-1-2.28864-1.91663-2.1283-5.61105-1-8C239.65053,117.157,242.04707,114.73526,243.64729,115.28113Z" transform="translate(-17.88621 -22.03203)"/><path class="cls-1" d="M225.64729,112.28113c.91669.28577-.62714,3.44275,1,7,1.30811,2.85977,3.32977,3.05774,4,6,.1709.75031.02606.6788,0,4-.0379,4.825.26855,4.87222,0,6-.60516,2.541-2.9245,5.50748-6,6-2.97144.47586-5.278-1.57715-8-4-2.11169-1.87961-4.2749-3.805-4-6,.20007-1.59726,1.46478-1.52979,4-5a39.20724,39.20724,0,0,0,3-5c1.16345-2.18616,1.0813-2.36963,2-4C222.54225,115.693,224.64149,111.96759,225.64729,112.28113Z" transform="translate(-17.88621 -22.03203)"/><path class="cls-1" d="M385.64729,227.28113c1.64612.405.501,4.37744,4,8,2.19336,2.27075,3.19031,1.27625,7,4,4.48962,3.20984,5.37183,6.21167,8,6,1.60474-.12921,2.20667-1.32336,4-1a5.068,5.068,0,0,1,3,2,6.52307,6.52307,0,0,1,1,3c.54492,2.69067,3.25513,4.35913,6,6,7.39758,4.42224,10.31812,2.40112,12,5,3.18176,4.91644-4,15.7889-4,23,0,2,.40942,3.5202-1,6a7.04244,7.04244,0,0,1-4,3c-4.34717,1.27539-7.59924-2.59644-14-6-9.01172-4.79193-11.24219-1.731-21-7-5.16516-2.78906-9.34448-5.04584-10-9-.77454-4.67163,4.18909-6.769,4-13-.14-4.61462-6.53451-5.77582-4-10C379.64729,242.28113,382.76485,226.572,385.64729,227.28113Z" transform="translate(-17.88621 -22.03203)"/></g></svg>